<svg id="Layer_1" data-name="Layer 1" xmlns="http://www.w3.org/2000/svg" viewBox="0 0 197.67 170.33"><defs><style>.cls-1{font-size:16px;}.cls-1,.cls-2{font-family:Roboto; font-weight: 100;}.cls-2{font-size:8px;}.cls-3{fill:#ffe41e;}.cls-4{fill:none;stroke:#000;stroke-miterlimit:10;stroke-width:0.5px;}</style></defs><title>key</title><text class="cls-1" transform="translate(27.4 15.99)">1</text><text class="cls-1" transform="translate(27.4 49.94)">2</text><text class="cls-1" transform="translate(27.4 85.9)">3</text><text class="cls-1" transform="translate(27.4 119.85)">4</text><text class="cls-1" transform="translate(27.4 154.8)">5</text><text class="cls-2" transform="translate(42.4 9.09)">P<tspan x="5.07" y="0">olitical imprisonment, to</tspan><tspan x="92.09" y="0">r</tspan><tspan x="94.89" y="0">tu</tspan><tspan x="102.21" y="0">r</tspan><tspan x="104.88" y="0">e, </tspan><tspan x="0" y="11.2">and political mu</tspan><tspan x="57.57" y="11.2">r</tspan><tspan x="60.24" y="11.2">der is ext</tspan><tspan x="92.96" y="11.2">r</tspan><tspan x="95.63" y="11.2">emely ra</tspan><tspan x="126.25" y="11.2">r</tspan><tspan x="128.91" y="11.2">e.</tspan></text><text class="cls-2" transform="translate(42.4 42.77)">Limited political imprisonment. <tspan x="0" y="11.2">T</tspan><tspan x="4.38" y="11.2">o</tspan><tspan x="8.93" y="11.2">r</tspan><tspan x="11.73" y="11.2">tu</tspan><tspan x="19.05" y="11.2">r</tspan><tspan x="21.71" y="11.2">e, beatings, and e</tspan><tspan x="84.02" y="11.2">x</tspan><tspan x="87.97" y="11.2">ecution a</tspan><tspan x="121.25" y="11.2">r</tspan><tspan x="123.92" y="11.2">e ra</tspan><tspan x="137.28" y="11.2">r</tspan><tspan x="139.95" y="11.2">e.</tspan></text><text class="cls-2" transform="translate(42.4 79.45)">Unlimited detention, e<tspan x="78.52" y="0">x</tspan><tspan x="82.47" y="0">ecution, </tspan><tspan x="0" y="11.2">brutality a</tspan><tspan x="36.21" y="11.2">r</tspan><tspan x="38.88" y="11.2">e common.</tspan></text><text class="cls-2" transform="translate(42.4 113.13)">Mu<tspan x="11.57" y="0">r</tspan><tspan x="14.24" y="0">ders, disappearances, and to</tspan><tspan x="117.09" y="0">r</tspan><tspan x="119.89" y="0">tu</tspan><tspan x="127.21" y="0">r</tspan><tspan x="129.88" y="0">e a</tspan><tspan x="140.49" y="0">r</tspan><tspan x="143.16" y="0">e </tspan><tspan x="0" y="11.2">common for politically acti</tspan><tspan x="95.92" y="11.2">v</tspan><tspan x="99.89" y="11.2">e population.</tspan></text><text class="cls-2" transform="translate(42.4 148.8)">Mu<tspan x="11.57" y="0">r</tspan><tspan x="14.24" y="0">ders, disappearances, and to</tspan><tspan x="117.09" y="0">r</tspan><tspan x="119.89" y="0">tu</tspan><tspan x="127.21" y="0">r</tspan><tspan x="129.88" y="0">e </tspan><tspan x="0" y="11.2">a</tspan><tspan x="4.4" y="11.2">r</tspan><tspan x="7.07" y="11.2">e common for the whole population.</tspan></text><rect class="cls-3" x="1.4" y="143.84" width="19" height="9.5"/><rect class="cls-4" x="1" y="143.09" width="19.5" height="11"/><rect class="cls-3" x="1.4" y="110.32" width="19" height="7.5"/><rect class="cls-4" x="1" y="108.57" width="19.5" height="11"/><rect class="cls-3" x="1.4" y="76.8" width="19" height="5.5"/><rect class="cls-4" x="1" y="74.05" width="19.5" height="11"/><rect class="cls-3" x="1.4" y="43.27" width="19" height="3.5"/><rect class="cls-4" x="1" y="39.52" width="19.5" height="11"/><rect class="cls-3" x="1.4" y="9.75" width="19" height="1.5"/><rect class="cls-4" x="1" y="5" width="19.5" height="11"/></svg>