<svg id="Layer_1" data-name="Layer 1" xmlns="http://www.w3.org/2000/svg" viewBox="0 0 197.67 170.33">
<defs>
<style>.cls-1{font-size:16px;}.cls-1,.cls-2{font-family:Roboto; font-weight: 100;}.cls-2{font-size:8px;}.cls-3{fill:#ffe41e;}.cls-4{fill:none;stroke:#000;stroke-miterlimit:10;stroke-width:0.5px;}
</style>
</defs>
<title>key</title>
<text class="cls-1" transform="translate(27.4 15.99)">1</text><text class="cls-1" transform="translate(27.4 49.94)">2</text>
<text class="cls-1" transform="translate(27.4 85.9)">3</text>
<text class="cls-1" transform="translate(27.4 119.85)">4</text>
<text class="cls-1" transform="translate(27.4 154.8)">5</text>
<text class="cls-2" transform="translate(42.4 9.09)">Political imprisonment, torture,<tspan x="0" y="11.2">and political murder is extremely rare.</tspan></text>
<text class="cls-2" transform="translate(42.4 42.77)">Limited political imprisonment. <tspan x="0" y="11.2">Torture, beatings, and execution are rare.</tspan></text>

<text class="cls-2" transform="translate(42.4 79.45)">Unlimited detention, execution,
<tspan x="0" y="11.2">brutality are common.</tspan></text>

<text class="cls-2" transform="translate(42.4 113.13)">Murders, disappearances, and torture are
<tspan x="0" y="11.2">common for politically active population.</tspan></text>

<text class="cls-2" transform="translate(42.4 148.8)">Murders, disappearances, and torture
<tspan x="0" y="11.2">are common for the whole population.</tspan></text>

<rect class="cls-3" x="1.4" y="143.84" width="19" height="9.5"/>
<rect class="cls-4" x="1" y="143.09" width="19.5" height="11"/><rect class="cls-3" x="1.4" y="110.32" width="19" height="7.5"/>
<rect class="cls-4" x="1" y="108.57" width="19.5" height="11"/><rect class="cls-3" x="1.4" y="76.8" width="19" height="5.5"/>
<rect class="cls-4" x="1" y="74.05" width="19.5" height="11"/>
<rect class="cls-3" x="1.4" y="43.27" width="19" height="3.5"/>
<rect class="cls-4" x="1" y="39.52" width="19.5" height="11"/><rect class="cls-3" x="1.4" y="9.75" width="19" height="1.5"/>
<rect class="cls-4" x="1" y="5" width="19.5" height="11"/></svg>
