<?xml version="1.0" standalone="no"?>
<!DOCTYPE svg PUBLIC "-//W3C//DTD SVG 1.1//EN" "http://www.w3.org/Graphics/SVG/1.1/DTD/svg11.dtd" >
<svg>
<metadata>
Created by FontForge 20090622 at Tue Nov 24 02:01:32 2015
 By deploy user
Copyright (c) 2014 Typotheque.com All rights reserved.
</metadata>
<defs>
<font id="Neue-Regular" horiz-adv-x="663" >
  <font-face 
    font-family="Neue"
    font-weight="400"
    font-stretch="normal"
    units-per-em="1000"
    panose-1="2 11 5 4 0 0 0 2 0 3"
    ascent="800"
    descent="-200"
    x-height="556"
    cap-height="800"
    bbox="-115 -217 1581 1042"
    underline-thickness="50"
    underline-position="-50"
    unicode-range="U+0020-U+FB02"
  />
<missing-glyph horiz-adv-x="280" 
 />
    <glyph glyph-name=".notdef" horiz-adv-x="280" 
 />
    <glyph glyph-name=".null" horiz-adv-x="0" 
 />
    <glyph glyph-name="nonmarkingreturn" horiz-adv-x="333" 
 />
    <glyph glyph-name="space" unicode=" " horiz-adv-x="280" 
 />
    <glyph glyph-name="exclam" unicode="!" horiz-adv-x="322" 
d="M112 280l-5 206v314h108v-314l-5 -206h-98zM107 0v155h108v-155h-108z" />
    <glyph glyph-name="quotedbl" unicode="&#x22;" horiz-adv-x="476" 
d="M176 832l-7 -300h-92l-7 300h106zM406 832l-8 -300h-92l-6 300h106z" />
    <glyph glyph-name="numbersign" unicode="#" horiz-adv-x="877" 
d="M518 0l20 179h-252l-20 -179h-100l20 179h-125v82h135l31 279h-166v82h176l20 178h100l-20 -178h252l20 178h100l-20 -178h127v-82h-137l-31 -279h168v-82h-178l-20 -179h-100zM327 540l-31 -279h252l31 279h-252z" />
    <glyph glyph-name="dollar" unicode="$" horiz-adv-x="616" 
d="M273 -92v76q-127 3 -215 45l5 95q98 -47 210 -53v289q-50 17 -81 31t-66.5 39t-53 63t-17.5 88q0 95 60 156.5t158 74.5v83h92v-81q117 -8 188 -50l-19 -87q-65 40 -169 50v-292q37 -12 62 -22.5t54.5 -28.5t47.5 -38.5t30 -52t12 -70.5q0 -89 -54.5 -152.5t-151.5 -81.5
v-81h-92zM154 591q0 -47 31 -75.5t88 -49.5v257q-54 -11 -86.5 -46.5t-32.5 -85.5zM471 209q0 43 -27.5 70.5t-78.5 48.5v-249q50 15 78 49.5t28 80.5z" />
    <glyph glyph-name="percent" unicode="%" horiz-adv-x="1136" 
d="M240 0l560 800h87l-560 -800h-87zM130 576q0 -166 131 -166q63 0 100 39t37 124q0 81 -31 125t-108 44q-61 0 -95 -41.5t-34 -124.5zM41 576q0 112 54 175.5t166 63.5q115 0 170.5 -63.5t55.5 -175.5t-55 -175.5t-171 -63.5q-112 0 -166 63.5t-54 175.5zM737 223
q0 -166 133 -166q62 0 98.5 40t36.5 126q0 166 -135 166q-133 0 -133 -166zM648 223q0 113 54 176t168 63t169.5 -63.5t55.5 -175.5t-55.5 -175.5t-169.5 -63.5q-113 0 -167.5 64t-54.5 175z" />
    <glyph glyph-name="ampersand" unicode="&#x26;" horiz-adv-x="861" 
d="M685 375l68 -50q-31 -120 -104 -204q99 -44 189 -47l-11 -74q-119 0 -247 59q-108 -76 -250 -76q-128 0 -204 55t-76 164q0 137 158 214q-41 88 -41 168q0 96 64.5 164t177.5 68q106 0 168 -54t62 -137q0 -24 -5 -45.5t-18 -40t-24 -32.5t-34.5 -29l-37.5 -24
t-44.5 -21.5l-45 -18.5t-48.5 -18.5t-46 -16.5q89 -130 241 -220q75 78 108 216zM260 584q0 -61 33 -132l52.5 19l53.5 19.5t45.5 19t42.5 22.5t30 24t22.5 30.5t6.5 35.5q0 58 -39.5 87t-99.5 29q-65 0 -106 -41t-41 -113zM345 64q88 0 157 37q-156 96 -252 241
q-102 -51 -102 -130q0 -148 197 -148z" />
    <glyph glyph-name="quotesingle" unicode="'" horiz-adv-x="246" 
d="M176 832l-7 -300h-92l-7 300h106z" />
    <glyph glyph-name="parenleft" unicode="(" horiz-adv-x="351" 
d="M275 866l53 -52q-75 -76 -134.5 -202.5t-59.5 -259.5q0 -140 56.5 -269t141.5 -221l-54 -49q-102 90 -167 237t-65 303q0 154 70 298.5t159 214.5z" />
    <glyph glyph-name="parenright" unicode=")" horiz-adv-x="351" 
d="M23 814l54 52q87 -69 158 -217.5t71 -295.5q0 -150 -66 -300.5t-167 -239.5l-54 49q84 90 141.5 223.5t57.5 266.5q0 126 -61 257t-134 205z" />
    <glyph glyph-name="asterisk" unicode="*" horiz-adv-x="527" 
d="M478 622l-159 -47l105 -138l-54 -40l-106 136l-108 -135l-54 40l107 136l-160 52l21 64l156 -47l-2 157h73l-1 -156l161 42z" />
    <glyph glyph-name="plus" unicode="+" horiz-adv-x="582" 
d="M328 566v-209h209v-71h-209v-212h-71v212h-212v71h212v209h71z" />
    <glyph glyph-name="comma" unicode="," horiz-adv-x="267" 
d="M117 -121h-75l46 283h115z" />
    <glyph glyph-name="hyphen" unicode="-" horiz-adv-x="462" 
d="M387 264h-312v81h312v-81z" />
    <glyph glyph-name="hyphen" unicode="&#xad;" horiz-adv-x="462" 
d="M387 264h-312v81h312v-81z" />
    <glyph glyph-name="period" unicode="." horiz-adv-x="259" 
d="M75 0v154h109v-154h-109z" />
    <glyph glyph-name="slash" unicode="/" horiz-adv-x="515" 
d="M36 0l357 800h86l-357 -800h-86z" />
    <glyph glyph-name="zero" unicode="0" horiz-adv-x="746" 
d="M60 401q0 193 77 304t236 111t236 -111t77 -304q0 -194 -77 -305t-236 -111t-236 111t-77 305zM164 401q0 -155 55 -240t155 -85q73 0 121 44.5t67.5 115.5t19.5 168q0 146 -50.5 233.5t-157.5 87.5q-97 0 -153.5 -83t-56.5 -241z" />
    <glyph glyph-name="one" unicode="1" horiz-adv-x="611" 
d="M600 0h-544v93h227v599l-227 -31v95l307 51h24v-714h213v-93z" />
    <glyph glyph-name="two" unicode="2" horiz-adv-x="653" 
d="M607 0h-548v93q59 42 112 85t109.5 96.5t97 102.5t66.5 102t26 98q0 65 -43.5 107t-139.5 42q-47 0 -111 -20t-116 -48l-11 90q121 68 254 68q135 0 204.5 -61t69.5 -167q0 -216 -390 -493l1 -2h419v-93z" />
    <glyph glyph-name="three" unicode="3" horiz-adv-x="637" 
d="M569 621q0 -74 -48 -127.5t-144 -78.5v-2q94 -11 144 -63.5t50 -134.5q0 -102 -84.5 -166t-224.5 -64q-114 0 -213 48l11 90q101 -49 208 -49q96 1 145 41.5t49 99.5q0 70 -62.5 110t-174.5 34l-13 78q124 24 183.5 62.5t59.5 102.5q0 52 -43.5 85.5t-130.5 33.5
q-91 1 -211 -57l-10 90q103 62 237 62q124 0 198 -54t74 -141z" />
    <glyph glyph-name="four" unicode="4" horiz-adv-x="662" 
d="M638 169h-116v-169h-103v169h-391v87l251 544h105l-247 -538h282v213h103v-213h116v-93z" />
    <glyph glyph-name="five" unicode="5" horiz-adv-x="643" 
d="M483 224q0 164 -400 174l32 402h461l-7 -93h-364l-21 -230q83 -2 152.5 -15.5t128 -40.5t91.5 -74.5t33 -111.5q0 -105 -75 -177.5t-213 -72.5t-252 54l12 89q112 -55 237 -55q81 0 133 39.5t52 111.5z" />
    <glyph glyph-name="six" unicode="6" horiz-adv-x="686" 
d="M555 811l32 -94q-30 3 -61 3q-153 0 -242.5 -80t-112.5 -214q96 65 217 65q108 0 181.5 -62.5t73.5 -179.5q0 -116 -78 -191t-216 -75q-145 0 -218.5 94t-73.5 253q0 221 130.5 352t321.5 131q10 0 25.5 -1t20.5 -1zM367 401q-52 0 -107.5 -20t-95.5 -51
q1 -126 48.5 -193.5t142.5 -67.5q91 0 134.5 49.5t43.5 124.5q0 76 -45.5 117t-120.5 41z" />
    <glyph glyph-name="seven" unicode="7" horiz-adv-x="572" 
d="M250 0h-109l301 702h-427l12 98h533l7 -33z" />
    <glyph glyph-name="eight" unicode="8" horiz-adv-x="705" 
d="M61 202q0 74 39.5 130t102.5 86q-61 28 -94.5 68.5t-33.5 102.5q0 104 86 165.5t205 61.5q114 0 192 -57t78 -153q0 -120 -152 -187q74 -29 115.5 -72t41.5 -114q0 -62 -26.5 -111t-70.5 -78.5t-97 -45t-109 -15.5q-71 0 -132.5 23t-103 74t-41.5 122zM535 221
q0 18 -6 34t-14.5 28t-26 24t-30.5 19.5t-38.5 17t-40 14l-44.5 14.5t-44 14q-54 -22 -93 -66.5t-39 -97.5q0 -74 54.5 -113.5t138.5 -39.5q79 0 131 40.5t52 111.5zM177 603q0 -70 92 -111q32 -15 128 -44q135 56 135 144q0 65 -50 101.5t-127 36.5q-76 0 -127 -34t-51 -93
z" />
    <glyph glyph-name="nine" unicode="9" horiz-adv-x="684" 
d="M128 -11l-33 99q40 -2 61 -2q155 0 244 75.5t111 207.5q-96 -66 -216 -66q-103 0 -177 66.5t-74 173.5q0 122 78.5 197.5t210.5 75.5q147 0 220.5 -95.5t73.5 -260.5q0 -148 -63 -257t-164.5 -162.5t-226.5 -53.5q-21 0 -45 2zM322 391q110 0 196 70q-2 127 -49.5 198.5
t-140.5 71.5q-84 0 -131 -52t-47 -130q0 -70 49 -114t123 -44z" />
    <glyph glyph-name="colon" unicode=":" horiz-adv-x="259" 
d="M75 0v154h109v-154h-109zM75 419v154h109v-154h-109z" />
    <glyph glyph-name="semicolon" unicode=";" horiz-adv-x="292" 
d="M100 418v154h109v-154h-109zM126 -121h-74l46 283h114z" />
    <glyph glyph-name="less" unicode="&#x3c;" horiz-adv-x="540" 
d="M472 577v-90l-345 -177l345 -165v-88l-433 212v82z" />
    <glyph glyph-name="equal" unicode="=" horiz-adv-x="575" 
d="M496 381h-417v70h417v-70zM496 178h-417v70h417v-70z" />
    <glyph glyph-name="greater" unicode="&#x3e;" horiz-adv-x="540" 
d="M68 492v89l433 -225v-83l-433 -212v88l345 165z" />
    <glyph glyph-name="question" unicode="?" horiz-adv-x="614" 
d="M185 0v153h109v-153h-109zM189 268v128q275 43 275 180q0 141 -172 141q-115 0 -230 -63l-23 91q124 71 262 71q121 0 195 -55t74 -174q0 -98 -70.5 -153.5t-205.5 -82.5v-83h-105z" />
    <glyph glyph-name="at" unicode="@" horiz-adv-x="894" 
d="M539 189q-25 -39 -64 -61.5t-79 -22.5q-63 0 -99.5 41t-36.5 118q0 108 57 170t169 62q69 0 139 -27l-26 -231q-3 -24 13 -39t40 -15q51 0 84.5 58t33.5 135q0 119 -77 185t-214 66q-153 0 -246.5 -87.5t-93.5 -241.5q0 -89 27 -154t75.5 -102t108 -54t133.5 -17
q124 0 228 44l-3 -76q-104 -45 -231 -45q-193 0 -306 97t-113 303q0 105 34.5 185.5t94.5 129t134.5 72.5t160.5 24q171 0 270 -84t99 -248q0 -116 -55 -188.5t-145 -72.5q-43 0 -75 18t-37 58zM412 184q63 0 104 65l23 166q-29 11 -60 11q-57 0 -97.5 -33.5t-40.5 -119.5
q0 -49 21 -69t50 -20z" />
    <glyph glyph-name="A" unicode="A" horiz-adv-x="769" 
d="M649 0l-97 255h-337l-99 -255h-105l326 800h98l320 -800h-106zM386 693l-137 -352h271z" />
    <glyph glyph-name="B" unicode="B" horiz-adv-x="704" 
d="M101 0v800h254q128 0 197 -57t69 -153q0 -65 -34.5 -113.5t-99.5 -72.5q134 -47 134 -188q0 -96 -69.5 -156t-195.5 -60h-255zM358 359h-153v-269h153q76 0 115.5 38t39.5 96q0 61 -40 98t-115 37zM358 710h-153v-269h153q75 0 115 38t40 96q0 60 -40.5 97.5t-114.5 37.5
z" />
    <glyph glyph-name="C" unicode="C" horiz-adv-x="723" 
d="M670 118l3 -91q-83 -44 -213 -44q-180 0 -295 115.5t-115 299.5q0 185 115.5 301.5t299.5 116.5q131 0 206 -36l-5 -94q-71 38 -195 38q-139 0 -225 -88.5t-86 -235.5t86.5 -235.5t225.5 -88.5q122 0 198 42z" />
    <glyph glyph-name="D" unicode="D" horiz-adv-x="822" 
d="M102 0v800h261q167 0 285.5 -115.5t118.5 -284.5q0 -165 -119 -282.5t-285 -117.5h-261zM363 708h-157v-616h157q135 0 218 89t83 219t-83.5 219t-217.5 89z" />
    <glyph glyph-name="E" unicode="E" horiz-adv-x="634" 
d="M601 0h-498v800h498v-92h-394v-263h276v-90h-276v-263h394v-92z" />
    <glyph glyph-name="F" unicode="F" horiz-adv-x="601" 
d="M484 352h-277v-352h-104v800h499v-92h-395v-263h277v-93z" />
    <glyph glyph-name="G" unicode="G" horiz-adv-x="794" 
d="M437 338v91h283v-388q-98 -58 -248 -58q-184 0 -304 113t-120 303q0 183 117.5 300t307.5 117q71 0 139.5 -14t107.5 -38l-7 -95q-92 54 -239 54q-144 0 -231 -87.5t-87 -234.5q0 -149 86.5 -237t232.5 -88q69 0 143 18v244h-181z" />
    <glyph glyph-name="H" unicode="H" horiz-adv-x="917" 
d="M710 0v355h-503v-355h-104v800h104v-352h503v352h104v-800h-104z" />
    <glyph glyph-name="I" unicode="I" horiz-adv-x="310" 
d="M104 0v800h104v-800h-104z" />
    <glyph glyph-name="J" unicode="J" horiz-adv-x="447" 
d="M244 333v467h104v-467q0 -157 -81 -245t-254 -88v88q67 0 114 19.5t71.5 55t35 76.5t10.5 94z" />
    <glyph glyph-name="K" unicode="K" horiz-adv-x="675" 
d="M103 0v800h104v-361l337 361h134l-383 -392l383 -408h-141l-330 361v-361h-104z" />
    <glyph glyph-name="L" unicode="L" horiz-adv-x="586" 
d="M103 0v800h104v-708h349v-92h-453z" />
    <glyph glyph-name="M" unicode="M" horiz-adv-x="1089" 
d="M498 0l-291 586v-586h-104v800h104l332 -680l342 680l1 -1v1h104v-800h-104v600l-304 -600h-80z" />
    <glyph glyph-name="N" unicode="N" horiz-adv-x="950" 
d="M740 0l-533 643v-643h-104v800h97l544 -658v658h103v-800h-107z" />
    <glyph glyph-name="O" unicode="O" horiz-adv-x="900" 
d="M52 401q0 185 111 300t288 115q176 0 286.5 -114t110.5 -300q0 -191 -112 -305t-285 -114q-174 0 -286.5 114t-112.5 304zM160 401q0 -147 80 -236t210 -89t210 89.5t80 238.5q0 144 -80.5 231.5t-209.5 87.5q-130 0 -210 -88t-80 -234z" />
    <glyph glyph-name="P" unicode="P" horiz-adv-x="672" 
d="M103 0v800h273q113 0 180 -66t67 -168q0 -104 -72 -172t-175 -68h-169v-326h-104zM354 708h-147v-294h147q77 0 119.5 43t42.5 107q0 63 -43 103.5t-119 40.5z" />
    <glyph glyph-name="Q" unicode="Q" horiz-adv-x="900" 
d="M52 401q0 185 111 300t288 115q176 0 286.5 -114t110.5 -300q0 -159 -82 -270l111 -132h-107l-61 72q-106 -89 -258 -89q-174 0 -286.5 114t-112.5 304zM160 401q0 -147 80 -236t210 -89q116 0 194 73l-193 229h109l135 -162q45 79 45 188q0 144 -80.5 231.5t-209.5 87.5
q-130 0 -210 -88t-80 -234z" />
    <glyph glyph-name="R" unicode="R" horiz-adv-x="689" 
d="M103 0v800h273q113 0 180 -66t67 -168q0 -81 -45 -141t-117 -85l162 -340h-116l-148 326h-152v-326h-104zM354 708h-147v-294h147q77 0 119.5 43t42.5 107q0 63 -43 103.5t-119 40.5z" />
    <glyph glyph-name="S" unicode="S" horiz-adv-x="623" 
d="M469 209q0 38 -22.5 65.5t-59 43.5t-80 30.5t-87.5 31.5t-80.5 40.5t-59 64.5t-22.5 96q0 108 76 171.5t194 63.5q143 0 228 -52l-19 -92q-83 52 -212 52q-72 0 -117.5 -35.5t-45.5 -97.5q0 -34 17.5 -60t46.5 -40.5t66 -29t76 -25t76 -28.5t66 -40t46.5 -59.5
t17.5 -85.5q0 -104 -73.5 -172t-200.5 -68q-139 0 -239 46l5 100q112 -53 237 -53q80 0 123 37t43 96z" />
    <glyph glyph-name="T" unicode="T" horiz-adv-x="680" 
d="M690 708h-299v-708h-103v708h-298v92h700v-92z" />
    <glyph glyph-name="U" unicode="U" horiz-adv-x="910" 
d="M714 800h104v-428q0 -169 -100 -279.5t-263 -110.5q-167 0 -265 104.5t-98 285.5v428h103v-418q0 -142 67 -225t193 -83q124 0 191.5 86.5t67.5 221.5v418z" />
    <glyph glyph-name="V" unicode="V" horiz-adv-x="770" 
d="M117 800l267 -698l277 698h103l-326 -800h-108l-320 800h107z" />
    <glyph glyph-name="W" unicode="W" horiz-adv-x="1204" 
d="M1190 800l-257 -800h-106l-226 666l-225 -666h-106l-255 800h113l200 -685l224 685h102l223 -684l209 684h104z" />
    <glyph glyph-name="X" unicode="X" horiz-adv-x="750" 
d="M733 800l-307 -400l307 -400h-121l-237 330l-235 -330h-122l305 400l-305 400h121l236 -331l237 331h121z" />
    <glyph glyph-name="Y" unicode="Y" horiz-adv-x="724" 
d="M119 800l243 -417l255 417h107l-311 -504v-296h-104v295l-305 505h115z" />
    <glyph glyph-name="Z" unicode="Z" horiz-adv-x="653" 
d="M603 0h-554v79l424 628h-426v93h552v-67l-431 -640h435v-93z" />
    <glyph glyph-name="bracketleft" unicode="[" horiz-adv-x="327" 
d="M290 -155h-200v987h200v-76h-116v-835h116v-76z" />
    <glyph glyph-name="backslash" unicode="\" horiz-adv-x="515" 
d="M122 800l357 -800h-86l-357 800h86z" />
    <glyph glyph-name="bracketright" unicode="]" horiz-adv-x="327" 
d="M237 -155h-200v76h116v835h-116v76h200v-987z" />
    <glyph glyph-name="asciicircum" unicode="^" horiz-adv-x="693" 
d="M653 367h-107l-204 355l-197 -355h-105l244 433h117z" />
    <glyph glyph-name="underscore" unicode="_" horiz-adv-x="464" 
d="M454 -207h-444v79h444v-79z" />
    <glyph glyph-name="grave" unicode="`" horiz-adv-x="546" 
d="M322 633h-96l-112 167h111z" />
    <glyph glyph-name="a" unicode="a" 
d="M581 0h-98v105q-86 -123 -215 -123q-112 0 -165 76.5t-53 201.5q0 65 17 119t52.5 98.5t97.5 70t145 25.5q79 0 219 -42v-531zM287 69q109 0 196 164v231q-68 23 -130 23q-202 0 -202 -219q0 -106 34.5 -152.5t101.5 -46.5z" />
    <glyph glyph-name="b" unicode="b" horiz-adv-x="660" 
d="M80 3v829h98v-387q88 128 217 128q108 0 161.5 -72.5t53.5 -196.5q0 -321 -314 -321q-88 0 -216 20zM376 485q-104 0 -198 -156v-250q74 -11 127 -11q109 0 156.5 57.5t47.5 164.5q0 195 -133 195z" />
    <glyph glyph-name="c" unicode="c" horiz-adv-x="550" 
d="M355 486q-103 0 -154.5 -50.5t-51.5 -157.5q0 -112 56 -160.5t141 -48.5q71 0 154 31v-87q-72 -30 -173 -30q-128 0 -203.5 72t-75.5 216q0 61 16.5 113.5t49.5 96t90.5 68t132.5 24.5q81 0 167 -21l-5 -92q-85 26 -144 26z" />
    <glyph glyph-name="d" unicode="d" 
d="M483 0v107q-82 -124 -211 -124q-110 0 -166.5 73.5t-56.5 193.5q0 67 16 123t50.5 102t95.5 71.5t145 25.5q61 0 127 -17v277h98v-832h-98zM289 68q57 0 107.5 48t86.5 123v224q-66 23 -134 23q-199 0 -199 -229q0 -106 40.5 -147.5t98.5 -41.5z" />
    <glyph glyph-name="e" unicode="e" horiz-adv-x="607" 
d="M550 240h-400q14 -171 198 -171q96 0 186 27l-9 -85q-74 -28 -180 -28q-146 0 -221 71t-75 210q0 145 72.5 227t204.5 82q112 0 173 -54.5t61 -165.5q0 -53 -10 -113zM320 491q-70 0 -114.5 -42.5t-54.5 -126.5h304q4 15 4 34q0 72 -40.5 103.5t-98.5 31.5z" />
    <glyph glyph-name="f" unicode="f" horiz-adv-x="373" 
d="M32 471v85h80v85q0 102 56 153t142 51q50 0 100 -15l1 -94q-43 18 -91 18q-110 0 -110 -117v-81h147l-11 -85h-136v-471h-98v471h-80z" />
    <glyph glyph-name="g" unicode="g" horiz-adv-x="656" 
d="M478 55v73q-83 -104 -210 -104q-104 0 -161 64.5t-57 181.5q0 64 17 117t52.5 96t97.5 66.5t145 23.5q84 0 214 -19v-519q0 -122 -67.5 -187t-200.5 -65q-108 0 -203 25l-9 96q115 -34 209 -34q87 0 130 38t43 147zM287 111q105 0 191 137v228q-65 11 -125 11
q-104 0 -153 -51.5t-49 -157.5q0 -167 136 -167z" />
    <glyph glyph-name="h" unicode="h" horiz-adv-x="664" 
d="M82 0v832h98v-364q112 105 235 105q92 0 132.5 -43t40.5 -142v-388h-98v373q0 61 -27 87t-83 26q-83 0 -200 -106v-380h-98z" />
    <glyph glyph-name="i" unicode="i" horiz-adv-x="313" 
d="M133 0v556h98v-556h-98zM133 670v130h98v-130h-98z" />
    <glyph glyph-name="j" unicode="j" horiz-adv-x="308" 
d="M128 -30v586h98v-595q0 -88 -43.5 -133t-119.5 -45q-45 0 -88 12l-9 85q33 -10 76 -10q86 0 86 100zM127 670v130h99v-130h-99z" />
    <glyph glyph-name="k" unicode="k" horiz-adv-x="588" 
d="M82 0v832h98v-832h-98zM201 288l272 268h121l-277 -263l277 -293h-126z" />
    <glyph glyph-name="l" unicode="l" horiz-adv-x="288" 
d="M99 0v832h98v-832h-98z" />
    <glyph glyph-name="m" unicode="m" horiz-adv-x="1049" 
d="M875 0v373q0 59 -28 86t-86 27q-79 0 -186 -98v-388h-98v373q0 113 -109 113q-86 0 -189 -105v-381h-98v556l98 10v-96q46 46 103 74.5t113 28.5q139 0 170 -109q99 109 233 109q85 0 130 -43t45 -140v-390h-98z" />
    <glyph glyph-name="n" unicode="n" 
d="M81 0v556l98 10v-99q111 106 231 106q92 0 134.5 -44.5t42.5 -143.5v-385h-98v373q0 61 -27 87t-83 26q-83 0 -200 -106v-380h-98z" />
    <glyph glyph-name="o" unicode="o" horiz-adv-x="666" 
d="M49 279q0 135 71.5 214.5t213.5 79.5t212.5 -78.5t70.5 -215.5q0 -134 -71 -215t-213 -81q-147 0 -215.5 78.5t-68.5 217.5zM150 281q0 -103 42.5 -157.5t140.5 -54.5q88 0 135.5 53t47.5 157q0 105 -48 156t-135 51q-95 0 -139 -50t-44 -155z" />
    <glyph glyph-name="p" unicode="p" horiz-adv-x="667" 
d="M81 -200v756l98 10v-124q52 68 104 99.5t117 31.5q109 0 163 -72t54 -192q0 -69 -14 -123.5t-47.5 -102.5t-98.5 -74t-158 -26q-40 0 -120 8v-191h-98zM378 486q-51 0 -106.5 -44.5t-92.5 -104.5v-253q89 -15 137 -15q106 1 153 58.5t47 171.5q0 187 -138 187z" />
    <glyph glyph-name="q" unicode="q" horiz-adv-x="662" 
d="M582 550v-750h-98v299q-90 -117 -214 -117q-110 0 -165.5 72.5t-55.5 194.5q0 66 18 123.5t54.5 103t97.5 71.5t140 26q95 0 223 -23zM293 69q49 0 99 41t92 106v255q-81 15 -132 15q-199 0 -199 -229q0 -188 140 -188z" />
    <glyph glyph-name="r" unicode="r" horiz-adv-x="422" 
d="M81 0v556l98 10v-111q43 57 89 87.5t107 30.5q11 0 31 -2v-97q-21 4 -57 4q-43 0 -81.5 -27.5t-88.5 -80.5v-370h-98z" />
    <glyph glyph-name="s" unicode="s" horiz-adv-x="550" 
d="M405 154q0 39 -35 55.5t-107 27.5q-35 5 -60.5 10.5t-56 18.5t-50 30t-32.5 46t-13 66q0 80 63 122.5t169 42.5q108 0 199 -34l3 -97q-96 44 -196 44q-140 0 -140 -79q0 -37 33.5 -53t100.5 -27q38 -6 63 -11t58 -17.5t53 -29.5t34 -45.5t14 -66.5q0 -76 -63 -125
t-179 -49q-108 0 -201 28l-6 96q130 -38 203 -38q146 0 146 85z" />
    <glyph glyph-name="t" unicode="t" horiz-adv-x="433" 
d="M26 471v85h94v168h98v-168h190l-9 -85h-181v-301q0 -101 100 -101q42 0 87 14l-6 -86q-53 -15 -113 -15q-166 0 -166 173v316h-94z" />
    <glyph glyph-name="u" unicode="u" horiz-adv-x="658" 
d="M576 556v-556h-98v89q-98 -107 -216 -107q-93 0 -139.5 45t-46.5 145v384h98v-373q0 -63 24.5 -88.5t80.5 -25.5q48 0 102 34.5t97 84.5v368h98z" />
    <glyph glyph-name="v" unicode="v" horiz-adv-x="585" 
d="M118 556l173 -465h3l178 465h104l-218 -556h-130l-219 556h109z" />
    <glyph glyph-name="w" unicode="w" horiz-adv-x="947" 
d="M134 556l116 -467h3l174 467h104l166 -464h2l119 464h103l-155 -556h-132l-157 445h-3l-168 -445h-129l-148 556h105z" />
    <glyph glyph-name="x" unicode="x" horiz-adv-x="600" 
d="M578 556l-212 -272l218 -284h-121l-163 224l-171 -224h-116l226 275l-215 281h117l162 -213l164 213h111z" />
    <glyph glyph-name="y" unicode="y" horiz-adv-x="659" 
d="M479 48v76q-93 -102 -210 -102q-95 0 -143.5 43t-48.5 145v346h98v-332q0 -62 26.5 -88.5t82.5 -26.5q51 0 103 35.5t92 87.5v324h98v-526q0 -120 -67.5 -183.5t-203.5 -63.5q-103 0 -208 19l-12 94q130 -26 210 -26q94 0 138.5 38t44.5 140z" />
    <glyph glyph-name="z" unicode="z" horiz-adv-x="560" 
d="M517 0h-464v70l324 399h-338l16 87h449l9 -54l-335 -415h339v-87z" />
    <glyph glyph-name="braceleft" unicode="{" horiz-adv-x="336" 
d="M299 -171h-48q-76 0 -107.5 37t-31.5 134v205q0 42 -22.5 66t-50.5 24v65q26 0 49.5 26t23.5 64v212q1 94 32.5 132t105.5 38h48v-76h-31q-34 0 -53 -19.5t-19 -73.5v-224q0 -47 -20.5 -75.5t-44.5 -36.5q65 -24 65 -108v-221q0 -54 19.5 -73.5t53.5 -19.5h31v-76z" />
    <glyph glyph-name="bar" unicode="|" horiz-adv-x="272" 
d="M94 0v800h84v-800h-84z" />
    <glyph glyph-name="braceright" unicode="}" horiz-adv-x="336" 
d="M85 -171h-48v76h31q34 0 53.5 19.5t20.5 73.5v221q0 84 65 108q-24 8 -44.5 36.5t-20.5 75.5v224q-1 54 -20 73.5t-53 19.5h-31v76h48q74 0 106 -38t33 -132v-212q0 -38 23 -64t49 -26v-65q-27 0 -49.5 -24t-22.5 -66v-205q0 -97 -32 -134t-108 -37z" />
    <glyph glyph-name="asciitilde" unicode="~" horiz-adv-x="686" 
d="M494 295q-52 0 -148 30.5t-148 30.5q-18 0 -37.5 -6t-31 -12t-28 -16t-17.5 -11l-16 93q71 52 135 52q63 0 154.5 -30t134.5 -30q31 0 62 13t50 32l18 -91q-60 -55 -128 -55z" />
    <glyph glyph-name="uni00A0" unicode="&#xa0;" horiz-adv-x="280" 
 />
    <glyph glyph-name="exclamdown" unicode="&#xa1;" horiz-adv-x="293" 
d="M92 -200v318l5 202h98l5 -203v-317h-108zM92 458v142h109v-142h-109z" />
    <glyph glyph-name="cent" unicode="&#xa2;" horiz-adv-x="621" 
d="M318 -7v87q-127 7 -201 80.5t-74 215.5q0 137 70.5 213.5t204.5 87.5v90h73v-89q100 -3 170 -28l-7 -83q-76 22 -163 25v-425q88 6 164 37l2 -81q-64 -33 -166 -41v-89h-73zM139 384q0 -199 179 -216v422q-179 -20 -179 -206z" />
    <glyph glyph-name="sterling" unicode="&#xa3;" horiz-adv-x="758" 
d="M703 0h-652v93h92v232h-92v92h92v77q0 150 91 236t230 86q147 0 238 -85l-21 -90q-93 77 -213 77q-102 0 -161.5 -57t-59.5 -178v-66h297v-92h-297v-232h456v-93z" />
    <glyph glyph-name="yen" unicode="&#xa5;" horiz-adv-x="805" 
d="M347 0v175h-265v80h265v40l-28 46h-237v80h189l-229 379h115l243 -417l255 417h107l-234 -379h193v-80h-243l-27 -45v-41h269v-80h-269v-175h-104z" />
    <glyph glyph-name="brokenbar" unicode="&#xa6;" horiz-adv-x="275" 
d="M96 469v331h83v-331h-83zM96 0v331h83v-331h-83z" />
    <glyph glyph-name="section" unicode="&#xa7;" horiz-adv-x="624" 
d="M63 420q0 60 51 98q-51 43 -51 117q0 85 78 133t190 48q123 0 206 -49l-15 -89q-34 22 -89.5 36.5t-106.5 14.5q-165 0 -165 -95q0 -33 30 -54t74.5 -29.5t96.5 -21t96.5 -26.5t74.5 -46.5t30 -80.5q0 -63 -48 -102q48 -38 48 -108q0 -87 -73.5 -135.5t-187.5 -48.5
q-126 0 -213 41l-2 92q102 -46 218 -46q75 0 117.5 23.5t42.5 70.5q0 31 -30 50t-74.5 26t-96.5 18.5t-96.5 25.5t-74.5 49t-30 88zM161 434q0 -37 29.5 -59t65.5 -29t95.5 -16.5t92.5 -19.5q21 18 21 50q0 31 -29.5 50.5t-68 27l-96 19.5t-93.5 25q-17 -18 -17 -48z" />
    <glyph glyph-name="dieresis" unicode="&#xa8;" horiz-adv-x="575" 
d="M136 685v115h88v-115h-88zM353 685v115h88v-115h-88z" />
    <glyph glyph-name="copyright" unicode="&#xa9;" horiz-adv-x="889" 
d="M588 259l2 -64q-60 -30 -133 -30q-105 0 -167 61.5t-62 169.5q0 107 59 173.5t175 66.5q61 0 130 -24l-6 -68q-63 23 -121 23q-79 0 -119 -43t-40 -121q0 -83 42 -126.5t118 -43.5q58 0 122 26zM55 395q0 176 108.5 290.5t280.5 114.5t281 -114.5t109 -290.5t-109 -290
t-281 -114t-280.5 114t-108.5 290zM117 395q0 -154 88.5 -251t238.5 -97t239 97t89 251q0 155 -89 252t-239 97q-149 0 -238 -97t-89 -252z" />
    <glyph glyph-name="ordfeminine" unicode="&#xaa;" horiz-adv-x="502" 
d="M325 666q0 36 -17.5 48.5t-61.5 12.5q-45 0 -142 -26l1 79q93 24 152 24q82 0 119.5 -28t37.5 -98v-242h-89v61q-21 -34 -57.5 -53t-74.5 -19q-59 0 -90 28t-31 76q0 54 36.5 82.5t106.5 28.5h110v26zM74 316v69h352v-69h-352zM214 492q34 0 66 26.5t45 63.5v6h-87
q-47 0 -64 -10.5t-17 -36.5q0 -49 57 -49z" />
    <glyph glyph-name="guillemotleft" unicode="&#xab;" horiz-adv-x="546" 
d="M268 510l-115 -230l113 -234h-91l-126 234l130 230h89zM497 510l-115 -230l113 -234h-91l-126 234l130 230h89z" />
    <glyph glyph-name="logicalnot" unicode="&#xac;" horiz-adv-x="635" 
d="M79 357h477v-255h-74v184h-403v71z" />
    <glyph glyph-name="registered" unicode="&#xae;" horiz-adv-x="668" 
d="M73 545q0 118 73.5 194.5t187.5 76.5q115 0 188.5 -76.5t73.5 -194.5t-73.5 -194t-188.5 -76t-188 76t-73 194zM122 545q0 -100 57.5 -162.5t154.5 -62.5q98 0 155.5 62.5t57.5 162.5t-57.5 163t-155.5 63q-97 0 -154.5 -63t-57.5 -163zM242 405v293h109q43 0 69.5 -27
t26.5 -64q0 -28 -15.5 -52t-44.5 -33l61 -117h-51l-52 110h-56v-110h-47zM340 660h-51v-110h51q28 0 43 16t15 40q0 23 -15.5 38.5t-42.5 15.5z" />
    <glyph glyph-name="macron" unicode="&#xaf;" horiz-adv-x="562" 
d="M131 678v69h305v-69h-305z" />
    <glyph glyph-name="degree" unicode="&#xb0;" horiz-adv-x="446" 
d="M50 643q0 71 51 122t122 51t122 -51t51 -122t-51 -122t-122 -51t-122 51t-51 122zM125 643q0 -44 28 -73.5t70 -29.5t70 29.5t28 73.5q0 43 -27.5 73t-70.5 30t-70.5 -30t-27.5 -73z" />
    <glyph glyph-name="plusminus" unicode="&#xb1;" horiz-adv-x="546" 
d="M311 553v-161h162v-70h-162v-168h-70v168h-167v70h167v161h70zM473 33h-399v71h399v-71z" />
    <glyph glyph-name="twosuperior" unicode="&#xb2;" horiz-adv-x="464" 
d="M423 500h-385v84l66.5 40t73 51t73.5 62t51 66.5t22 71.5q0 85 -125 85q-77 0 -153 -34l-8 76q74 38 180 38q102 0 152 -41.5t50 -115.5q0 -167 -261 -300v-2h264v-81z" />
    <glyph glyph-name="threesuperior" unicode="&#xb3;" horiz-adv-x="463" 
d="M418 912q0 -101 -124 -139q57 -7 91 -43t34 -87q0 -73 -59.5 -113t-157.5 -40q-99 0 -167 34l5 82q30 -14 79 -23.5t86 -9.5q58 0 91 22.5t33 54.5q0 40 -45 60.5t-120 16.5l-10 65q80 11 125 39t45 68q0 26 -31 43t-82 17q-70 2 -161 -39l-6 75q93 44 180 44
t140.5 -34.5t53.5 -92.5z" />
    <glyph glyph-name="acute" unicode="&#xb4;" horiz-adv-x="546" 
d="M275 633h-96l97 167h111z" />
    <glyph glyph-name="mu" unicode="&#xb5;" horiz-adv-x="655" 
d="M589 556v-556h-98v89q-98 -107 -216 -107q-49 0 -88 14v-196h-98v756h98v-386q2 -55 27 -78t78 -23q48 0 102 34.5t97 84.5v368h98z" />
    <glyph glyph-name="paragraph" unicode="&#xb6;" horiz-adv-x="697" 
d="M426 800l1 -560h-96q-122 0 -208 73t-86 205q0 121 73.5 201.5t222.5 80.5h93zM485 -200v1000h104v-1000h-104z" />
    <glyph glyph-name="periodcentered" unicode="&#xb7;" horiz-adv-x="258" 
d="M75 350v154h108v-154h-108z" />
    <glyph glyph-name="cedilla" unicode="&#xb8;" horiz-adv-x="492" 
d="M361 -88q0 -47 -35.5 -79.5t-98.5 -32.5h-35v64h25q38 0 58.5 15t20.5 41q0 33 -33 53.5t-69 26.5l11 39q59 -9 107.5 -42.5t48.5 -84.5z" />
    <glyph glyph-name="onesuperior" unicode="&#xb9;" horiz-adv-x="422" 
d="M407 500h-367v84h143v356l-143 -33v75l234 60v-458h133v-84z" />
    <glyph glyph-name="ordmasculine" unicode="&#xba;" horiz-adv-x="520" 
d="M261 425q-189 0 -189 189q0 82 45.5 134t143.5 52q189 0 189 -186q0 -189 -189 -189zM83 385h351v-69h-351v69zM158 613q0 -58 24 -87t80 -29q102 0 102 115q0 119 -103 119q-54 0 -78.5 -28t-24.5 -90z" />
    <glyph glyph-name="guillemotright" unicode="&#xbb;" horiz-adv-x="547" 
d="M165 280l-116 230h90l130 -230l-126 -234h-91zM394 280l-116 230h90l130 -230l-126 -234h-91z" />
    <glyph glyph-name="onequarter" unicode="&#xbc;" horiz-adv-x="1139" 
d="M434 272h-367v84h143v356l-143 -33v75l234 60v-458h133v-84zM1101 99h-75v-99h-90v99h-272l-20 68l183 361h99l-180 -343h190v129h90v-129h75v-86zM346 0l379 800h77l-379 -800h-77z" />
    <glyph glyph-name="onehalf" unicode="&#xbd;" horiz-adv-x="1185" 
d="M425 272h-367v84h143v356l-143 -33v75l234 60v-458h133v-84zM1137 0h-385v84l66.5 40t73 51t73.5 62t51 66.5t22 71.5q0 85 -125 85q-77 0 -153 -34l-8 76q74 38 180 38q102 0 152 -41.5t50 -115.5q0 -167 -261 -300v-2h264v-81zM347 0l379 800h77l-379 -800h-77z" />
    <glyph glyph-name="threequarters" unicode="&#xbe;" horiz-adv-x="1121" 
d="M443 684q0 -101 -124 -139q57 -7 91 -43t34 -87q0 -73 -59.5 -113t-157.5 -40q-99 0 -167 34l5 82q30 -14 79 -23.5t86 -9.5q58 0 91 22.5t33 54.5q0 40 -45 60.5t-120 16.5l-10 65q80 11 125 39t45 68q0 26 -31 43t-82 17q-70 2 -161 -39l-6 75q93 44 180 44
t140.5 -34.5t53.5 -92.5zM1083 99h-75v-99h-90v99h-272l-20 68l183 361h99l-180 -343h190v129h90v-129h75v-86zM335 0l379 800h77l-379 -800h-77z" />
    <glyph glyph-name="questiondown" unicode="&#xbf;" horiz-adv-x="604" 
d="M425 599v-153h-109v153h109zM421 331v-128q-275 -43 -275 -180q0 -141 172 -141q115 0 230 63l23 -91q-124 -71 -262 -71q-121 0 -195 55t-74 174q0 98 70.5 153.5t205.5 82.5v83h105z" />
    <glyph glyph-name="Agrave" unicode="&#xc0;" horiz-adv-x="769" 
d="M649 0l-97 255h-337l-99 -255h-105l326 800h98l320 -800h-106zM386 693l-137 -352h271zM441 847h-95l-97 136h105z" />
    <glyph glyph-name="Aacute" unicode="&#xc1;" horiz-adv-x="769" 
d="M649 0l-97 255h-337l-99 -255h-105l326 800h98l320 -800h-106zM386 693l-137 -352h271zM425 847h-95l83 136h105z" />
    <glyph glyph-name="Acircumflex" unicode="&#xc2;" horiz-adv-x="769" 
d="M649 0l-97 255h-337l-99 -255h-105l326 800h98l320 -800h-106zM386 693l-137 -352h271zM319 977h134l107 -131h-105l-69 92l-72 -92h-105z" />
    <glyph glyph-name="Atilde" unicode="&#xc3;" horiz-adv-x="769" 
d="M649 0l-97 255h-337l-99 -255h-105l326 800h98l320 -800h-106zM386 693l-137 -352h271zM325 897q-47 0 -87 -20v64q33 20 84 20q23 0 64.5 -15t62.5 -15q53 0 86 20v-64q-30 -20 -85 -20q-23 0 -64.5 15t-60.5 15z" />
    <glyph glyph-name="Adieresis" unicode="&#xc4;" horiz-adv-x="769" 
d="M649 0l-97 255h-337l-99 -255h-105l326 800h98l320 -800h-106zM386 693l-137 -352h271zM440 846v109h84v-109h-84zM250 846v109h84v-109h-84z" />
    <glyph glyph-name="Aring" unicode="&#xc5;" horiz-adv-x="769" 
d="M649 0l-97 255h-337l-99 -255h-105l326 800h98l320 -800h-106zM386 693l-137 -352h271zM271 927q0 47 33 77.5t80 30.5q48 0 81 -30.5t33 -77.5q0 -46 -33 -76t-81 -30t-80.5 29.5t-32.5 76.5zM323 927q0 -26 17 -43.5t44 -17.5t44 17.5t17 43.5t-17 44t-44 18t-44 -18
t-17 -44z" />
    <glyph glyph-name="AE" unicode="&#xc6;" horiz-adv-x="1058" 
d="M502 0v280h-241l-154 -280h-112l455 800h556v-93h-399v-263h291v-88h-291v-263h404v-93h-509zM311 371h191v345z" />
    <glyph glyph-name="Ccedilla" unicode="&#xc7;" horiz-adv-x="725" 
d="M534 -93q0 -47 -35.5 -79.5t-98.5 -32.5h-35v64h25q38 0 58.5 15t20.5 41q0 48 -72 73q-155 20 -250 131.5t-95 278.5q0 185 115.5 301.5t299.5 116.5q131 0 206 -36l-5 -94q-71 38 -195 38q-139 0 -225 -88.5t-86 -235.5t86.5 -235.5t225.5 -88.5q122 0 198 42l3 -91
q-70 -37 -179 -43q38 -33 38 -77z" />
    <glyph glyph-name="Egrave" unicode="&#xc8;" horiz-adv-x="634" 
d="M601 0h-498v800h498v-92h-394v-263h276v-90h-276v-263h394v-92zM427 847h-95l-97 136h105z" />
    <glyph glyph-name="Eacute" unicode="&#xc9;" horiz-adv-x="634" 
d="M601 0h-498v800h498v-92h-394v-263h276v-90h-276v-263h394v-92zM384 847h-95l83 136h105z" />
    <glyph glyph-name="Ecircumflex" unicode="&#xca;" horiz-adv-x="634" 
d="M601 0h-498v800h498v-92h-394v-263h276v-90h-276v-263h394v-92zM293 977h134l107 -131h-105l-69 92l-72 -92h-105z" />
    <glyph glyph-name="Edieresis" unicode="&#xcb;" horiz-adv-x="634" 
d="M601 0h-498v800h498v-92h-394v-263h276v-90h-276v-263h394v-92zM413 846v109h84v-109h-84zM223 846v109h84v-109h-84z" />
    <glyph glyph-name="Igrave" unicode="&#xcc;" horiz-adv-x="310" 
d="M203 847h-95l-97 136h105zM104 0v800h104v-800h-104z" />
    <glyph glyph-name="Iacute" unicode="&#xcd;" horiz-adv-x="310" 
d="M202 847h-95l83 136h105zM104 0v800h104v-800h-104z" />
    <glyph glyph-name="Icircumflex" unicode="&#xce;" horiz-adv-x="310" 
d="M91 977h134l107 -131h-105l-69 92l-72 -92h-105zM104 0v800h104v-800h-104z" />
    <glyph glyph-name="Idieresis" unicode="&#xcf;" horiz-adv-x="310" 
d="M19 846v109h84v-109h-84zM209 846v109h84v-109h-84zM104 0v800h104v-800h-104z" />
    <glyph glyph-name="Eth" unicode="&#xd0;" horiz-adv-x="824" 
d="M19 369v70h83v361h261q167 0 285.5 -115.5t118.5 -284.5q0 -165 -119 -282.5t-285 -117.5h-261v369h-83zM393 369h-187v-277h157q135 0 218 89t83 219t-83.5 219t-217.5 89h-157v-269h187v-70z" />
    <glyph glyph-name="Ntilde" unicode="&#xd1;" horiz-adv-x="934" 
d="M415 897q-47 0 -87 -20v64q33 20 84 20q23 0 64.5 -15t62.5 -15q53 0 86 20v-64q-30 -20 -85 -20q-22 0 -64 15t-61 15zM740 0l-533 643v-643h-104v800h97l544 -658v658h103v-800h-107z" />
    <glyph glyph-name="Ograve" unicode="&#xd2;" horiz-adv-x="899" 
d="M508 847h-95l-97 136h105zM51 401q0 185 111 300t288 115q176 0 286.5 -114t110.5 -300q0 -191 -112 -305t-285 -114q-174 0 -286.5 114t-112.5 304zM159 401q0 -147 80 -236t210 -89t210 89.5t80 238.5q0 144 -80.5 231.5t-209.5 87.5q-130 0 -210 -88t-80 -234z" />
    <glyph glyph-name="Oacute" unicode="&#xd3;" horiz-adv-x="899" 
d="M466 847h-95l83 136h105zM51 401q0 185 111 300t288 115q176 0 286.5 -114t110.5 -300q0 -191 -112 -305t-285 -114q-174 0 -286.5 114t-112.5 304zM159 401q0 -147 80 -236t210 -89t210 89.5t80 238.5q0 144 -80.5 231.5t-209.5 87.5q-130 0 -210 -88t-80 -234z" />
    <glyph glyph-name="Ocircumflex" unicode="&#xd4;" horiz-adv-x="899" 
d="M383 977h134l107 -131h-105l-69 92l-72 -92h-105zM51 401q0 185 111 300t288 115q176 0 286.5 -114t110.5 -300q0 -191 -112 -305t-285 -114q-174 0 -286.5 114t-112.5 304zM159 401q0 -147 80 -236t210 -89t210 89.5t80 238.5q0 144 -80.5 231.5t-209.5 87.5
q-130 0 -210 -88t-80 -234z" />
    <glyph glyph-name="Otilde" unicode="&#xd5;" horiz-adv-x="899" 
d="M387 897q-47 0 -87 -20v64q33 20 84 20q23 0 64.5 -15t62.5 -15q53 0 86 20v-64q-30 -20 -85 -20q-23 0 -64.5 15t-60.5 15zM51 401q0 185 111 300t288 115q176 0 286.5 -114t110.5 -300q0 -191 -112 -305t-285 -114q-174 0 -286.5 114t-112.5 304zM159 401
q0 -147 80 -236t210 -89t210 89.5t80 238.5q0 144 -80.5 231.5t-209.5 87.5q-130 0 -210 -88t-80 -234z" />
    <glyph glyph-name="Odieresis" unicode="&#xd6;" horiz-adv-x="899" 
d="M310 846v109h84v-109h-84zM500 846v109h84v-109h-84zM51 401q0 185 111 300t288 115q176 0 286.5 -114t110.5 -300q0 -191 -112 -305t-285 -114q-174 0 -286.5 114t-112.5 304zM159 401q0 -147 80 -236t210 -89t210 89.5t80 238.5q0 144 -80.5 231.5t-209.5 87.5
q-130 0 -210 -88t-80 -234z" />
    <glyph glyph-name="multiply" unicode="&#xd7;" horiz-adv-x="591" 
d="M112 542l185 -185l182 183l50 -50l-182 -183l183 -182l-50 -50l-183 182l-185 -184l-50 50l185 184l-185 185z" />
    <glyph glyph-name="Oslash" unicode="&#xd8;" horiz-adv-x="899" 
d="M52 401q0 185 111 300t288 115q145 0 249 -81l71 81h95l-115 -130q97 -114 97 -284q0 -191 -112 -305t-285 -114q-146 0 -250 81l-72 -82h-96l116 132q-97 113 -97 287zM160 401q0 -124 58 -209l415 468q-76 63 -183 63q-130 0 -210 -88t-80 -234zM740 404q0 120 -58 203
l-415 -469q76 -62 183 -62q130 0 210 89.5t80 238.5z" />
    <glyph glyph-name="Ugrave" unicode="&#xd9;" horiz-adv-x="891" 
d="M505 847h-95l-97 136h105zM714 800h104v-428q0 -169 -100 -279.5t-263 -110.5q-167 0 -265 104.5t-98 285.5v428h103v-418q0 -142 67 -225t193 -83q124 0 191.5 86.5t67.5 221.5v418z" />
    <glyph glyph-name="Uacute" unicode="&#xda;" horiz-adv-x="891" 
d="M464 847h-95l83 136h105zM714 800h104v-428q0 -169 -100 -279.5t-263 -110.5q-167 0 -265 104.5t-98 285.5v428h103v-418q0 -142 67 -225t193 -83q124 0 191.5 86.5t67.5 221.5v418z" />
    <glyph glyph-name="Ucircumflex" unicode="&#xdb;" horiz-adv-x="891" 
d="M381 977h134l107 -131h-105l-69 92l-72 -92h-105zM714 800h104v-428q0 -169 -100 -279.5t-263 -110.5q-167 0 -265 104.5t-98 285.5v428h103v-418q0 -142 67 -225t193 -83q124 0 191.5 86.5t67.5 221.5v418z" />
    <glyph glyph-name="Udieresis" unicode="&#xdc;" horiz-adv-x="891" 
d="M307 846v109h84v-109h-84zM497 846v109h84v-109h-84zM714 800h104v-428q0 -169 -100 -279.5t-263 -110.5q-167 0 -265 104.5t-98 285.5v428h103v-418q0 -142 67 -225t193 -83q124 0 191.5 86.5t67.5 221.5v418z" />
    <glyph glyph-name="Yacute" unicode="&#xdd;" horiz-adv-x="724" 
d="M119 800l243 -417l255 417h107l-311 -504v-296h-104v295l-305 505h115zM387 847h-95l83 136h105z" />
    <glyph glyph-name="Thorn" unicode="&#xde;" horiz-adv-x="668" 
d="M103 0v800h104v-154h179q115 0 182 -66t67 -168q0 -105 -72.5 -171.5t-176.5 -66.5h-179v-174h-104zM362 550h-155v-280h155q76 0 120.5 41t44.5 101t-45 99t-120 39z" />
    <glyph glyph-name="germandbls" unicode="&#xdf;" horiz-adv-x="717" 
d="M36 472v84h80v41q0 115 63 182t204 67q116 0 173 -48t57 -122q0 -36 -16.5 -68t-39.5 -54.5l-46 -43.5t-39.5 -44.5t-16.5 -47.5q0 -29 23.5 -53.5t56.5 -44t66 -41.5t56.5 -57.5t23.5 -80.5q0 -67 -51 -113t-150 -46q-78 0 -134 17v88q69 -18 132 -18q48 0 74.5 20
t26.5 54q0 25 -23 47t-55.5 40t-65.5 40t-56 57.5t-23 81.5q0 36 16 68t39 55.5l45.5 45t38.5 45.5t16 49q0 40 -36 63.5t-94 23.5q-88 0 -127.5 -45.5t-39.5 -132.5v-581h-98v472h-80z" />
    <glyph glyph-name="agrave" unicode="&#xe0;" 
d="M581 0h-98v105q-86 -123 -215 -123q-112 0 -165 76.5t-53 201.5q0 65 17 119t52.5 98.5t97.5 70t145 25.5q79 0 219 -42v-531zM287 69q109 0 196 164v231q-68 23 -130 23q-202 0 -202 -219q0 -106 34.5 -152.5t101.5 -46.5zM398 633h-96l-112 167h111z" />
    <glyph glyph-name="aacute" unicode="&#xe1;" 
d="M581 0h-98v105q-86 -123 -215 -123q-112 0 -165 76.5t-53 201.5q0 65 17 119t52.5 98.5t97.5 70t145 25.5q79 0 219 -42v-531zM287 69q109 0 196 164v231q-68 23 -130 23q-202 0 -202 -219q0 -106 34.5 -152.5t101.5 -46.5zM369 633h-96l97 167h111z" />
    <glyph glyph-name="acircumflex" unicode="&#xe2;" 
d="M581 0h-98v105q-86 -123 -215 -123q-112 0 -165 76.5t-53 201.5q0 65 17 119t52.5 98.5t97.5 70t145 25.5q79 0 219 -42v-531zM287 69q109 0 196 164v231q-68 23 -130 23q-202 0 -202 -219q0 -106 34.5 -152.5t101.5 -46.5zM290 800h116l107 -161h-96l-70 115l-71 -115
h-96z" />
    <glyph glyph-name="atilde" unicode="&#xe3;" 
d="M581 0h-98v105q-86 -123 -215 -123q-112 0 -165 76.5t-53 201.5q0 65 17 119t52.5 98.5t97.5 70t145 25.5q79 0 219 -42v-531zM287 69q109 0 196 164v231q-68 23 -130 23q-202 0 -202 -219q0 -106 34.5 -152.5t101.5 -46.5zM273 716q-50 0 -96 -25l-6 70q43 26 95 26
q23 0 66.5 -15.5t64.5 -15.5q51 0 90 24l5 -69q-39 -26 -89 -26q-24 0 -67.5 15.5t-62.5 15.5z" />
    <glyph glyph-name="adieresis" unicode="&#xe4;" 
d="M581 0h-98v105q-86 -123 -215 -123q-112 0 -165 76.5t-53 201.5q0 65 17 119t52.5 98.5t97.5 70t145 25.5q79 0 219 -42v-531zM287 69q109 0 196 164v231q-68 23 -130 23q-202 0 -202 -219q0 -106 34.5 -152.5t101.5 -46.5zM193 685v115h88v-115h-88zM410 685v115h88
v-115h-88z" />
    <glyph glyph-name="aring" unicode="&#xe5;" 
d="M581 0h-98v105q-86 -123 -215 -123q-112 0 -165 76.5t-53 201.5q0 65 17 119t52.5 98.5t97.5 70t145 25.5q79 0 219 -42v-531zM287 69q109 0 196 164v231q-68 23 -130 23q-202 0 -202 -219q0 -106 34.5 -152.5t101.5 -46.5zM223 723q0 48 31 76t82 28t82.5 -28.5
t31.5 -75.5t-31.5 -75t-82.5 -28t-82 28t-31 75zM273 723q0 -26 17 -42.5t46 -16.5t46 16.5t17 42.5t-17 43t-46 17t-46 -17t-17 -43z" />
    <glyph glyph-name="ae" unicode="&#xe6;" horiz-adv-x="986" 
d="M431 372q0 66 -31 89t-106 23q-73 0 -207 -42l7 95q114 36 213 36q82 0 129.5 -17.5t69.5 -62.5q67 80 194 80q238 0 238 -220q0 -53 -10 -113h-399q13 -171 197 -171q91 0 186 27l-9 -85q-87 -29 -189 -29q-196 0 -254 147q-31 -65 -93.5 -105.5t-137.5 -40.5
q-93 0 -142.5 43.5t-49.5 120.5q0 81 61 128t167 47h166v50zM698 491q-69 0 -113 -42.5t-54 -126.5h303q13 88 -28 128.5t-108 40.5zM229 69q76 0 133.5 50.5t68.5 121.5h-159q-135 0 -135 -86q0 -42 26.5 -64t65.5 -22z" />
    <glyph glyph-name="ccedilla" unicode="&#xe7;" horiz-adv-x="551" 
d="M421 -88q0 -47 -35.5 -79.5t-98.5 -32.5h-35v64h25q38 0 58.5 15t20.5 41q0 39 -50 64q-119 6 -188 78t-69 209q0 61 16.5 113.5t49.5 96t90.5 68t132.5 24.5q81 0 167 -21l-5 -92q-85 26 -144 26q-103 0 -154.5 -50.5t-51.5 -157.5q0 -112 56 -160.5t141 -48.5
q71 0 154 31v-87q-43 -19 -116 -27q36 -31 36 -74z" />
    <glyph glyph-name="egrave" unicode="&#xe8;" horiz-adv-x="607" 
d="M550 240h-400q14 -171 198 -171q96 0 186 27l-9 -85q-74 -28 -180 -28q-146 0 -221 71t-75 210q0 145 72.5 227t204.5 82q112 0 173 -54.5t61 -165.5q0 -53 -10 -113zM320 491q-70 0 -114.5 -42.5t-54.5 -126.5h304q4 15 4 34q0 72 -40.5 103.5t-98.5 31.5zM384 633h-96
l-112 167h111z" />
    <glyph glyph-name="eacute" unicode="&#xe9;" horiz-adv-x="607" 
d="M550 240h-400q14 -171 198 -171q96 0 186 27l-9 -85q-74 -28 -180 -28q-146 0 -221 71t-75 210q0 145 72.5 227t204.5 82q112 0 173 -54.5t61 -165.5q0 -53 -10 -113zM320 491q-70 0 -114.5 -42.5t-54.5 -126.5h304q4 15 4 34q0 72 -40.5 103.5t-98.5 31.5zM348 633h-96
l97 167h111z" />
    <glyph glyph-name="ecircumflex" unicode="&#xea;" horiz-adv-x="607" 
d="M550 240h-400q14 -171 198 -171q96 0 186 27l-9 -85q-74 -28 -180 -28q-146 0 -221 71t-75 210q0 145 72.5 227t204.5 82q112 0 173 -54.5t61 -165.5q0 -53 -10 -113zM320 491q-70 0 -114.5 -42.5t-54.5 -126.5h304q4 15 4 34q0 72 -40.5 103.5t-98.5 31.5zM259 800h116
l107 -161h-96l-70 115l-71 -115h-96z" />
    <glyph glyph-name="edieresis" unicode="&#xeb;" horiz-adv-x="607" 
d="M550 240h-400q14 -171 198 -171q96 0 186 27l-9 -85q-74 -28 -180 -28q-146 0 -221 71t-75 210q0 145 72.5 227t204.5 82q112 0 173 -54.5t61 -165.5q0 -53 -10 -113zM320 491q-70 0 -114.5 -42.5t-54.5 -126.5h304q4 15 4 34q0 72 -40.5 103.5t-98.5 31.5zM380 685v115
h88v-115h-88zM163 685v115h88v-115h-88z" />
    <glyph glyph-name="igrave" unicode="&#xec;" horiz-adv-x="315" 
d="M129 0v556h104v-556h-104zM222 633h-96l-112 167h111z" />
    <glyph glyph-name="iacute" unicode="&#xed;" horiz-adv-x="315" 
d="M214 633h-96l97 167h111zM129 0v556h104v-556h-104z" />
    <glyph glyph-name="icircumflex" unicode="&#xee;" horiz-adv-x="315" 
d="M100 800h116l107 -161h-96l-70 115l-71 -115h-96zM129 0v556h104v-556h-104z" />
    <glyph glyph-name="idieresis" unicode="&#xef;" horiz-adv-x="315" 
d="M7 685v115h88v-115h-88zM224 685v115h88v-115h-88zM129 0v556h104v-556h-104z" />
    <glyph glyph-name="eth" unicode="&#xf0;" horiz-adv-x="681" 
d="M277 627l-42 38l56 66q-31 17 -80 38l47 76q48 -20 91 -45l64 76l42 -36l-58 -70q116 -81 168.5 -201t52.5 -289q0 -136 -72.5 -216.5t-211.5 -80.5q-285 0 -285 297q0 293 286 293q56 0 104.5 -25t71.5 -68q-43 135 -172 222zM151 279q0 -101 43 -155.5t141 -54.5
q86 0 133.5 53t47.5 156q0 106 -47.5 157.5t-134.5 51.5q-95 0 -139 -50t-44 -158z" />
    <glyph glyph-name="ntilde" unicode="&#xf1;" 
d="M81 0v556l98 10v-99q111 106 231 106q92 0 134.5 -44.5t42.5 -143.5v-385h-98v373q0 61 -27 87t-83 26q-83 0 -200 -106v-380h-98zM274 716q-50 0 -96 -25l-6 70q43 26 95 26q23 0 66.5 -15.5t64.5 -15.5q51 0 90 24l5 -69q-39 -26 -89 -26q-24 0 -67.5 15.5t-62.5 15.5z
" />
    <glyph glyph-name="ograve" unicode="&#xf2;" horiz-adv-x="666" 
d="M49 279q0 135 71.5 214.5t213.5 79.5t212.5 -78.5t70.5 -215.5q0 -134 -71 -215t-213 -81q-147 0 -215.5 78.5t-68.5 217.5zM150 281q0 -103 42.5 -157.5t140.5 -54.5q88 0 135.5 53t47.5 157q0 105 -48 156t-135 51q-95 0 -139 -50t-44 -155zM376 633h-96l-112 167h111z
" />
    <glyph glyph-name="oacute" unicode="&#xf3;" horiz-adv-x="666" 
d="M360 633h-96l97 167h111zM49 279q0 135 71.5 214.5t213.5 79.5t212.5 -78.5t70.5 -215.5q0 -134 -71 -215t-213 -81q-147 0 -215.5 78.5t-68.5 217.5zM150 281q0 -103 42.5 -157.5t140.5 -54.5q88 0 135.5 53t47.5 157q0 105 -48 156t-135 51q-95 0 -139 -50t-44 -155z
" />
    <glyph glyph-name="ocircumflex" unicode="&#xf4;" horiz-adv-x="666" 
d="M274 795h116l107 -161h-96l-70 115l-71 -115h-96zM49 279q0 135 71.5 214.5t213.5 79.5t212.5 -78.5t70.5 -215.5q0 -134 -71 -215t-213 -81q-147 0 -215.5 78.5t-68.5 217.5zM150 281q0 -103 42.5 -157.5t140.5 -54.5q88 0 135.5 53t47.5 157q0 105 -48 156t-135 51
q-95 0 -139 -50t-44 -155z" />
    <glyph glyph-name="otilde" unicode="&#xf5;" horiz-adv-x="666" 
d="M49 279q0 135 71.5 214.5t213.5 79.5t212.5 -78.5t70.5 -215.5q0 -134 -71 -215t-213 -81q-147 0 -215.5 78.5t-68.5 217.5zM150 281q0 -103 42.5 -157.5t140.5 -54.5q88 0 135.5 53t47.5 157q0 105 -48 156t-135 51q-95 0 -139 -50t-44 -155zM262 716q-50 0 -96 -25
l-6 70q43 26 95 26q23 0 66.5 -15.5t64.5 -15.5q51 0 90 24l5 -69q-39 -26 -89 -26q-24 0 -67.5 15.5t-62.5 15.5z" />
    <glyph glyph-name="odieresis" unicode="&#xf6;" horiz-adv-x="666" 
d="M177 685v115h88v-115h-88zM394 685v115h88v-115h-88zM49 279q0 135 71.5 214.5t213.5 79.5t212.5 -78.5t70.5 -215.5q0 -134 -71 -215t-213 -81q-147 0 -215.5 78.5t-68.5 217.5zM150 281q0 -103 42.5 -157.5t140.5 -54.5q88 0 135.5 53t47.5 157q0 105 -48 156t-135 51
q-95 0 -139 -50t-44 -155z" />
    <glyph glyph-name="divide" unicode="&#xf7;" horiz-adv-x="539" 
d="M469 280h-399v79h399v-79zM222 84v113h100v-113h-100zM222 438v114h100v-114h-100z" />
    <glyph glyph-name="oslash" unicode="&#xf8;" horiz-adv-x="667" 
d="M50 279q0 135 71.5 214.5t213.5 79.5q109 0 178 -50l45 50h82l-83 -91q61 -76 61 -203q0 -134 -71 -215t-213 -81q-113 0 -183 49l-45 -50h-81l83 92q-58 74 -58 205zM517 279q0 77 -28 127l-274 -303q43 -34 119 -34q88 0 135.5 53t47.5 157zM151 281q0 -83 25 -132
l274 304q-45 33 -116 33q-95 0 -139 -50t-44 -155z" />
    <glyph glyph-name="ugrave" unicode="&#xf9;" horiz-adv-x="658" 
d="M576 556v-556h-98v89q-98 -107 -216 -107q-93 0 -139.5 45t-46.5 145v384h98v-373q0 -63 24.5 -88.5t80.5 -25.5q48 0 102 34.5t97 84.5v368h98zM377 633h-96l-112 167h111z" />
    <glyph glyph-name="uacute" unicode="&#xfa;" horiz-adv-x="658" 
d="M576 556v-556h-98v89q-98 -107 -216 -107q-93 0 -139.5 45t-46.5 145v384h98v-373q0 -63 24.5 -88.5t80.5 -25.5q48 0 102 34.5t97 84.5v368h98zM361 633h-96l97 167h111z" />
    <glyph glyph-name="ucircumflex" unicode="&#xfb;" horiz-adv-x="658" 
d="M576 556v-556h-98v89q-98 -107 -216 -107q-93 0 -139.5 45t-46.5 145v384h98v-373q0 -63 24.5 -88.5t80.5 -25.5q48 0 102 34.5t97 84.5v368h98zM264 800h116l107 -161h-96l-70 115l-71 -115h-96z" />
    <glyph glyph-name="udieresis" unicode="&#xfc;" horiz-adv-x="658" 
d="M576 556v-556h-98v89q-98 -107 -216 -107q-93 0 -139.5 45t-46.5 145v384h98v-373q0 -63 24.5 -88.5t80.5 -25.5q48 0 102 34.5t97 84.5v368h98zM393 685v115h88v-115h-88zM176 685v115h88v-115h-88z" />
    <glyph glyph-name="yacute" unicode="&#xfd;" horiz-adv-x="659" 
d="M479 48v76q-93 -102 -210 -102q-95 0 -143.5 43t-48.5 145v346h98v-332q0 -62 26.5 -88.5t82.5 -26.5q51 0 103 35.5t92 87.5v324h98v-526q0 -120 -67.5 -183.5t-203.5 -63.5q-103 0 -208 19l-12 94q130 -26 210 -26q94 0 138.5 38t44.5 140zM363 633h-96l97 167h111z
" />
    <glyph glyph-name="thorn" unicode="&#xfe;" horiz-adv-x="662" 
d="M82 -200v1032h98v-387q88 128 217 128q108 0 161.5 -72.5t53.5 -196.5q0 -321 -314 -321q-43 0 -118 7v-190h-98zM180 329v-250q74 -11 127 -11q109 0 156.5 57.5t47.5 164.5q0 195 -133 195q-104 0 -198 -156z" />
    <glyph glyph-name="ydieresis" unicode="&#xff;" horiz-adv-x="659" 
d="M479 48v76q-93 -102 -210 -102q-95 0 -143.5 43t-48.5 145v346h98v-332q0 -62 26.5 -88.5t82.5 -26.5q51 0 103 35.5t92 87.5v324h98v-526q0 -120 -67.5 -183.5t-203.5 -63.5q-103 0 -208 19l-12 94q130 -26 210 -26q94 0 138.5 38t44.5 140zM396 686v115h88v-115h-88z
M179 686v115h88v-115h-88z" />
    <glyph glyph-name="dotlessi" unicode="&#x131;" horiz-adv-x="315" 
d="M129 0v556h104v-556h-104z" />
    <glyph glyph-name="Lslash" unicode="&#x141;" horiz-adv-x="589" 
d="M106 0v342l-84 -47v72l84 48v385h104v-326l153 87v-73l-153 -87v-309h349v-92h-453z" />
    <glyph glyph-name="lslash" unicode="&#x142;" horiz-adv-x="313" 
d="M111 0v317l-87 -54v75l87 53v441h98v-381l90 55v-73l-90 -56v-377h-98z" />
    <glyph glyph-name="OE" unicode="&#x152;" horiz-adv-x="1308" 
d="M1261 0h-508v118q-35 -52 -119 -93.5t-179 -41.5q-174 0 -289 110.5t-115 306.5q0 186 113 301t291 115q98 0 182 -41t116 -97v122h504v-93h-400v-263h291v-88h-291v-263h404v-93zM158 400q0 -149 84.5 -237.5t212.5 -88.5q126 0 212 93t86 233q0 142 -85.5 233
t-212.5 91t-212 -89t-85 -235z" />
    <glyph glyph-name="oe" unicode="&#x153;" horiz-adv-x="1075" 
d="M49 279q0 131 71 212.5t215 81.5q167 0 228 -117q72 117 231 117q112 0 173 -54.5t61 -165.5q0 -53 -10 -113h-400q14 -171 198 -171q96 0 186 27l-9 -85q-74 -28 -180 -28q-186 0 -256 114q-67 -114 -223 -114q-147 0 -216 78.5t-69 217.5zM151 281q0 -103 42.5 -157.5
t140.5 -54.5q88 0 135.5 53t47.5 158t-48 155.5t-135 50.5q-95 0 -139 -50t-44 -155zM788 491q-70 0 -114.5 -42.5t-54.5 -126.5h304q4 15 4 34q0 72 -40.5 103.5t-98.5 31.5z" />
    <glyph glyph-name="Scaron" unicode="&#x160;" horiz-adv-x="623" 
d="M390 848h-132l-112 131h107l71 -89l69 89h106zM469 209q0 38 -22.5 65.5t-59 43.5t-80 30.5t-87.5 31.5t-80.5 40.5t-59 64.5t-22.5 96q0 108 76 171.5t194 63.5q143 0 228 -52l-19 -92q-83 52 -212 52q-72 0 -117.5 -35.5t-45.5 -97.5q0 -34 17.5 -60t46.5 -40.5t66 -29
t76 -25t76 -28.5t66 -40t46.5 -59.5t17.5 -85.5q0 -104 -73.5 -172t-200.5 -68q-139 0 -239 46l5 100q112 -53 237 -53q80 0 123 37t43 96z" />
    <glyph glyph-name="scaron" unicode="&#x161;" horiz-adv-x="550" 
d="M336 644h-115l-112 156h97l73 -112l69 112h96zM405 154q0 39 -35 55.5t-107 27.5q-35 5 -60.5 10.5t-56 18.5t-50 30t-32.5 46t-13 66q0 80 63 122.5t169 42.5q108 0 199 -34l3 -97q-96 44 -196 44q-140 0 -140 -79q0 -37 33.5 -53t100.5 -27q38 -6 63 -11t58 -17.5
t53 -29.5t34 -45.5t14 -66.5q0 -76 -63 -125t-179 -49q-108 0 -201 28l-6 96q130 -38 203 -38q146 0 146 85z" />
    <glyph glyph-name="Ydieresis" unicode="&#x178;" horiz-adv-x="724" 
d="M119 800l243 -417l255 417h107l-311 -504v-296h-104v295l-305 505h115zM417 846v109h84v-109h-84zM227 846v109h84v-109h-84z" />
    <glyph glyph-name="Zcaron" unicode="&#x17d;" horiz-adv-x="653" 
d="M603 0h-554v79l424 628h-426v93h552v-67l-431 -640h435v-93zM406 848h-132l-112 131h107l71 -89l69 89h106z" />
    <glyph glyph-name="zcaron" unicode="&#x17e;" horiz-adv-x="560" 
d="M517 0h-464v70l324 399h-338l16 87h449l9 -54l-335 -415h339v-87zM339 644h-115l-112 156h97l73 -112l69 112h96z" />
    <glyph glyph-name="florin" unicode="&#x192;" horiz-adv-x="453" 
d="M87 376v86h105v159q0 98 51.5 146.5t137.5 48.5q51 0 104 -16l-6 -85q-33 14 -82 14q-105 0 -105 -113v-154h134v-86h-134v-196q0 -95 -42.5 -145t-122.5 -50q-47 0 -105 17l6 84q39 -14 82 -14q82 0 82 113v191h-105z" />
    <glyph glyph-name="circumflex" unicode="&#x2c6;" horiz-adv-x="626" 
d="M257 800h116l107 -161h-96l-70 115l-71 -115h-96z" />
    <glyph glyph-name="caron" unicode="&#x2c7;" horiz-adv-x="626" 
d="M375 644h-115l-112 156h97l73 -112l69 112h96z" />
    <glyph glyph-name="breve" unicode="&#x2d8;" horiz-adv-x="590" 
d="M370 779h79q0 -65 -40.5 -100.5t-113.5 -35.5q-75 0 -113.5 35t-38.5 101h80q0 -74 72 -74q75 0 75 74z" />
    <glyph glyph-name="dotaccent" unicode="&#x2d9;" horiz-adv-x="474" 
d="M191 670v130h98v-130h-98z" />
    <glyph glyph-name="ring" unicode="&#x2da;" horiz-adv-x="528" 
d="M152 715q0 48 31 76t82 28t82.5 -28.5t31.5 -75.5t-31.5 -75t-82.5 -28t-82 28t-31 75zM202 715q0 -26 17 -42.5t46 -16.5t46 16.5t17 42.5t-17 43t-46 17t-46 -17t-17 -43z" />
    <glyph glyph-name="ogonek" unicode="&#x2db;" horiz-adv-x="492" 
d="M278 -86q0 52 46.5 88.5t103.5 44.5l23 -47q-38 -6 -70 -24t-32 -49q0 -29 23.5 -46t60.5 -17h20v-64h-29q-66 0 -106 32.5t-40 81.5z" />
    <glyph glyph-name="tilde" unicode="&#x2dc;" horiz-adv-x="544" 
d="M217 716q-50 0 -96 -25l-6 70q43 26 95 26q23 0 66.5 -15.5t64.5 -15.5q51 0 90 24l5 -69q-39 -26 -89 -26q-24 0 -67.5 15.5t-62.5 15.5z" />
    <glyph glyph-name="hungarumlaut" unicode="&#x2dd;" horiz-adv-x="638" 
d="M223 648h-85l102 152h95zM407 648h-85l122 152h95z" />
    <glyph glyph-name="pi" unicode="&#x3c0;" horiz-adv-x="717" 
d="M669 469h-83v-347q0 -53 51 -53q17 0 31 3v-85q-33 -5 -59 -5q-121 0 -121 116v371h-275v-469h-99v469h-85v87h640v-87z" />
    <glyph glyph-name="endash" unicode="&#x2013;" horiz-adv-x="592" 
d="M518 271h-444v80h444v-80z" />
    <glyph glyph-name="emdash" unicode="&#x2014;" horiz-adv-x="990" 
d="M916 271h-842v80h842v-80z" />
    <glyph glyph-name="quoteleft" unicode="&#x2018;" horiz-adv-x="262" 
d="M197 838l32 -29q-26 -28 -47.5 -70t-21.5 -69q0 -40 29 -57q0 -23 -17.5 -41.5t-40.5 -18.5q-26 0 -43.5 17.5t-17.5 42.5q0 55 37 122.5t90 102.5z" />
    <glyph glyph-name="quoteright" unicode="&#x2019;" horiz-adv-x="254" 
d="M96 553l-32 29q26 28 47.5 70t21.5 69q0 40 -29 57q0 23 17.5 41.5t40.5 18.5q26 0 43.5 -17.5t17.5 -42.5q0 -55 -37 -122.5t-90 -102.5z" />
    <glyph glyph-name="quotesinglbase" unicode="&#x201a;" horiz-adv-x="264" 
d="M56 -131l-32 29q26 28 47.5 70t21.5 69q0 40 -29 57q0 23 17.5 41.5t40.5 18.5q26 0 43.5 -17.5t17.5 -42.5q0 -55 -37 -122.5t-90 -102.5z" />
    <glyph glyph-name="quotedblleft" unicode="&#x201c;" horiz-adv-x="487" 
d="M197 838l32 -29q-26 -28 -47.5 -70t-21.5 -69q0 -40 29 -57q0 -23 -17.5 -41.5t-40.5 -18.5q-26 0 -43.5 17.5t-17.5 42.5q0 55 37 122.5t90 102.5zM420 838l32 -29q-26 -28 -47.5 -70t-21.5 -69q0 -40 29 -57q0 -23 -17.5 -41.5t-40.5 -18.5q-26 0 -43.5 17.5
t-17.5 42.5q0 55 37 122.5t90 102.5z" />
    <glyph glyph-name="quotedblright" unicode="&#x201d;" horiz-adv-x="478" 
d="M96 553l-32 29q26 28 47.5 70t21.5 69q0 40 -29 57q0 23 17.5 41.5t40.5 18.5q26 0 43.5 -17.5t17.5 -42.5q0 -55 -37 -122.5t-90 -102.5zM301 553l-32 29q26 28 47.5 70t21.5 69q0 40 -29 57q0 23 17.5 41.5t40.5 18.5q26 0 43.5 -17.5t17.5 -42.5q0 -55 -37 -122.5
t-90 -102.5z" />
    <glyph glyph-name="quotedblbase" unicode="&#x201e;" horiz-adv-x="478" 
d="M96 -131l-32 29q26 28 47.5 70t21.5 69q0 40 -29 57q0 23 17.5 41.5t40.5 18.5q26 0 43.5 -17.5t17.5 -42.5q0 -55 -37 -122.5t-90 -102.5zM301 -131l-32 29q26 28 47.5 70t21.5 69q0 40 -29 57q0 23 17.5 41.5t40.5 18.5q26 0 43.5 -17.5t17.5 -42.5q0 -55 -37 -122.5
t-90 -102.5z" />
    <glyph glyph-name="dagger" unicode="&#x2020;" horiz-adv-x="618" 
d="M39 472v88h224l-8 240h104l-9 -240h229v-88h-228l8 -149v-323h-104v323l8 149h-224z" />
    <glyph glyph-name="daggerdbl" unicode="&#x2021;" horiz-adv-x="662" 
d="M61 507v88h224l-7 205h104l-8 -205h227v-88h-228v-202h228v-88h-227l8 -217h-104l7 217h-224v88h226v202h-226z" />
    <glyph glyph-name="bullet" unicode="&#x2022;" horiz-adv-x="407" 
d="M75 284v245h257v-245h-257z" />
    <glyph glyph-name="ellipsis" unicode="&#x2026;" horiz-adv-x="747" 
d="M75 0v154h109v-154h-109zM319 0v154h109v-154h-109zM563 0v154h109v-154h-109z" />
    <glyph glyph-name="perthousand" unicode="&#x2030;" horiz-adv-x="1622" 
d="M751 223q0 -165 133 -165q62 0 98.5 40t36.5 125q0 167 -135 167q-133 0 -133 -167zM42 576q0 112 54 175.5t166 63.5q115 0 170.5 -63.5t55.5 -175.5t-55 -175.5t-171 -63.5q-112 0 -166 63.5t-54 175.5zM662 223q0 113 54 176.5t168 63.5t169.5 -63.5t55.5 -176.5
q0 -112 -55.5 -175.5t-169.5 -63.5q-113 0 -167.5 64t-54.5 175zM1223 224q0 -166 134 -166q62 0 98 40t36 126q0 166 -134 166t-134 -166zM131 576q0 -166 131 -166q63 0 100 39t37 124q0 81 -31 125t-108 44q-61 0 -95 -41.5t-34 -124.5zM1134 224q0 113 54.5 176
t168.5 63t169 -63t55 -176t-55 -176t-169 -63t-168.5 64t-54.5 175zM241 0l560 800h100l-560 -800h-100z" />
    <glyph glyph-name="guilsinglleft" unicode="&#x2039;" horiz-adv-x="317" 
d="M268 510l-115 -230l113 -234h-91l-126 234l130 230h89z" />
    <glyph glyph-name="guilsinglright" unicode="&#x203a;" horiz-adv-x="318" 
d="M165 280l-116 230h90l130 -230l-126 -234h-91z" />
    <glyph glyph-name="fraction" unicode="&#x2044;" horiz-adv-x="226" 
d="M-115 0l379 800h77l-379 -800h-77z" />
    <glyph glyph-name="Euro" unicode="&#x20ac;" horiz-adv-x="778" 
d="M592 447h-359q-2 -32 -2 -47q0 -18 2 -50h359v-79h-342q29 -91 99 -142t172 -51q113 0 195 45l6 -90q-90 -49 -212 -49q-143 0 -241 78t-132 209h-94v79h81q-2 15 -2 48t2 49h-81v79h94q34 132 132.5 211t244.5 79q124 0 210 -45l-9 -92q-82 44 -194 44
q-103 0 -173.5 -52.5t-98.5 -144.5h343v-79z" />
    <glyph glyph-name="trademark" unicode="&#x2122;" horiz-adv-x="1257" 
d="M835 406l-160 252h-3v-398h-79v540h81l189 -305h3l195 305h82v-540h-80v401h-3l-170 -255h-55zM536 724h-199v-464h-80v464h-199v76h478v-76z" />
    <glyph glyph-name="Omega" unicode="&#x2126;" horiz-adv-x="923" 
d="M849 422q0 -97 -55 -191t-137 -132v-1h210v-98h-338v98q87 29 150 120t63 196q0 142 -76.5 227.5t-204.5 85.5t-203.5 -85.5t-75.5 -227.5q0 -110 62 -198t151 -118v-98h-338v98h202v1q-77 35 -131 130t-54 193q0 172 106.5 283t280.5 111q175 0 281.5 -109t106.5 -285z
" />
    <glyph glyph-name="partialdiff" unicode="&#x2202;" horiz-adv-x="657" 
d="M480 476q-30 114 -110 189.5t-181 114.5l44 59q194 -73 280.5 -213.5t86.5 -350.5q0 -134 -71.5 -213t-207.5 -79q-279 0 -279 292q0 288 280 288q113 0 158 -87zM140 274q0 -210 182 -210q85 0 132.5 53.5t47.5 155.5q0 106 -47.5 158.5t-133.5 52.5q-94 0 -137.5 -51.5
t-43.5 -158.5z" />
    <glyph glyph-name="Delta" unicode="&#x2206;" horiz-adv-x="799" 
d="M36 80l313 720h108l305 -720v-80h-726v80zM401 699l-263 -606h514l-249 606h-2z" />
    <glyph glyph-name="product" unicode="&#x220f;" horiz-adv-x="838" 
d="M581 -200v901h-329v-901h-104v901h-105v99h755v-99h-113v-901h-104z" />
    <glyph glyph-name="summation" unicode="&#x2211;" horiz-adv-x="612" 
d="M569 -200h-525v78l236 425l-236 419v78h525v-99h-399l215 -400l-215 -402h399v-99z" />
    <glyph glyph-name="minus" unicode="&#x2212;" horiz-adv-x="623" 
d="M544 284h-465v71h465v-71z" />
    <glyph glyph-name="radical" unicode="&#x221a;" horiz-adv-x="752" 
d="M341 0l-169 475h-149v81h218l158 -462h3l248 738h102l-299 -832h-112z" />
    <glyph glyph-name="infinity" unicode="&#x221e;" horiz-adv-x="901" 
d="M663 120q-50 0 -101 36t-116 103q-46 -49 -71 -72.5t-64 -46t-74 -22.5q-74 0 -119.5 56.5t-45.5 133.5q0 85 49.5 140.5t120.5 55.5q29 0 64 -21.5t59.5 -45t67.5 -69.5q10 -11 15 -16q36 39 55.5 58.5t50.5 45.5t58 37t55 11q72 0 117 -55.5t45 -133.5
q0 -80 -47 -137.5t-119 -57.5zM240 195q35 0 71.5 28t89.5 82l-20 20.5l-20 20.5l-18.5 18.5t-18.5 17.5l-17 14.5t-17.5 13t-16 9t-16 6.5t-14.5 2q-40 0 -66.5 -34.5t-26.5 -82.5q0 -49 26 -82t64 -33zM657 422q-24 0 -54 -18.5t-50 -37.5t-59 -59q39 -39 58 -56.5
t48.5 -35.5t53.5 -18q38 0 66 31t28 85q0 48 -26.5 78.5t-64.5 30.5z" />
    <glyph glyph-name="integral" unicode="&#x222b;" horiz-adv-x="450" 
d="M5 -203v88q94 0 130.5 27t36.5 112v573q0 51 15 88.5t39 59.5t61 34.5t73 16.5t84 4v-91q-50 0 -76 -3t-50 -15.5t-33 -38t-9 -68.5v-573q0 -67 -17.5 -110.5t-55 -65.5t-83 -30t-115.5 -8z" />
    <glyph glyph-name="approxequal" unicode="&#x2248;" horiz-adv-x="685" 
d="M478 346q-52 0 -134.5 30.5t-134.5 30.5q-18 0 -38 -6t-31 -12t-28 -16.5t-18 -10.5l-14 72q71 52 134 52q64 0 142 -30t120 -30q31 0 62 12.5t50 31.5l18 -72q-57 -52 -128 -52zM478 160q-52 0 -134.5 30.5t-134.5 30.5q-18 0 -38 -6t-31 -12t-28 -16.5t-18 -10.5
l-14 72q71 52 134 52q64 0 142 -30t120 -30q31 0 62 12t50 31l18 -72q-56 -51 -128 -51z" />
    <glyph glyph-name="notequal" unicode="&#x2260;" horiz-adv-x="522" 
d="M84 63l63 115h-76v70h114l73 133h-187v70h226l59 107h72l-59 -107h84v-70h-123l-73 -133h196v-70h-234l-63 -115h-72z" />
    <glyph glyph-name="lessequal" unicode="&#x2264;" horiz-adv-x="566" 
d="M495 581v-89l-345 -156l345 -132v-88l-433 179v83zM494 0h-428v79h428v-79z" />
    <glyph glyph-name="greaterequal" unicode="&#x2265;" horiz-adv-x="566" 
d="M500 0h-428v79h428v-79zM71 492v89l433 -203v-83l-433 -179v88l344 132z" />
    <glyph glyph-name="lozenge" unicode="&#x25ca;" horiz-adv-x="688" 
d="M35 402l256 398h115l246 -400l-250 -400h-115zM543 400l-195 321l-204 -319l201 -322z" />
    <glyph glyph-name="apple" unicode="&#xf8ff;" horiz-adv-x="1191" 
d="M455 408v29h-19v-29h19zM515 408v29h-19v-29h19zM695 428v9h-19v-9h19zM755 408v29h-19v-29h19zM875 428v9h-19v-9h19zM106 417h-10v-10h-11v10h-10v11h10v10h11v-10h10v-11zM146 398h-11v10h11v-10zM176 417h-10v-10h-11v10h-10v11h10v10h11v-10h10v-11zM146 437h-11v11
h11v-11zM186 398h-11v10h11v-10zM186 437h-11v11h11v-11zM236 398h-10v-10h-11v10h10v10h11v-10zM266 417h-10v-10h-11v10h-10v11h10v10h11v-10h10v-11zM236 437h-11v10h-10v11h11v-10h10v-11zM286 388h-11v10h-10v10h11v-10h10v-10zM286 447h-10v-10h-11v11h10v10h11v-11z
M346 398h-21v9h-10v30h-10v11h10v10h11v-10h20v-11h-20v-29h20v-10zM406 407h-10v-9h-10v-10h-10v-10h-11v11h10v18h-10v41h11v-40h19v40h11v-41zM466 407h-10v-9h-20v-20h-11v70h31v-10h10v-31zM526 407h-10v-9h-21v9h-10v31h10v10h21v-10h10v-31zM586 398h-21v9h-10v30
h-10v11h10v10h11v-10h20v-11h-20v-29h20v-10zM646 398h-11v39h-19v-39h-11v70h11v-20h20v-10h10v-40zM706 398h-31v9h-10v31h10v10h21v-10h10v-21h-30v-9h30v-10zM766 378h-11v20h-20v9h-10v31h10v10h31v-70zM826 398h-31v9h-10v41h11v-40h19v40h11v-50zM886 398h-31v9h-10
v31h10v10h21v-10h10v-21h-30v-9h30v-10zM926 398h-10v-10h-11v10h10v10h11v-10zM956 417h-10v-10h-11v10h-10v11h10v10h11v-10h10v-11zM926 437h-11v10h-10v11h11v-10h10v-11zM976 388h-11v10h-10v10h11v-10h10v-10zM976 447h-10v-10h-11v11h10v10h11v-11zM1016 398h-11v10
h11v-10zM1046 417h-10v-10h-11v10h-10v11h10v10h11v-10h10v-11zM1016 437h-11v11h11v-11zM1056 398h-11v10h11v-10zM1056 437h-11v11h11v-11zM1116 417h-10v-10h-11v10h-10v11h10v10h11v-10h10v-11z" />
    <glyph glyph-name="fi" unicode="&#xfb01;" horiz-adv-x="669" 
d="M33 471v85h78v85q0 103 51.5 153.5t140.5 50.5q48 0 99 -15l1 -90q-32 14 -79 14q-113 0 -113 -117v-81h376v-556h-98v471h-278v-471h-100v471h-78zM489 669v131h98v-131h-98z" />
    <glyph glyph-name="fl" unicode="&#xfb02;" horiz-adv-x="673" 
d="M484 0v738q-60 16 -117 16q-72 0 -114 -26t-42 -97v-75h181v-85h-181v-471h-100v471h-78v85h78v80q0 210 249 210q75 0 150 -14h72v-832h-98z" />
    </font>
</defs>
</svg>
