<?xml version="1.0" standalone="no"?>
<!DOCTYPE svg PUBLIC "-//W3C//DTD SVG 1.1//EN" "http://www.w3.org/Graphics/SVG/1.1/DTD/svg11.dtd" >
<svg>
<metadata>
Created by FontForge 20090622 at Tue Nov 24 01:53:28 2015
 By deploy user
Copyright (c) 2014 Typotheque.com for The New School
</metadata>
<defs>
<font id="NeueDisplay-Random" horiz-adv-x="364" >
  <font-face 
    font-family="Neue Display Random"
    font-weight="900"
    font-stretch="normal"
    units-per-em="1000"
    panose-1="2 11 10 4 0 0 0 2 0 3"
    ascent="800"
    descent="-200"
    x-height="800"
    cap-height="800"
    bbox="-124 -217 1834 1060"
    underline-thickness="50"
    underline-position="-50"
    unicode-range="U+0020-U+F8FF"
  />
<missing-glyph horiz-adv-x="280" 
 />
    <glyph glyph-name=".notdef" horiz-adv-x="280" 
 />
    <glyph glyph-name=".null" horiz-adv-x="0" 
 />
    <glyph glyph-name="nonmarkingreturn" horiz-adv-x="333" 
 />
    <glyph glyph-name="space" unicode=" " horiz-adv-x="280" 
 />
    <glyph glyph-name="exclam" unicode="!" horiz-adv-x="383" 
d="M97 270l-10 262v268h208v-265l-10 -265h-188zM87 0v171h209v-171h-209z" />
    <glyph glyph-name="quotedbl" unicode="&#x22;" horiz-adv-x="562" 
d="M258 833l-15 -345h-175l-14 345h204zM508 833l-15 -345h-175l-14 345h204z" />
    <glyph glyph-name="numbersign" unicode="#" horiz-adv-x="859" 
d="M469 0l15 156h-159l-15 -156h-190l15 156h-80v150h95l19 189h-114v150h129l16 155h190l-16 -155h159l16 155h190l-16 -155h81v-150h-96l-19 -189h115v-150h-130l-15 -156h-190zM359 495l-19 -189h159l19 189h-159z" />
    <glyph glyph-name="dollar" unicode="$" horiz-adv-x="703" 
d="M292 -100v85q-141 7 -231 50l8 183q108 -52 223 -61v160q-42 12 -71 22.5t-65 30.5t-58 43.5t-37.5 60t-15.5 82.5q0 108 68 174t179 82v81h130v-81q139 -13 219 -58l-38 -170q-69 40 -181 56v-163q42 -12 70.5 -21.5t64 -28.5t57 -40.5t36.5 -56t15 -77.5
q0 -96 -64 -169t-179 -93v-91h-130zM243 579q0 -37 49 -61v119q-49 -17 -49 -58zM466 223q0 32 -44 53v-109q44 17 44 56z" />
    <glyph glyph-name="percent" unicode="%" horiz-adv-x="1137" 
d="M201 0l562 800h160l-562 -800h-160zM203 579q0 -52 14.5 -76t49.5 -24q64 0 64 100q0 53 -13.5 76.5t-50.5 23.5q-64 0 -64 -100zM36 579q0 111 57 173.5t174 62.5t174 -62.5t57 -173.5t-57 -173.5t-174 -62.5t-174 62.5t-57 173.5zM806 221q0 -52 14.5 -76t49.5 -24
q64 0 64 100q0 53 -13.5 76.5t-50.5 23.5q-64 0 -64 -100zM639 221q0 111 57 173.5t174 62.5t174 -62.5t57 -173.5t-57 -173.5t-174 -62.5t-174 62.5t-57 173.5z" />
    <glyph glyph-name="ampersand" unicode="&#x26;" horiz-adv-x="893" 
d="M700 430l117 -98q-25 -90 -86 -162q78 -30 141 -34l-24 -136q-117 0 -249 59q-129 -75 -276 -75q-132 0 -209.5 63.5t-77.5 168.5q0 131 144 207q-47 86 -47 160q0 95 72.5 163.5t194.5 68.5q113 0 181 -58.5t68 -148.5q0 -39 -15 -71.5t-35.5 -54t-57.5 -43t-63 -32.5
t-70 -28q76 -79 185 -142q79 77 107 193zM300 584q0 -47 28 -100q41 15 63 24.5t48 24t37.5 31t11.5 36.5q0 31 -26.5 50t-64.5 19q-41 0 -69 -22t-28 -63zM355 131q42 0 90 15q-109 75 -185 164q-43 -32 -43 -74q0 -51 35 -78t103 -27z" />
    <glyph glyph-name="quotesingle" unicode="'" horiz-adv-x="312" 
d="M258 833l-15 -345h-175l-14 345h204z" />
    <glyph glyph-name="parenleft" unicode="(" horiz-adv-x="392" 
d="M268 887l102 -95q-80 -89 -124.5 -200.5t-44.5 -227.5q0 -124 48.5 -255.5t124.5 -213.5l-100 -88q-105 78 -171.5 236t-66.5 322q0 160 65 303t167 219z" />
    <glyph glyph-name="parenright" unicode=")" horiz-adv-x="392" 
d="M22 792l102 95q102 -76 167 -219t65 -303q0 -164 -66.5 -322t-171.5 -236l-100 88q76 82 124.5 213.5t48.5 255.5q0 116 -44.5 227.5t-124.5 200.5z" />
    <glyph glyph-name="asterisk" unicode="*" horiz-adv-x="524" 
d="M485 596l-115 -42l77 -101l-102 -74l-81 97l-83 -96l-102 74l81 99l-121 43l39 120l116 -34l-5 118h138l-3 -115l123 31z" />
    <glyph glyph-name="plus" unicode="+" horiz-adv-x="608" 
d="M369 577v-202h202v-130h-202v-202h-130v202h-202v130h202v202h130z" />
    <glyph glyph-name="comma" unicode="," horiz-adv-x="318" 
d="M165 -140h-140l50 329h199z" />
    <glyph glyph-name="hyphen" unicode="-" horiz-adv-x="449" 
d="M387 324h-325v150h325v-150z" />
    <glyph glyph-name="hyphen" unicode="&#xad;" horiz-adv-x="449" 
d="M387 324h-325v150h325v-150z" />
    <glyph glyph-name="period" unicode="." horiz-adv-x="333" 
d="M62 0v199h209v-199h-209z" />
    <glyph glyph-name="slash" unicode="/" horiz-adv-x="534" 
d="M28 0l318 800h160l-318 -800h-160z" />
    <glyph glyph-name="zero" unicode="0" horiz-adv-x="752" 
d="M46 400q0 190 82 303t248 113t248 -113t82 -303t-82 -303t-248 -113t-248 113t-82 303zM246 401q0 -243 131 -243q129 0 129 250q0 234 -127 234q-133 0 -133 -241z" />
    <glyph glyph-name="one" unicode="1" horiz-adv-x="616" 
d="M599 0h-544v175h177v420l-177 -25v180l344 66h33v-641h167v-175z" />
    <glyph glyph-name="two" unicode="2" horiz-adv-x="671" 
d="M626 0h-563v175q71 54 123.5 98.5t106 96.5t82 99.5t28.5 86.5q0 41 -34 66t-93 25q-103 0 -209 -50l-34 150q122 69 261 69q143 0 228.5 -55.5t85.5 -165.5q0 -59 -26 -116t-78.5 -112.5t-98.5 -94.5t-118 -94v-3h339v-175z" />
    <glyph glyph-name="three" unicode="3" horiz-adv-x="656" 
d="M605 602q0 -61 -35.5 -112.5t-99.5 -78.5v-2q66 -29 99.5 -68t33.5 -106q0 -78 -49 -136t-126.5 -86.5t-171.5 -28.5q-117 0 -216 48l18 171q40 -20 103.5 -36t108.5 -15q55 2 89 23t34 57q0 45 -53 71t-143 21l-23 126q109 21 160 47t51 67q0 36 -31.5 56.5t-81.5 21.5
q-88 1 -197 -52l-22 155q111 71 255 71q79 0 145 -23.5t109 -73t43 -117.5z" />
    <glyph glyph-name="four" unicode="4" horiz-adv-x="689" 
d="M662 133h-69v-133h-198v133h-366v175l210 492h219l-219 -492h156v166h198v-166h69v-175z" />
    <glyph glyph-name="five" unicode="5" horiz-adv-x="655" 
d="M412 228q0 54 -84.5 79t-265.5 35l39 458h497l-15 -175h-314l-14 -135q359 -17 359 -239q0 -114 -88.5 -190t-248.5 -76q-125 0 -236 53l10 166q108 -54 220 -54q141 0 141 78z" />
    <glyph glyph-name="six" unicode="6" horiz-adv-x="722" 
d="M574 814l62 -190q-39 3 -74 3q-229 0 -294 -160q85 44 172 44q108 0 180.5 -64.5t72.5 -176.5q0 -128 -94 -207t-238 -79q-152 0 -238 92t-86 250q0 144 71 258t182.5 173t237.5 59q12 0 28 -1t18 -1zM358 356q-55 0 -114 -22q0 -86 33 -138t95 -52q51 0 81 34t30 79
q0 48 -35 73.5t-90 25.5z" />
    <glyph glyph-name="seven" unicode="7" horiz-adv-x="598" 
d="M321 0h-205l242 612h-342l23 187h547l10 -47z" />
    <glyph glyph-name="eight" unicode="8" horiz-adv-x="714" 
d="M49 204q0 121 126 176q-118 60 -118 176q0 119 90 189.5t223 70.5q129 0 209 -60t80 -152q0 -108 -123 -167q128 -59 128 -187q0 -66 -29.5 -118.5t-78.5 -84t-105.5 -47.5t-116.5 -16q-73 0 -136 22t-106 73.5t-43 124.5zM469 226q0 10 -3 19t-10 17t-13.5 14
t-19.5 12.5t-22 10.5t-26.5 10.5t-27.5 9.5l-31 9.5l-31 9.5q-26 -19 -43 -46t-17 -52q0 -47 35.5 -75t101.5 -28q55 0 81 25.5t26 63.5zM243 585q0 -22 12 -38t36 -28t49.5 -20t61.5 -18l12 -3q54 38 54 98q0 38 -30.5 64t-85.5 26q-52 0 -80.5 -23t-28.5 -58z" />
    <glyph glyph-name="nine" unicode="9" horiz-adv-x="723" 
d="M148 -13l-62 190q39 -3 74 -3q227 0 294 160q-83 -44 -172 -44q-108 0 -180.5 64.5t-72.5 176.5q0 128 94 207t238 79q152 0 238 -92t86 -250q0 -144 -71 -258t-182.5 -173t-237.5 -59q-12 0 -28 1t-18 1zM364 445q59 0 114 22q-1 86 -34 138t-94 52q-51 0 -81 -34
t-30 -79q0 -48 35 -73.5t90 -25.5z" />
    <glyph glyph-name="colon" unicode=":" horiz-adv-x="355" 
d="M73 0v199h209v-199h-209zM73 387v199h209v-199h-209z" />
    <glyph glyph-name="semicolon" unicode=";" horiz-adv-x="351" 
d="M79 387v199h209v-199h-209zM173 -140h-140l50 329h199z" />
    <glyph glyph-name="less" unicode="&#x3c;" horiz-adv-x="525" 
d="M469 581v-165l-265 -123l265 -118v-161l-433 206v147z" />
    <glyph glyph-name="equal" unicode="=" horiz-adv-x="567" 
d="M503 365h-439v130h439v-130zM503 115h-439v130h439v-130z" />
    <glyph glyph-name="greater" unicode="&#x3e;" horiz-adv-x="525" 
d="M56 426v165l433 -214v-147l-433 -206v161l265 118z" />
    <glyph glyph-name="question" unicode="?" horiz-adv-x="653" 
d="M152 0v171h209v-171h-209zM161 242v170q133 21 192 54.5t59 82.5q0 37 -30 58t-85 21q-109 0 -218 -56l-44 173q135 71 282 71q135 0 217 -60.5t82 -182.5q0 -47 -14 -83t-34.5 -59t-57 -42t-68 -29t-81.5 -23v-95h-200z" />
    <glyph glyph-name="at" unicode="@" horiz-adv-x="875" 
d="M496 172q-35 -68 -104 -68q-53 0 -94.5 38.5t-41.5 122.5q0 91 54 153t157 62q80 0 150 -29l-16 -181q-1 -17 7 -24.5t18 -7.5q26 0 44 39.5t18 92.5q0 95 -60 139t-152 44q-54 0 -101 -14.5t-87.5 -45.5t-64.5 -87t-24 -130q0 -248 275 -248q101 0 209 28l-5 -137
q-96 -34 -214 -34q-415 0 -415 383q0 93 25.5 167.5t67 122.5t98.5 80t117 45t125 13q159 0 257 -82.5t98 -250.5q0 -131 -60 -194t-160 -63q-95 0 -121 66zM426 251q7 0 19 6l16 96h-4q-23 0 -37 -21t-14 -49q0 -32 20 -32z" />
    <glyph glyph-name="A" unicode="A" horiz-adv-x="822" 
d="M603 0l-50 153h-293l-55 -153h-213l321 800h206l301 -800h-217zM415 583l-97 -267h183z" />
    <glyph glyph-name="B" unicode="B" horiz-adv-x="765" 
d="M80 0v800h337q310 0 310 -219q0 -121 -96 -172q96 -51 96 -175q0 -107 -75 -170.5t-234 -63.5h-338zM424 333h-144v-163h144q50 0 72.5 25t22.5 57q0 31 -22.5 56t-72.5 25zM424 630h-144v-163h144q49 0 72 24.5t23 55.5q0 30 -23 56.5t-72 26.5z" />
    <glyph glyph-name="C" unicode="C" horiz-adv-x="683" 
d="M660 196v-185q-72 -27 -208 -27q-120 0 -217 58t-148.5 153t-51.5 206q0 174 122 294t313 120q135 0 203 -23l-19 -182q-79 26 -178 26q-111 0 -173 -62t-62 -173q0 -110 66 -172t174 -62q62 0 94.5 6t84.5 23z" />
    <glyph glyph-name="D" unicode="D" horiz-adv-x="825" 
d="M80 0v800h303q169 0 288.5 -113.5t119.5 -286.5q0 -165 -120.5 -282.5t-287.5 -117.5h-303zM383 620h-103v-440h103q100 0 155.5 66t55.5 154q0 89 -56.5 154.5t-154.5 65.5z" />
    <glyph glyph-name="E" unicode="E" horiz-adv-x="692" 
d="M649 0h-569v800h569v-180h-369v-135h299v-170h-299v-135h369v-180z" />
    <glyph glyph-name="F" unicode="F" horiz-adv-x="677" 
d="M609 305h-329v-305h-200v800h599v-180h-399v-135h329v-180z" />
    <glyph glyph-name="G" unicode="G" horiz-adv-x="816" 
d="M439 285v170h319v-409q-101 -62 -279 -62q-125 0 -225 45t-162 140.5t-62 227.5q0 182 122.5 300.5t327.5 118.5q86 0 162.5 -16.5t114.5 -40.5l-14 -179q-96 58 -258 58q-119 0 -184 -59t-65 -176q0 -245 252 -245q36 0 74 3v124h-123z" />
    <glyph glyph-name="H" unicode="H" horiz-adv-x="968" 
d="M684 0v305h-400v-305h-200v800h200v-305h400v305h200v-800h-200z" />
    <glyph glyph-name="I" unicode="I" 
d="M80 0v800h200v-800h-200z" />
    <glyph glyph-name="J" unicode="J" horiz-adv-x="499" 
d="M254 350v450h200v-450q0 -180 -99 -265t-325 -85h-10v188h10q131 0 177.5 39.5t46.5 122.5z" />
    <glyph glyph-name="K" unicode="K" horiz-adv-x="791" 
d="M783 800l-314 -381l313 -419h-252l-221 318h-29v-318h-200v800h200v-319h28l237 319h238z" />
    <glyph glyph-name="L" unicode="L" horiz-adv-x="657" 
d="M80 0v800h200v-610h359v-190h-559z" />
    <glyph glyph-name="M" unicode="M" horiz-adv-x="1156" 
d="M459 0l-175 430v-430h-200v800h230l262 -627l276 627h220v-800h-200v445l-207 -445h-206z" />
    <glyph glyph-name="N" unicode="N" horiz-adv-x="968" 
d="M674 0l-380 463h-10v-463h-200v800h186l404 -495h10v495h200v-800h-210z" />
    <glyph glyph-name="O" unicode="O" horiz-adv-x="890" 
d="M35 403q0 193 113.5 303t298.5 110q182 0 295 -107.5t113 -304.5q0 -102 -33 -183.5t-89.5 -132.5t-129.5 -77.5t-157 -26.5t-158 27t-130.5 78t-89.5 132t-33 182zM241 402q0 -122 56.5 -186t146.5 -64q92 0 148.5 64.5t56.5 191.5q0 116 -56.5 178t-147.5 62
t-147.5 -62.5t-56.5 -183.5z" />
    <glyph glyph-name="P" unicode="P" horiz-adv-x="753" 
d="M80 0v800h379q128 0 198 -78.5t70 -194.5q0 -126 -80.5 -204t-187.5 -78h-179v-245h-200zM410 620h-130v-205h130q54 0 82 32t28 75q0 37 -28 67.5t-82 30.5z" />
    <glyph glyph-name="Q" unicode="Q" horiz-adv-x="889" 
d="M35 403q0 193 113.5 303t298.5 110q182 0 295 -107.5t113 -304.5q0 -177 -97 -289l93 -115h-197l-19 23q-85 -39 -189 -39q-84 0 -158 27t-130.5 78t-89.5 132t-33 182zM241 402q0 -122 56.5 -186t146.5 -64q43 0 76 13l-142 178h198l52 -65q21 57 21 130
q0 116 -56.5 178t-147.5 62t-147.5 -62.5t-56.5 -183.5z" />
    <glyph glyph-name="R" unicode="R" horiz-adv-x="785" 
d="M81 0v800h379q128 0 198 -78.5t70 -194.5q0 -85 -38.5 -149.5t-101.5 -99.5l140 -278h-225l-111 245h-111v-245h-200zM411 620h-130v-205h130q54 0 82 32t28 75q0 37 -28 67.5t-82 30.5z" />
    <glyph glyph-name="S" unicode="S" horiz-adv-x="678" 
d="M448 223q0 28 -30.5 47t-75.5 29.5t-98.5 29t-98.5 42t-75.5 71.5t-30.5 114q0 123 87 191.5t222 68.5q75 0 151 -17.5t124 -44.5l-38 -170q-48 29 -115.5 45t-128.5 16q-47 0 -75.5 -17.5t-28.5 -48.5q0 -30 30.5 -51t76 -31.5t98.5 -28.5t98.5 -39.5t76 -67
t30.5 -108.5q0 -115 -81.5 -192t-233.5 -77q-168 0 -277 51l8 183q131 -63 275 -63q110 0 110 68z" />
    <glyph glyph-name="T" unicode="T" horiz-adv-x="710" 
d="M705 620h-250v-620h-200v620h-250v180h700v-180z" />
    <glyph glyph-name="U" unicode="U" horiz-adv-x="904" 
d="M632 800h200v-416q0 -168 -108 -284t-272 -116q-172 0 -276 102.5t-104 297.5v416h200v-416q0 -212 180 -212q84 0 132 60.5t48 151.5v416z" />
    <glyph glyph-name="V" unicode="V" horiz-adv-x="808" 
d="M818 800l-321 -800h-206l-301 800h220l188 -566l212 566h208z" />
    <glyph glyph-name="W" unicode="W" horiz-adv-x="1249" 
d="M238 0l-231 800h213l137 -555l166 555h200l158 -564l153 564h208l-250 -800h-212l-166 528l-166 -528h-210z" />
    <glyph glyph-name="X" unicode="X" horiz-adv-x="788" 
d="M809 800l-306 -401l306 -399h-247l-167 243l-167 -243h-248l306 400l-306 400h248l166 -244l168 244h247z" />
    <glyph glyph-name="Y" unicode="Y" horiz-adv-x="788" 
d="M284 0v266l-304 534h227l179 -350h7l207 350h208l-324 -533v-267h-200z" />
    <glyph glyph-name="Z" unicode="Z" horiz-adv-x="713" 
d="M670 0h-629v159l353 461h-353v180h626v-120l-372 -500h375v-180z" />
    <glyph glyph-name="bracketleft" unicode="[" horiz-adv-x="353" 
d="M304 -200h-228v1033h228v-139h-75v-755h75v-139z" />
    <glyph glyph-name="backslash" unicode="\" horiz-adv-x="534" 
d="M188 800l318 -800h-160l-318 800h160z" />
    <glyph glyph-name="bracketright" unicode="]" horiz-adv-x="353" 
d="M277 -200h-228v139h75v755h-75v139h228v-1033z" />
    <glyph glyph-name="asciicircum" unicode="^" horiz-adv-x="727" 
d="M687 367h-205l-123 265l-118 -265h-201l206 433h227z" />
    <glyph glyph-name="underscore" unicode="_" horiz-adv-x="500" 
d="M500 -217h-500v150h500v-150z" />
    <glyph glyph-name="grave" unicode="`" horiz-adv-x="403" 
d="M353 607h-180l-123 193h213z" />
    <glyph glyph-name="a" unicode="a" horiz-adv-x="822" 
d="M603 0l-50 153h-293l-55 -153h-213l321 800h206l301 -800h-217zM415 583l-97 -267h183z" />
    <glyph glyph-name="b" unicode="b" horiz-adv-x="765" 
d="M80 0v800h337q310 0 310 -219q0 -121 -96 -172q96 -51 96 -175q0 -107 -75 -170.5t-234 -63.5h-338zM424 333h-144v-163h144q50 0 72.5 25t22.5 57q0 31 -22.5 56t-72.5 25zM424 630h-144v-163h144q49 0 72 24.5t23 55.5q0 30 -23 56.5t-72 26.5z" />
    <glyph glyph-name="c" unicode="c" horiz-adv-x="683" 
d="M660 196v-185q-72 -27 -208 -27q-120 0 -217 58t-148.5 153t-51.5 206q0 174 122 294t313 120q135 0 203 -23l-19 -182q-79 26 -178 26q-111 0 -173 -62t-62 -173q0 -110 66 -172t174 -62q62 0 94.5 6t84.5 23z" />
    <glyph glyph-name="d" unicode="d" horiz-adv-x="825" 
d="M80 0v800h303q169 0 288.5 -113.5t119.5 -286.5q0 -165 -120.5 -282.5t-287.5 -117.5h-303zM383 620h-103v-440h103q100 0 155.5 66t55.5 154q0 89 -56.5 154.5t-154.5 65.5z" />
    <glyph glyph-name="e" unicode="e" horiz-adv-x="692" 
d="M649 0h-569v800h569v-180h-369v-135h299v-170h-299v-135h369v-180z" />
    <glyph glyph-name="f" unicode="f" horiz-adv-x="677" 
d="M609 305h-329v-305h-200v800h599v-180h-399v-135h329v-180z" />
    <glyph glyph-name="g" unicode="g" horiz-adv-x="816" 
d="M439 285v170h319v-409q-101 -62 -279 -62q-125 0 -225 45t-162 140.5t-62 227.5q0 182 122.5 300.5t327.5 118.5q86 0 162.5 -16.5t114.5 -40.5l-14 -179q-96 58 -258 58q-119 0 -184 -59t-65 -176q0 -245 252 -245q36 0 74 3v124h-123z" />
    <glyph glyph-name="h" unicode="h" horiz-adv-x="968" 
d="M684 0v305h-400v-305h-200v800h200v-305h400v305h200v-800h-200z" />
    <glyph glyph-name="i" unicode="i" 
d="M80 0v800h200v-800h-200z" />
    <glyph glyph-name="j" unicode="j" horiz-adv-x="499" 
d="M254 350v450h200v-450q0 -180 -99 -265t-325 -85h-10v188h10q131 0 177.5 39.5t46.5 122.5z" />
    <glyph glyph-name="k" unicode="k" horiz-adv-x="791" 
d="M783 800l-314 -381l313 -419h-252l-221 318h-29v-318h-200v800h200v-319h28l237 319h238z" />
    <glyph glyph-name="l" unicode="l" horiz-adv-x="657" 
d="M80 0v800h200v-610h359v-190h-559z" />
    <glyph glyph-name="m" unicode="m" horiz-adv-x="1156" 
d="M459 0l-175 430v-430h-200v800h230l262 -627l276 627h220v-800h-200v445l-207 -445h-206z" />
    <glyph glyph-name="n" unicode="n" horiz-adv-x="968" 
d="M674 0l-380 463h-10v-463h-200v800h186l404 -495h10v495h200v-800h-210z" />
    <glyph glyph-name="o" unicode="o" horiz-adv-x="890" 
d="M35 403q0 193 113.5 303t298.5 110q182 0 295 -107.5t113 -304.5q0 -102 -33 -183.5t-89.5 -132.5t-129.5 -77.5t-157 -26.5t-158 27t-130.5 78t-89.5 132t-33 182zM241 402q0 -122 56.5 -186t146.5 -64q92 0 148.5 64.5t56.5 191.5q0 116 -56.5 178t-147.5 62
t-147.5 -62.5t-56.5 -183.5z" />
    <glyph glyph-name="p" unicode="p" horiz-adv-x="753" 
d="M80 0v800h379q128 0 198 -78.5t70 -194.5q0 -126 -80.5 -204t-187.5 -78h-179v-245h-200zM410 620h-130v-205h130q54 0 82 32t28 75q0 37 -28 67.5t-82 30.5z" />
    <glyph glyph-name="q" unicode="q" horiz-adv-x="889" 
d="M35 403q0 193 113.5 303t298.5 110q182 0 295 -107.5t113 -304.5q0 -177 -97 -289l93 -115h-197l-19 23q-85 -39 -189 -39q-84 0 -158 27t-130.5 78t-89.5 132t-33 182zM241 402q0 -122 56.5 -186t146.5 -64q43 0 76 13l-142 178h198l52 -65q21 57 21 130
q0 116 -56.5 178t-147.5 62t-147.5 -62.5t-56.5 -183.5z" />
    <glyph glyph-name="r" unicode="r" horiz-adv-x="785" 
d="M81 0v800h379q128 0 198 -78.5t70 -194.5q0 -85 -38.5 -149.5t-101.5 -99.5l140 -278h-225l-111 245h-111v-245h-200zM411 620h-130v-205h130q54 0 82 32t28 75q0 37 -28 67.5t-82 30.5z" />
    <glyph glyph-name="s" unicode="s" horiz-adv-x="678" 
d="M448 223q0 28 -30.5 47t-75.5 29.5t-98.5 29t-98.5 42t-75.5 71.5t-30.5 114q0 123 87 191.5t222 68.5q75 0 151 -17.5t124 -44.5l-38 -170q-48 29 -115.5 45t-128.5 16q-47 0 -75.5 -17.5t-28.5 -48.5q0 -30 30.5 -51t76 -31.5t98.5 -28.5t98.5 -39.5t76 -67
t30.5 -108.5q0 -115 -81.5 -192t-233.5 -77q-168 0 -277 51l8 183q131 -63 275 -63q110 0 110 68z" />
    <glyph glyph-name="t" unicode="t" horiz-adv-x="710" 
d="M705 620h-250v-620h-200v620h-250v180h700v-180z" />
    <glyph glyph-name="u" unicode="u" horiz-adv-x="904" 
d="M632 800h200v-416q0 -168 -108 -284t-272 -116q-172 0 -276 102.5t-104 297.5v416h200v-416q0 -212 180 -212q84 0 132 60.5t48 151.5v416z" />
    <glyph glyph-name="v" unicode="v" horiz-adv-x="808" 
d="M818 800l-321 -800h-206l-301 800h220l188 -566l212 566h208z" />
    <glyph glyph-name="w" unicode="w" horiz-adv-x="1239" 
d="M238 0l-231 800h213l137 -555l166 555h200l158 -564l153 564h208l-250 -800h-212l-166 528l-166 -528h-210z" />
    <glyph glyph-name="x" unicode="x" horiz-adv-x="788" 
d="M809 800l-306 -401l306 -399h-247l-167 243l-167 -243h-248l306 400l-306 400h248l166 -244l168 244h247z" />
    <glyph glyph-name="y" unicode="y" horiz-adv-x="788" 
d="M284 0v266l-304 534h227l179 -350h7l207 350h208l-324 -533v-267h-200z" />
    <glyph glyph-name="z" unicode="z" horiz-adv-x="713" 
d="M670 0h-629v159l353 461h-353v180h626v-120l-372 -500h375v-180z" />
    <glyph glyph-name="braceleft" unicode="{" horiz-adv-x="385" 
d="M338 -200h-62q-102 0 -138.5 41.5t-36.5 154.5v195q0 36 -19 47.5t-50 11.5v115q27 0 48.5 15t21.5 44v213q0 108 36 152t136 44h62v-139h-20q-63 0 -63 -48v-257q0 -11 -1.5 -20.5t-3.5 -16t-6.5 -13t-7 -9.5t-9 -8t-8 -6t-9.5 -6l-8 -4q18 -9 24.5 -12.5t17.5 -22
t11 -45.5v-239q0 -48 65 -48h20v-139z" />
    <glyph glyph-name="bar" unicode="|" horiz-adv-x="312" 
d="M80 0v800h152v-800h-152z" />
    <glyph glyph-name="braceright" unicode="}" horiz-adv-x="385" 
d="M109 -200h-62v139h20q65 0 65 48v239q0 27 11 45.5t17.5 22t24.5 12.5q-1 1 -7 4t-8.5 4.5t-7.5 5t-7.5 6.5l-7 8t-6.5 10t-4.5 12t-3.5 15t-1 18v257q0 48 -63 48h-20v139h62q100 0 136 -44t36 -152v-213q0 -29 21.5 -44t48.5 -15v-115q-31 0 -50 -11.5t-19 -47.5v-195
q0 -113 -36.5 -154.5t-138.5 -41.5z" />
    <glyph glyph-name="uni00A0" unicode="&#xa0;" horiz-adv-x="280" 
 />
    <glyph glyph-name="exclamdown" unicode="&#xa1;" horiz-adv-x="352" 
d="M72 -200v265l10 265h188l10 -262v-268h-208zM72 429v171h209v-171h-209z" />
    <glyph glyph-name="cent" unicode="&#xa2;" horiz-adv-x="625" 
d="M326 -15v112q-124 5 -206.5 79t-82.5 207q0 127 72.5 210t216.5 92v115h100v-117q74 -6 143 -24l-13 -157q-70 12 -130 18v-261q71 5 138 22v-154q-40 -17 -138 -26v-116h-100zM221 402q0 -117 105 -140v259q-105 -16 -105 -119z" />
    <glyph glyph-name="sterling" unicode="&#xa3;" horiz-adv-x="758" 
d="M703 0h-652v176h73v129h-73v150h73v45q0 149 97.5 232.5t238.5 83.5q157 0 254 -74l-29 -178q-53 33 -114 49.5t-104 16.5q-74 0 -108.5 -31.5t-34.5 -119.5v-24h237v-150h-237v-129h379v-176z" />
    <glyph glyph-name="section" unicode="&#xa7;" horiz-adv-x="639" 
d="M54 379q0 71 59 112q-59 46 -59 129q0 90 82 143.5t196 53.5q57 0 124.5 -15.5t109.5 -38.5l-26 -139q-35 20 -100 34.5t-117 14.5q-108 0 -108 -54q0 -23 38.5 -34.5t93 -18t109 -17.5t93 -44t38.5 -88q0 -80 -67 -117q66 -42 66 -122q0 -95 -73.5 -144.5t-195.5 -49.5
q-145 0 -243 48l-2 144q44 -23 118.5 -38t131.5 -15q99 0 99 50q0 15 -38 23t-91.5 16t-107.5 22.5t-92 51.5t-38 93zM214 409q0 -13 9 -22.5t29.5 -15.5t38 -10t51.5 -9t53 -9q26 14 26 42q0 18 -25 26.5t-83 17t-89 15.5q-10 -14 -10 -35z" />
    <glyph glyph-name="dieresis" unicode="&#xa8;" horiz-adv-x="469" 
d="M30 638v149h159v-149h-159zM280 638v149h159v-149h-159z" />
    <glyph glyph-name="copyright" unicode="&#xa9;" horiz-adv-x="733" 
d="M52 307q0 147 86 235t228 88q143 0 229.5 -88t86.5 -235t-86.5 -234.5t-229.5 -87.5q-142 0 -228 87.5t-86 234.5zM468 248l16 -80q-38 -21 -98 -21q-78 0 -125 41t-47 121q0 79 48 122.5t129 43.5q63 0 93 -17l-22 -79q-29 12 -63 12q-40 0 -59 -18t-19 -62t19 -61.5
t61 -17.5q38 0 67 16zM139 307q0 -117 58 -184t169 -67q112 0 170.5 67t58.5 184t-58.5 184.5t-170.5 67.5q-111 0 -169 -67.5t-58 -184.5z" />
    <glyph glyph-name="guillemotleft" unicode="&#xab;" horiz-adv-x="634" 
d="M335 504l-101 -230l100 -234h-174l-126 234l130 230h171zM593 504l-101 -230l100 -234h-174l-126 234l130 230h171z" />
    <glyph glyph-name="registered" unicode="&#xae;" horiz-adv-x="712" 
d="M53 505q0 141 82.5 225.5t219.5 84.5q138 0 221 -84.5t83 -225.5q0 -142 -83 -226t-221 -84q-137 0 -219.5 84t-82.5 226zM137 505q0 -113 55.5 -177.5t162.5 -64.5t163.5 65t56.5 177t-56.5 177t-163.5 65t-162.5 -64.5t-55.5 -177.5zM233 358v305h153q51 0 81 -30.5
t30 -73.5q0 -27 -15.5 -54.5t-46.5 -42.5l60 -103h-91l-43 92h-44v-93h-84zM363 600h-46v-91h46q22 0 34.5 14t12.5 33q0 17 -12.5 30.5t-34.5 13.5z" />
    <glyph glyph-name="macron" unicode="&#xaf;" horiz-adv-x="439" 
d="M50 648v129h339v-129h-339z" />
    <glyph glyph-name="degree" unicode="&#xb0;" horiz-adv-x="418" 
d="M36 643q0 71 51 122t122 51t122 -51t51 -122t-51 -122t-122 -51t-122 51t-51 122zM146 643q0 -31 17 -52t46 -21t46 21t17 52t-17 52t-46 21t-46 -21t-17 -52z" />
    <glyph glyph-name="acute" unicode="&#xb4;" horiz-adv-x="403" 
d="M230 608h-180l90 192h213z" />
    <glyph glyph-name="paragraph" unicode="&#xb6;" horiz-adv-x="743" 
d="M382 800v-560h-55q-122 0 -208 73t-86 205q0 121 73.5 201.5t222.5 80.5h53zM448 -201v1001h200v-1001h-200z" />
    <glyph glyph-name="periodcentered" unicode="&#xb7;" horiz-adv-x="333" 
d="M62 310v199h209v-199h-209z" />
    <glyph glyph-name="cedilla" unicode="&#xb8;" horiz-adv-x="280" 
d="M230 -92q0 -49 -35.5 -78.5t-100.5 -29.5h-44v114h25q18 0 30 9t12 26t-18.5 31t-47.5 20l12 37q28 -5 54.5 -13.5t53.5 -23.5t43 -39t16 -53z" />
    <glyph glyph-name="guillemotright" unicode="&#xbb;" horiz-adv-x="634" 
d="M142 274l-101 230h171l130 -230l-126 -234h-174zM400 274l-101 230h171l130 -230l-126 -234h-174z" />
    <glyph glyph-name="questiondown" unicode="&#xbf;" horiz-adv-x="644" 
d="M497 603v-171h-209v171h209zM488 361v-170q-133 -21 -192 -54.5t-59 -82.5q0 -37 30 -58t85 -21q109 0 218 56l44 -173q-135 -71 -282 -71q-135 0 -217 60.5t-82 182.5q0 47 14 83t34.5 59t57 42t68 29t81.5 23v95h200z" />
    <glyph glyph-name="Agrave" unicode="&#xc0;" horiz-adv-x="822" 
d="M603 0l-50 153h-293l-55 -153h-213l321 800h206l301 -800h-217zM512 848h-180l-103 147h199zM415 583l-97 -267h183z" />
    <glyph glyph-name="Aacute" unicode="&#xc1;" horiz-adv-x="822" 
d="M603 0l-50 153h-293l-55 -153h-213l321 800h206l301 -800h-217zM506 848h-180l74 147h199zM415 583l-97 -267h183z" />
    <glyph glyph-name="Acircumflex" unicode="&#xc2;" horiz-adv-x="822" 
d="M603 0l-50 153h-293l-55 -153h-213l321 800h206l301 -800h-217zM283 985h257l113 -137h-199l-43 93l-42 -93h-199zM415 583l-97 -267h183z" />
    <glyph glyph-name="Atilde" unicode="&#xc3;" horiz-adv-x="822" 
d="M603 0l-50 153h-293l-55 -153h-213l321 800h206l301 -800h-217zM352 882q-47 0 -87 -20v109q33 20 84 20q23 0 64.5 -15t62.5 -15q54 0 86 20v-109q-30 -20 -85 -20q-22 0 -63.5 15t-61.5 15zM415 583l-97 -267h183z" />
    <glyph glyph-name="Adieresis" unicode="&#xc4;" horiz-adv-x="822" 
d="M603 0l-50 153h-293l-55 -153h-213l321 800h206l301 -800h-217zM415 583l-97 -267h183zM446 858v129h139v-129h-139zM246 858v129h139v-129h-139z" />
    <glyph glyph-name="Aring" unicode="&#xc5;" horiz-adv-x="822" 
d="M603 0l-50 153h-293l-55 -153h-213l321 800h206l301 -800h-217zM281 944q0 53 37.5 84.5t93.5 31.5t93.5 -31.5t37.5 -84.5t-37.5 -84.5t-93.5 -31.5t-93.5 31.5t-37.5 84.5zM415 583l-97 -267h183zM361 944q0 -23 14 -38t37 -15q22 0 36.5 15t14.5 38t-14.5 38t-36.5 15
q-23 0 -37 -15t-14 -38z" />
    <glyph glyph-name="AE" unicode="&#xc6;" horiz-adv-x="1175" 
d="M535 0v175h-245l-90 -175h-213l441 800h696v-175h-389v-143h329v-164h-329v-143h399v-175h-599zM522 625l-149 -290h162v290h-13z" />
    <glyph glyph-name="Ccedilla" unicode="&#xc7;" horiz-adv-x="729" 
d="M527 -92q0 -49 -35.5 -78.5t-100.5 -29.5h-44v114h25q18 0 30 9t12 26q0 32 -51 47q-141 33 -227 147t-86 258q0 174 122 294t313 120q135 0 203 -23l-19 -182q-79 26 -178 26q-111 0 -173 -62t-62 -173q0 -110 66 -172t174 -62q62 0 94.5 6t84.5 23v-185
q-68 -25 -185 -27q37 -32 37 -76z" />
    <glyph glyph-name="Egrave" unicode="&#xc8;" horiz-adv-x="692" 
d="M649 0h-569v800h569v-180h-369v-135h299v-170h-299v-135h369v-180zM497 848h-180l-103 147h199z" />
    <glyph glyph-name="Eacute" unicode="&#xc9;" horiz-adv-x="692" 
d="M649 0h-569v800h569v-180h-369v-135h299v-170h-299v-135h369v-180zM462 848h-180l74 147h199z" />
    <glyph glyph-name="Ecircumflex" unicode="&#xca;" horiz-adv-x="692" 
d="M80 0v800h569v-180h-369v-135h299v-170h-299v-135h369v-180h-569zM242 985h257l113 -137h-199l-43 93l-42 -93h-199z" />
    <glyph glyph-name="Edieresis" unicode="&#xcb;" horiz-adv-x="692" 
d="M80 0v800h569v-180h-369v-135h299v-170h-299v-135h369v-180h-569zM412 858v129h139v-129h-139zM212 858v129h139v-129h-139z" />
    <glyph glyph-name="Igrave" unicode="&#xcc;" 
d="M274 848h-180l-103 147h199zM80 0v800h200v-800h-200z" />
    <glyph glyph-name="Iacute" unicode="&#xcd;" 
d="M271 848h-180l74 147h199zM80 0v800h200v-800h-200z" />
    <glyph glyph-name="Icircumflex" unicode="&#xce;" 
d="M54 985h257l113 -137h-199l-43 93l-42 -93h-199zM80 0v800h200v-800h-200z" />
    <glyph glyph-name="Idieresis" unicode="&#xcf;" 
d="M13 858v129h139v-129h-139zM213 858v129h139v-129h-139zM80 0v800h200v-800h-200z" />
    <glyph glyph-name="Ntilde" unicode="&#xd1;" horiz-adv-x="964" 
d="M420 882q-47 0 -87 -20v109q33 20 84 20q23 0 64.5 -15t62.5 -15q54 0 86 20v-109q-30 -20 -85 -20q-23 0 -64 15t-61 15zM620 0l-380 463h-10v-463h-200v800h186l404 -495h10v495h200v-800h-210z" />
    <glyph glyph-name="Ograve" unicode="&#xd2;" horiz-adv-x="890" 
d="M556 848h-180l-103 147h199zM35 403q0 193 113.5 303t298.5 110q182 0 295 -107.5t113 -304.5q0 -102 -33 -183.5t-89.5 -132.5t-129.5 -77.5t-157 -26.5t-158 27t-130.5 78t-89.5 132t-33 182zM241 402q0 -122 56.5 -186t146.5 -64q92 0 148.5 64.5t56.5 191.5
q0 116 -56.5 178t-147.5 62t-147.5 -62.5t-56.5 -183.5z" />
    <glyph glyph-name="Oacute" unicode="&#xd3;" horiz-adv-x="890" 
d="M513 848h-180l74 147h199zM35 403q0 193 113.5 303t298.5 110q182 0 295 -107.5t113 -304.5q0 -102 -33 -183.5t-89.5 -132.5t-129.5 -77.5t-157 -26.5t-158 27t-130.5 78t-89.5 132t-33 182zM241 402q0 -122 56.5 -186t146.5 -64q92 0 148.5 64.5t56.5 191.5
q0 116 -56.5 178t-147.5 62t-147.5 -62.5t-56.5 -183.5z" />
    <glyph glyph-name="Ocircumflex" unicode="&#xd4;" horiz-adv-x="890" 
d="M316 985h257l113 -137h-199l-43 93l-42 -93h-199zM35 403q0 193 113.5 303t298.5 110q182 0 295 -107.5t113 -304.5q0 -102 -33 -183.5t-89.5 -132.5t-129.5 -77.5t-157 -26.5t-158 27t-130.5 78t-89.5 132t-33 182zM241 402q0 -122 56.5 -186t146.5 -64q92 0 148.5 64.5
t56.5 191.5q0 116 -56.5 178t-147.5 62t-147.5 -62.5t-56.5 -183.5z" />
    <glyph glyph-name="Otilde" unicode="&#xd5;" horiz-adv-x="890" 
d="M383 882q-47 0 -87 -20v109q33 20 84 20q23 0 64.5 -15t62.5 -15q53 0 86 20v-109q-30 -20 -85 -20q-22 0 -64 15t-61 15zM35 403q0 193 113.5 303t298.5 110q182 0 295 -107.5t113 -304.5q0 -102 -33 -183.5t-89.5 -132.5t-129.5 -77.5t-157 -26.5t-158 27t-130.5 78
t-89.5 132t-33 182zM241 402q0 -122 56.5 -186t146.5 -64q92 0 148.5 64.5t56.5 191.5q0 116 -56.5 178t-147.5 62t-147.5 -62.5t-56.5 -183.5z" />
    <glyph glyph-name="Odieresis" unicode="&#xd6;" horiz-adv-x="890" 
d="M275 858v129h139v-129h-139zM475 858v129h139v-129h-139zM35 403q0 193 113.5 303t298.5 110q182 0 295 -107.5t113 -304.5q0 -102 -33 -183.5t-89.5 -132.5t-129.5 -77.5t-157 -26.5t-158 27t-130.5 78t-89.5 132t-33 182zM241 402q0 -122 56.5 -186t146.5 -64
q92 0 148.5 64.5t56.5 191.5q0 116 -56.5 178t-147.5 62t-147.5 -62.5t-56.5 -183.5z" />
    <glyph glyph-name="Oslash" unicode="&#xd8;" horiz-adv-x="890" 
d="M35 403q0 193 113.5 303t298.5 110q123 0 216 -51l41 51h151l-99 -123q99 -109 99 -289q0 -102 -33 -183.5t-89.5 -132.5t-129.5 -77.5t-157 -26.5q-124 0 -217 53l-43 -53h-151l101 126q-101 112 -101 293zM241 402q0 -78 23 -132l284 352q-46 26 -103 26
q-91 0 -147.5 -62.5t-56.5 -183.5zM649 408q0 71 -23 123l-284 -353q43 -26 102 -26q92 0 148.5 64.5t56.5 191.5z" />
    <glyph glyph-name="Ugrave" unicode="&#xd9;" horiz-adv-x="904" 
d="M558 848h-180l-103 147h199zM632 800h200v-416q0 -168 -108 -284t-272 -116q-172 0 -276 102.5t-104 297.5v416h200v-416q0 -212 180 -212q84 0 132 60.5t48 151.5v416z" />
    <glyph glyph-name="Uacute" unicode="&#xda;" horiz-adv-x="904" 
d="M519 848h-180l74 147h199zM632 800h200v-416q0 -168 -108 -284t-272 -116q-172 0 -276 102.5t-104 297.5v416h200v-416q0 -212 180 -212q84 0 132 60.5t48 151.5v416z" />
    <glyph glyph-name="Ucircumflex" unicode="&#xdb;" horiz-adv-x="904" 
d="M324 985h257l113 -137h-199l-43 93l-42 -93h-199zM632 800h200v-416q0 -168 -108 -284t-272 -116q-172 0 -276 102.5t-104 297.5v416h200v-416q0 -212 180 -212q84 0 132 60.5t48 151.5v416z" />
    <glyph glyph-name="Udieresis" unicode="&#xdc;" horiz-adv-x="904" 
d="M283 858v129h139v-129h-139zM483 858v129h139v-129h-139zM632 800h200v-416q0 -168 -108 -284t-272 -116q-172 0 -276 102.5t-104 297.5v416h200v-416q0 -212 180 -212q84 0 132 60.5t48 151.5v416z" />
    <glyph glyph-name="germandbls" unicode="&#xdf;" horiz-adv-x="1360" 
d="M448 223q0 28 -30.5 47t-75.5 29.5t-98.5 29t-98.5 42t-75.5 71.5t-30.5 114q0 123 87 191.5t222 68.5q75 0 151 -17.5t124 -44.5l-38 -170q-48 29 -115.5 45t-128.5 16q-47 0 -75.5 -17.5t-28.5 -48.5q0 -30 30.5 -51t76 -31.5t98.5 -28.5t98.5 -39.5t76 -67
t30.5 -108.5q0 -115 -81.5 -192t-233.5 -77q-168 0 -277 51l8 183q131 -63 275 -63q110 0 110 68zM1122 223q0 28 -30.5 47t-75.5 29.5t-98.5 29t-98.5 42t-75.5 71.5t-30.5 114q0 123 87 191.5t222 68.5q75 0 151 -17.5t124 -44.5l-38 -170q-48 29 -115.5 45t-128.5 16
q-47 0 -75.5 -17.5t-28.5 -48.5q0 -30 30.5 -51t76 -31.5t98.5 -28.5t98.5 -39.5t76 -67t30.5 -108.5q0 -115 -81.5 -192t-233.5 -77q-168 0 -277 51l8 183q131 -63 275 -63q110 0 110 68z" />
    <glyph glyph-name="agrave" unicode="&#xe0;" horiz-adv-x="822" 
d="M603 0l-50 153h-293l-55 -153h-213l321 800h206l301 -800h-217zM512 848h-180l-103 147h199zM415 583l-97 -267h183z" />
    <glyph glyph-name="aacute" unicode="&#xe1;" horiz-adv-x="822" 
d="M603 0l-50 153h-293l-55 -153h-213l321 800h206l301 -800h-217zM506 848h-180l74 147h199zM415 583l-97 -267h183z" />
    <glyph glyph-name="acircumflex" unicode="&#xe2;" horiz-adv-x="822" 
d="M603 0l-50 153h-293l-55 -153h-213l321 800h206l301 -800h-217zM283 985h257l113 -137h-199l-43 93l-42 -93h-199zM415 583l-97 -267h183z" />
    <glyph glyph-name="atilde" unicode="&#xe3;" horiz-adv-x="822" 
d="M603 0l-50 153h-293l-55 -153h-213l321 800h206l301 -800h-217zM352 882q-47 0 -87 -20v109q33 20 84 20q23 0 64.5 -15t62.5 -15q54 0 86 20v-109q-30 -20 -85 -20q-22 0 -63.5 15t-61.5 15zM415 583l-97 -267h183z" />
    <glyph glyph-name="adieresis" unicode="&#xe4;" horiz-adv-x="822" 
d="M603 0l-50 153h-293l-55 -153h-213l321 800h206l301 -800h-217zM415 583l-97 -267h183zM446 858v129h139v-129h-139zM246 858v129h139v-129h-139z" />
    <glyph glyph-name="aring" unicode="&#xe5;" horiz-adv-x="822" 
d="M603 0l-50 153h-293l-55 -153h-213l321 800h206l301 -800h-217zM281 944q0 53 37.5 84.5t93.5 31.5t93.5 -31.5t37.5 -84.5t-37.5 -84.5t-93.5 -31.5t-93.5 31.5t-37.5 84.5zM415 583l-97 -267h183zM361 944q0 -23 14 -38t37 -15q22 0 36.5 15t14.5 38t-14.5 38t-36.5 15
q-23 0 -37 -15t-14 -38z" />
    <glyph glyph-name="ae" unicode="&#xe6;" horiz-adv-x="1175" 
d="M535 0v175h-245l-90 -175h-213l441 800h696v-175h-389v-143h329v-164h-329v-143h399v-175h-599zM522 625l-149 -290h162v290h-13z" />
    <glyph glyph-name="ccedilla" unicode="&#xe7;" horiz-adv-x="729" 
d="M527 -92q0 -49 -35.5 -78.5t-100.5 -29.5h-44v114h25q18 0 30 9t12 26q0 32 -51 47q-141 33 -227 147t-86 258q0 174 122 294t313 120q135 0 203 -23l-19 -182q-79 26 -178 26q-111 0 -173 -62t-62 -173q0 -110 66 -172t174 -62q62 0 94.5 6t84.5 23v-185
q-68 -25 -185 -27q37 -32 37 -76z" />
    <glyph glyph-name="egrave" unicode="&#xe8;" horiz-adv-x="692" 
d="M649 0h-569v800h569v-180h-369v-135h299v-170h-299v-135h369v-180zM497 848h-180l-103 147h199z" />
    <glyph glyph-name="eacute" unicode="&#xe9;" horiz-adv-x="692" 
d="M649 0h-569v800h569v-180h-369v-135h299v-170h-299v-135h369v-180zM462 848h-180l74 147h199z" />
    <glyph glyph-name="ecircumflex" unicode="&#xea;" horiz-adv-x="692" 
d="M80 0v800h569v-180h-369v-135h299v-170h-299v-135h369v-180h-569zM242 985h257l113 -137h-199l-43 93l-42 -93h-199z" />
    <glyph glyph-name="edieresis" unicode="&#xeb;" horiz-adv-x="692" 
d="M80 0v800h569v-180h-369v-135h299v-170h-299v-135h369v-180h-569zM412 858v129h139v-129h-139zM212 858v129h139v-129h-139z" />
    <glyph glyph-name="igrave" unicode="&#xec;" 
d="M274 848h-180l-103 147h199zM80 0v800h200v-800h-200z" />
    <glyph glyph-name="iacute" unicode="&#xed;" 
d="M271 848h-180l74 147h199zM80 0v800h200v-800h-200z" />
    <glyph glyph-name="icircumflex" unicode="&#xee;" 
d="M54 985h257l113 -137h-199l-43 93l-42 -93h-199zM80 0v800h200v-800h-200z" />
    <glyph glyph-name="idieresis" unicode="&#xef;" 
d="M13 858v129h139v-129h-139zM213 858v129h139v-129h-139zM80 0v800h200v-800h-200z" />
    <glyph glyph-name="ntilde" unicode="&#xf1;" horiz-adv-x="964" 
d="M420 882q-47 0 -87 -20v109q33 20 84 20q23 0 64.5 -15t62.5 -15q54 0 86 20v-109q-30 -20 -85 -20q-23 0 -64 15t-61 15zM620 0l-380 463h-10v-463h-200v800h186l404 -495h10v495h200v-800h-210z" />
    <glyph glyph-name="ograve" unicode="&#xf2;" horiz-adv-x="890" 
d="M556 848h-180l-103 147h199zM35 403q0 193 113.5 303t298.5 110q182 0 295 -107.5t113 -304.5q0 -102 -33 -183.5t-89.5 -132.5t-129.5 -77.5t-157 -26.5t-158 27t-130.5 78t-89.5 132t-33 182zM241 402q0 -122 56.5 -186t146.5 -64q92 0 148.5 64.5t56.5 191.5
q0 116 -56.5 178t-147.5 62t-147.5 -62.5t-56.5 -183.5z" />
    <glyph glyph-name="oacute" unicode="&#xf3;" horiz-adv-x="890" 
d="M513 848h-180l74 147h199zM35 403q0 193 113.5 303t298.5 110q182 0 295 -107.5t113 -304.5q0 -102 -33 -183.5t-89.5 -132.5t-129.5 -77.5t-157 -26.5t-158 27t-130.5 78t-89.5 132t-33 182zM241 402q0 -122 56.5 -186t146.5 -64q92 0 148.5 64.5t56.5 191.5
q0 116 -56.5 178t-147.5 62t-147.5 -62.5t-56.5 -183.5z" />
    <glyph glyph-name="ocircumflex" unicode="&#xf4;" horiz-adv-x="890" 
d="M316 985h257l113 -137h-199l-43 93l-42 -93h-199zM35 403q0 193 113.5 303t298.5 110q182 0 295 -107.5t113 -304.5q0 -102 -33 -183.5t-89.5 -132.5t-129.5 -77.5t-157 -26.5t-158 27t-130.5 78t-89.5 132t-33 182zM241 402q0 -122 56.5 -186t146.5 -64q92 0 148.5 64.5
t56.5 191.5q0 116 -56.5 178t-147.5 62t-147.5 -62.5t-56.5 -183.5z" />
    <glyph glyph-name="otilde" unicode="&#xf5;" horiz-adv-x="890" 
d="M383 882q-47 0 -87 -20v109q33 20 84 20q23 0 64.5 -15t62.5 -15q53 0 86 20v-109q-30 -20 -85 -20q-22 0 -64 15t-61 15zM35 403q0 193 113.5 303t298.5 110q182 0 295 -107.5t113 -304.5q0 -102 -33 -183.5t-89.5 -132.5t-129.5 -77.5t-157 -26.5t-158 27t-130.5 78
t-89.5 132t-33 182zM241 402q0 -122 56.5 -186t146.5 -64q92 0 148.5 64.5t56.5 191.5q0 116 -56.5 178t-147.5 62t-147.5 -62.5t-56.5 -183.5z" />
    <glyph glyph-name="odieresis" unicode="&#xf6;" horiz-adv-x="890" 
d="M275 858v129h139v-129h-139zM475 858v129h139v-129h-139zM35 403q0 193 113.5 303t298.5 110q182 0 295 -107.5t113 -304.5q0 -102 -33 -183.5t-89.5 -132.5t-129.5 -77.5t-157 -26.5t-158 27t-130.5 78t-89.5 132t-33 182zM241 402q0 -122 56.5 -186t146.5 -64
q92 0 148.5 64.5t56.5 191.5q0 116 -56.5 178t-147.5 62t-147.5 -62.5t-56.5 -183.5z" />
    <glyph glyph-name="oslash" unicode="&#xf8;" horiz-adv-x="890" 
d="M35 403q0 193 113.5 303t298.5 110q123 0 216 -51l41 51h151l-99 -123q99 -109 99 -289q0 -102 -33 -183.5t-89.5 -132.5t-129.5 -77.5t-157 -26.5q-124 0 -217 53l-43 -53h-151l101 126q-101 112 -101 293zM241 402q0 -78 23 -132l284 352q-46 26 -103 26
q-91 0 -147.5 -62.5t-56.5 -183.5zM649 408q0 71 -23 123l-284 -353q43 -26 102 -26q92 0 148.5 64.5t56.5 191.5z" />
    <glyph glyph-name="ugrave" unicode="&#xf9;" horiz-adv-x="904" 
d="M558 848h-180l-103 147h199zM632 800h200v-416q0 -168 -108 -284t-272 -116q-172 0 -276 102.5t-104 297.5v416h200v-416q0 -212 180 -212q84 0 132 60.5t48 151.5v416z" />
    <glyph glyph-name="uacute" unicode="&#xfa;" horiz-adv-x="904" 
d="M519 848h-180l74 147h199zM632 800h200v-416q0 -168 -108 -284t-272 -116q-172 0 -276 102.5t-104 297.5v416h200v-416q0 -212 180 -212q84 0 132 60.5t48 151.5v416z" />
    <glyph glyph-name="ucircumflex" unicode="&#xfb;" horiz-adv-x="904" 
d="M324 985h257l113 -137h-199l-43 93l-42 -93h-199zM632 800h200v-416q0 -168 -108 -284t-272 -116q-172 0 -276 102.5t-104 297.5v416h200v-416q0 -212 180 -212q84 0 132 60.5t48 151.5v416z" />
    <glyph glyph-name="udieresis" unicode="&#xfc;" horiz-adv-x="904" 
d="M283 858v129h139v-129h-139zM483 858v129h139v-129h-139zM632 800h200v-416q0 -168 -108 -284t-272 -116q-172 0 -276 102.5t-104 297.5v416h200v-416q0 -212 180 -212q84 0 132 60.5t48 151.5v416z" />
    <glyph glyph-name="dotlessi" unicode="&#x131;" horiz-adv-x="359" 
d="M98 0v556h198v-556h-198z" />
    <glyph glyph-name="OE" unicode="&#x152;" horiz-adv-x="1267" 
d="M655 0v33q-92 -49 -209 -49q-84 0 -158 27t-130.5 78t-89.5 132t-33 182q0 193 113.5 303t298.5 110q116 0 208 -46v30h569v-180h-369v-135h299v-170h-299v-135h369v-180h-569zM241 402q0 -122 56.5 -186t146.5 -64q92 0 148.5 64.5t56.5 191.5q0 116 -56.5 178
t-147.5 62t-147.5 -62.5t-56.5 -183.5z" />
    <glyph glyph-name="oe" unicode="&#x153;" horiz-adv-x="1267" 
d="M655 0v33q-92 -49 -209 -49q-84 0 -158 27t-130.5 78t-89.5 132t-33 182q0 193 113.5 303t298.5 110q116 0 208 -46v30h569v-180h-369v-135h299v-170h-299v-135h369v-180h-569zM241 402q0 -122 56.5 -186t146.5 -64q92 0 148.5 64.5t56.5 191.5q0 116 -56.5 178
t-147.5 62t-147.5 -62.5t-56.5 -183.5z" />
    <glyph glyph-name="Ydieresis" unicode="&#x178;" horiz-adv-x="809" 
d="M274 0v266l-304 534h227l179 -350h7l207 350h208l-324 -533v-267h-200zM441 858v129h139v-129h-139zM241 858v129h139v-129h-139z" />
    <glyph glyph-name="circumflex" unicode="&#x2c6;" horiz-adv-x="583" 
d="M183 800h217l113 -179h-179l-43 116l-42 -116h-179z" />
    <glyph glyph-name="caron" unicode="&#x2c7;" horiz-adv-x="583" 
d="M400 621h-217l-113 179h179l43 -116l42 116h179z" />
    <glyph glyph-name="breve" unicode="&#x2d8;" horiz-adv-x="503" 
d="M294 785h159q0 -151 -202 -151q-110 0 -155.5 40t-45.5 111h159q0 -34 7.5 -48.5t34.5 -14.5t35 14.5t8 48.5z" />
    <glyph glyph-name="dotaccent" unicode="&#x2d9;" horiz-adv-x="239" 
d="M33 614v172h190v-172h-190z" />
    <glyph glyph-name="ring" unicode="&#x2da;" horiz-adv-x="362" 
d="M50 710q0 55 35 88t96 33t96 -33t35 -88t-35 -88t-96 -33t-96 33t-35 88zM123 710q0 -25 14.5 -41.5t43.5 -16.5q28 0 43 16.5t15 41.5q0 24 -15 41t-43 17q-29 0 -43.5 -16.5t-14.5 -41.5z" />
    <glyph glyph-name="ogonek" unicode="&#x2db;" horiz-adv-x="280" 
d="M50 -99q0 56 52 91t115 45l12 -37q-29 -6 -47.5 -20t-18.5 -31t12 -26t30 -9h25v-114h-44q-66 0 -101 26.5t-35 74.5z" />
    <glyph glyph-name="tilde" unicode="&#x2dc;" horiz-adv-x="397" 
d="M137 662q-23 0 -55 -9t-52 -21l-13 117q57 34 109 34q23 0 68.5 -16t66.5 -16q47 0 96 30l11 -117q-50 -33 -93 -33q-27 0 -73 15.5t-65 15.5z" />
    <glyph glyph-name="hungarumlaut" unicode="&#x2dd;" horiz-adv-x="611" 
d="M210 642h-160l104 157h179zM418 642h-160l124 157h179z" />
    <glyph glyph-name="endash" unicode="&#x2013;" horiz-adv-x="624" 
d="M562 324h-500v150h500v-150z" />
    <glyph glyph-name="emdash" unicode="&#x2014;" horiz-adv-x="980" 
d="M918 324h-856v150h856v-150z" />
    <glyph glyph-name="quoteleft" unicode="&#x2018;" horiz-adv-x="317" 
d="M163 832h103q-49 -104 -49 -188q0 -47 38 -70q-9 -80 -97 -80q-102 0 -102 101q0 91 107 237z" />
    <glyph glyph-name="quoteright" unicode="&#x2019;" horiz-adv-x="307" 
d="M159 512h-103q49 104 49 188q0 47 -38 70q9 80 97 80q102 0 102 -101q0 -91 -107 -237z" />
    <glyph glyph-name="quotesinglbase" unicode="&#x201a;" horiz-adv-x="313" 
d="M142 -140h-103q49 104 49 188q0 47 -38 70q9 80 97 80q102 0 102 -101q0 -91 -107 -237z" />
    <glyph glyph-name="quotedblleft" unicode="&#x201c;" horiz-adv-x="557" 
d="M163 832h103q-49 -104 -49 -188q0 -47 38 -70q-9 -80 -97 -80q-102 0 -102 101q0 91 107 237zM412 832h103q-49 -104 -49 -188q0 -47 38 -70q-9 -80 -97 -80q-102 0 -102 101q0 91 107 237z" />
    <glyph glyph-name="quotedblright" unicode="&#x201d;" horiz-adv-x="547" 
d="M159 512h-103q49 104 49 188q0 47 -38 70q9 80 97 80q102 0 102 -101q0 -91 -107 -237zM412 512h-103q49 104 49 188q0 47 -38 70q9 80 97 80q102 0 102 -101q0 -91 -107 -237z" />
    <glyph glyph-name="quotedblbase" unicode="&#x201e;" horiz-adv-x="553" 
d="M383 -140h-103q49 104 49 188q0 47 -38 70q9 80 97 80q102 0 102 -101q0 -91 -107 -237zM142 -140h-103q49 104 49 188q0 47 -38 70q9 80 97 80q102 0 102 -101q0 -91 -107 -237z" />
    <glyph glyph-name="dagger" unicode="&#x2020;" horiz-adv-x="670" 
d="M37 432v168h208l-14 200h200l-14 -200h216v-168h-215l13 -137v-295h-200v298l12 134h-206z" />
    <glyph glyph-name="daggerdbl" unicode="&#x2021;" horiz-adv-x="700" 
d="M52 462v168h207l-13 170h200l-13 -170h215v-168h-222v-112h222v-168h-216l14 -182h-200l13 182h-207v168h214v112h-214z" />
    <glyph glyph-name="bullet" unicode="&#x2022;" horiz-adv-x="430" 
d="M62 257v292h306v-292h-306z" />
    <glyph glyph-name="ellipsis" unicode="&#x2026;" horiz-adv-x="931" 
d="M62 0v199h209v-199h-209zM361 0v199h209v-199h-209zM660 0v199h209v-199h-209z" />
    <glyph glyph-name="guilsinglleft" unicode="&#x2039;" horiz-adv-x="376" 
d="M335 504l-101 -230l100 -234h-174l-126 234l130 230h171z" />
    <glyph glyph-name="guilsinglright" unicode="&#x203a;" horiz-adv-x="376" 
d="M142 274l-101 230h171l130 -230l-126 -234h-174z" />
    <glyph glyph-name="fraction" unicode="&#x2044;" horiz-adv-x="260" 
d="M-124 0l368 800h140l-368 -800h-140z" />
    <glyph glyph-name="Euro" unicode="&#x20ac;" horiz-adv-x="807" 
d="M623 433h-308q-1 -10 -1 -32q0 -26 2 -38h307v-110h-270q60 -90 198 -90q126 0 195 38l3 -175q-89 -42 -225 -42q-146 0 -252.5 72t-147.5 197h-85v110h65q-1 10 -1 32q0 25 1 38h-65v110h87q42 126 149 199.5t257 73.5q145 0 223 -37l-9 -177q-36 16 -93 26t-104 10
q-141 0 -200 -95h274v-110z" />
    <glyph glyph-name="trademark" unicode="&#x2122;" horiz-adv-x="1353" 
d="M882 380l-103 161h-4v-301h-150v560h150l156 -261h4l172 261h150v-560h-150v301h-4l-125 -161h-96zM558 657h-175v-417h-151v417h-175v143h501v-143z" />
    <glyph glyph-name="apple" unicode="&#xf8ff;" horiz-adv-x="1159" 
d="M439 408v29h-19v-29h19zM499 408v29h-19v-29h19zM679 428v9h-19v-9h19zM739 408v29h-19v-29h19zM859 428v9h-19v-9h19zM90 417h-10v-10h-11v10h-10v11h10v10h11v-10h10v-11zM130 398h-11v10h11v-10zM160 417h-10v-10h-11v10h-10v11h10v10h11v-10h10v-11zM130 437h-11v11
h11v-11zM170 398h-11v10h11v-10zM170 437h-11v11h11v-11zM220 398h-10v-10h-11v10h10v10h11v-10zM250 417h-10v-10h-11v10h-10v11h10v10h11v-10h10v-11zM220 437h-11v10h-10v11h11v-10h10v-11zM270 388h-11v10h-10v10h11v-10h10v-10zM270 447h-10v-10h-11v11h10v10h11v-11z
M330 398h-21v9h-10v30h-10v11h10v10h11v-10h20v-11h-20v-29h20v-10zM390 407h-10v-9h-10v-10h-10v-10h-11v11h10v18h-10v41h11v-40h19v40h11v-41zM450 407h-10v-9h-20v-20h-11v70h31v-10h10v-31zM510 407h-10v-9h-21v9h-10v31h10v10h21v-10h10v-31zM570 398h-21v9h-10v30
h-10v11h10v10h11v-10h20v-11h-20v-29h20v-10zM630 398h-11v39h-19v-39h-11v70h11v-20h20v-10h10v-40zM690 398h-31v9h-10v31h10v10h21v-10h10v-21h-30v-9h30v-10zM750 378h-11v20h-20v9h-10v31h10v10h31v-70zM810 398h-31v9h-10v41h11v-40h19v40h11v-50zM870 398h-31v9h-10
v31h10v10h21v-10h10v-21h-30v-9h30v-10zM910 398h-10v-10h-11v10h10v10h11v-10zM940 417h-10v-10h-11v10h-10v11h10v10h11v-10h10v-11zM910 437h-11v10h-10v11h11v-10h10v-11zM960 388h-11v10h-10v10h11v-10h10v-10zM960 447h-10v-10h-11v11h10v10h11v-11zM1000 398h-11v10
h11v-10zM1030 417h-10v-10h-11v10h-10v11h10v10h11v-10h10v-11zM1000 437h-11v11h11v-11zM1040 398h-11v10h11v-10zM1040 437h-11v11h11v-11zM1100 417h-10v-10h-11v10h-10v11h10v10h11v-10h10v-11z" />
    <glyph glyph-name="A.02" horiz-adv-x="1078" 
d="M861 0l-75 162h-499l-74 -162h-213l391 800h306l381 -800h-217zM506 637l-144 -312h350l-143 312h-63z" />
    <glyph glyph-name="B.02" horiz-adv-x="1107" 
d="M80 0v800h677q310 0 310 -219q0 -121 -96 -172q96 -51 96 -175q0 -107 -75 -170.5t-234 -63.5h-678zM764 328h-484v-158h484q50 0 72.5 25t22.5 57q0 30 -22 53t-73 23zM764 630h-484v-158h484q50 0 72.5 22.5t22.5 52.5t-23 56.5t-72 26.5z" />
    <glyph glyph-name="C.02" horiz-adv-x="975" 
d="M942 198v-172q-48 -18 -141 -30t-186 -12q-278 0 -423 113.5t-145 303.5q0 193 149.5 303.5t436.5 110.5q206 0 322 -28l-19 -176q-164 31 -312 31q-371 0 -371 -237q0 -117 89.5 -181.5t269.5 -64.5q82 0 181.5 12t148.5 27z" />
    <glyph glyph-name="D.02" horiz-adv-x="1096" 
d="M80 0v800h553q188 0 308 -112t120 -288q0 -168 -121 -284t-307 -116h-553zM633 620h-353v-440h353q62 0 107 19t69 52t34.5 69.5t10.5 79.5q0 94 -52.5 157t-168.5 63z" />
    <glyph glyph-name="E.02" horiz-adv-x="959" 
d="M909 0h-829v800h829v-180h-629v-135h559v-170h-559v-135h629v-180z" />
    <glyph glyph-name="F.02" horiz-adv-x="949" 
d="M869 305h-589v-305h-200v800h859v-180h-659v-135h589v-180z" />
    <glyph glyph-name="G.02" horiz-adv-x="1045" 
d="M533 315v170h439v-453q-49 -18 -157.5 -33t-199.5 -15q-278 0 -423 113.5t-145 303.5q0 193 149.5 303.5t436.5 110.5q206 0 352 -35l-19 -169q-164 31 -342 31q-371 0 -371 -237q0 -117 89.5 -181.5t269.5 -64.5q71 0 164 8v148h-243z" />
    <glyph glyph-name="H.02" horiz-adv-x="1218" 
d="M934 0v305h-650v-305h-200v800h200v-305h650v305h200v-800h-200z" />
    <glyph glyph-name="I.02" 
d="M80 0v800h200v-800h-200z" />
    <glyph glyph-name="J.02" horiz-adv-x="749" 
d="M504 350v450h200v-450q0 -180 -99 -265t-325 -85h-260v188h260q131 0 177.5 39.5t46.5 122.5z" />
    <glyph glyph-name="K.02" horiz-adv-x="1033" 
d="M1033 800l-559 -387l558 -413h-304l-411 305h-37v-305h-200v800h200v-305h36l427 305h290z" />
    <glyph glyph-name="L.02" horiz-adv-x="919" 
d="M80 0v800h200v-610h619v-190h-819z" />
    <glyph glyph-name="M.02" horiz-adv-x="1416" 
d="M534 0l-211 637h-39v-637h-200v800h393l200 -637h44l213 637h398v-800h-200v637h-48l-232 -631l-1 -6h-317z" />
    <glyph glyph-name="N.02" horiz-adv-x="1228" 
d="M902 0l-568 561h-50v-561h-200v800h281l529 -505h50v505h200v-800h-242z" />
    <glyph glyph-name="O.02" horiz-adv-x="1150" 
d="M35 403q0 194 148.5 303.5t393.5 109.5q243 0 390.5 -107.5t147.5 -304.5q0 -136 -73 -232.5t-193 -142t-273 -45.5q-154 0 -274.5 46t-193.5 142t-73 231zM241 402q0 -123 90.5 -186.5t242.5 -63.5q154 0 244.5 64.5t90.5 191.5q0 117 -91 178.5t-243 61.5
q-153 0 -243.5 -62t-90.5 -184z" />
    <glyph glyph-name="P.02" horiz-adv-x="1017" 
d="M80 0v800h619q142 0 220 -78.5t78 -194.5q0 -126 -88 -204t-210 -78h-419v-245h-200zM670 620h-390v-205h390q120 0 120 107q0 40 -27 69t-93 29z" />
    <glyph glyph-name="Q.02" horiz-adv-x="1150" 
d="M35 403q0 194 148.5 303.5t393.5 109.5q243 0 390.5 -107.5t147.5 -304.5q0 -173 -117 -282l140 -122h-217l-47 41q-128 -57 -298 -57q-154 0 -274.5 46t-193.5 142t-73 231zM241 402q0 -123 90.5 -186.5t242.5 -63.5q86 0 150 19l-196 172h218l108 -95q55 63 55 160
q0 117 -91 178.5t-243 61.5q-153 0 -243.5 -62t-90.5 -184z" />
    <glyph glyph-name="R.02" horiz-adv-x="1017" 
d="M81 0v800h618q142 0 220 -78.5t78 -194.5q0 -82 -39.5 -145.5t-106.5 -99.5l143 -282h-225l-111 245h-377v-245h-200zM670 620h-389v-205h389q120 0 120 107q0 40 -27 69t-93 29z" />
    <glyph glyph-name="S.02" horiz-adv-x="946" 
d="M708 223q0 24 -28.5 40t-76 23t-107.5 15t-122.5 15.5t-122.5 25t-107.5 42t-76 69t-28.5 103.5q0 123 121.5 191.5t317.5 68.5q128 0 243 -17.5t162 -44.5l-38 -170q-48 28 -156 44.5t-218 16.5q-234 0 -234 -66q0 -29 37 -47t96 -26.5t130.5 -15.5t143 -21t130.5 -37
t96 -68.5t37 -110.5q0 -115 -114.5 -192t-330.5 -77q-298 0 -407 51l8 183q131 -63 405 -63q123 0 181.5 19t58.5 49z" />
    <glyph glyph-name="T.02" horiz-adv-x="970" 
d="M960 620h-380v-620h-200v620h-370v180h950v-180z" />
    <glyph glyph-name="U.02" horiz-adv-x="1174" 
d="M902 800h200v-416q0 -168 -144 -284t-366 -116q-235 0 -377.5 102.5t-142.5 297.5v416h200v-416q0 -106 85.5 -164t234.5 -58q147 0 228.5 64.5t81.5 157.5v416z" />
    <glyph glyph-name="V.02" horiz-adv-x="1058" 
d="M1078 800l-371 -800h-336l-371 800h237l284 -637h47l277 637h233z" />
    <glyph glyph-name="W.02" horiz-adv-x="1602" 
d="M251 0l-241 800h223l173 -637h47l158 637h376l181 -637h47l150 637h227l-221 -800h-356l-184 637h-56l-168 -637h-356z" />
    <glyph glyph-name="X.02" horiz-adv-x="1059" 
d="M1079 800l-386 -401l386 -399h-262l-271 305h-33l-270 -305h-263l386 400l-386 400h263l269 -305h34l271 305h262z" />
    <glyph glyph-name="Y.02" horiz-adv-x="923" 
d="M369 0v254l-419 546h233l262 -350h40l251 350h237l-404 -537v-263h-200z" />
    <glyph glyph-name="Aacute.02" horiz-adv-x="1078" 
d="M861 0l-75 162h-499l-74 -162h-213l391 800h306l381 -800h-217zM506 637l-144 -312h350l-143 312h-63zM634 848h-180l74 147h199z" />
    <glyph glyph-name="Acircumflex.02" horiz-adv-x="1078" 
d="M861 0l-75 162h-499l-74 -162h-213l391 800h306l381 -800h-217zM506 637l-144 -312h350l-143 312h-63zM413 985h257l113 -137h-199l-43 93l-42 -93h-199z" />
    <glyph glyph-name="Adieresis.02" horiz-adv-x="1078" 
d="M861 0l-75 162h-499l-74 -162h-213l391 800h306l381 -800h-217zM506 637l-144 -312h350l-143 312h-63zM384 858v129h139v-129h-139zM584 858v129h139v-129h-139z" />
    <glyph glyph-name="Aring.02" horiz-adv-x="1078" 
d="M861 0l-75 162h-499l-74 -162h-213l391 800h306l381 -800h-217zM506 637l-144 -312h350l-143 312h-63zM420 944q0 53 37.5 84.5t93.5 31.5t93.5 -31.5t37.5 -84.5t-37.5 -84.5t-93.5 -31.5t-93.5 31.5t-37.5 84.5zM500 944q0 -23 14 -38t37 -15q22 0 36.5 15t14.5 38
t-14.5 38t-36.5 15q-23 0 -37 -15t-14 -38z" />
    <glyph glyph-name="Agrave.02" horiz-adv-x="1078" 
d="M861 0l-75 162h-499l-74 -162h-213l391 800h306l381 -800h-217zM506 637l-144 -312h350l-143 312h-63zM642 848h-180l-103 147h199z" />
    <glyph glyph-name="Atilde.02" horiz-adv-x="1078" 
d="M861 0l-75 162h-499l-74 -162h-213l391 800h306l381 -800h-217zM506 637l-144 -312h350l-143 312h-63zM486 882q-47 0 -87 -20v109q33 20 84 20q23 0 64.5 -15t62.5 -15q54 0 86 20v-109q-30 -20 -85 -20q-23 0 -64 15t-61 15z" />
    <glyph glyph-name="Ccedilla.02" horiz-adv-x="978" 
d="M710 -92q0 -49 -35.5 -78.5t-100.5 -29.5h-44v114h25q18 0 30 9t12 26q0 20 -26 36q-256 10 -388.5 122t-132.5 294q0 193 149.5 303.5t436.5 110.5q206 0 322 -28l-19 -176q-164 31 -312 31q-371 0 -371 -237q0 -117 89.5 -181.5t269.5 -64.5q82 0 181.5 12t148.5 27
v-172q-90 -34 -273 -41q38 -33 38 -77z" />
    <glyph glyph-name="Eacute.02" horiz-adv-x="959" 
d="M909 0h-829v800h829v-180h-629v-135h559v-170h-559v-135h629v-180zM582 848h-180l74 147h199z" />
    <glyph glyph-name="Ecircumflex.02" horiz-adv-x="959" 
d="M909 0h-829v800h829v-180h-629v-135h559v-170h-559v-135h629v-180zM372 985h257l113 -137h-199l-43 93l-42 -93h-199z" />
    <glyph glyph-name="Edieresis.02" horiz-adv-x="959" 
d="M909 0h-829v800h829v-180h-629v-135h559v-170h-559v-135h629v-180zM352 858v129h139v-129h-139zM552 858v129h139v-129h-139z" />
    <glyph glyph-name="Egrave.02" horiz-adv-x="959" 
d="M909 0h-829v800h829v-180h-629v-135h559v-170h-559v-135h629v-180zM617 848h-180l-103 147h199z" />
    <glyph glyph-name="Iacute.02" 
d="M271 848h-180l74 147h199zM80 0v800h200v-800h-200z" />
    <glyph glyph-name="Icircumflex.02" 
d="M54 985h257l113 -137h-199l-43 93l-42 -93h-199zM80 0v800h200v-800h-200z" />
    <glyph glyph-name="Idieresis.02" 
d="M13 858v129h139v-129h-139zM213 858v129h139v-129h-139zM80 0v800h200v-800h-200z" />
    <glyph glyph-name="Igrave.02" 
d="M274 848h-180l-103 147h199zM80 0v800h200v-800h-200z" />
    <glyph glyph-name="Ntilde.02" horiz-adv-x="1228" 
d="M553 882q-47 0 -87 -20v109q33 20 84 20q23 0 64.5 -15t62.5 -15q53 0 86 20v-109q-30 -20 -85 -20q-22 0 -64 15t-61 15zM902 0l-568 561h-50v-561h-200v800h281l529 -505h50v505h200v-800h-242z" />
    <glyph glyph-name="Ograve.02" horiz-adv-x="1150" 
d="M664 848h-180l-103 147h199zM35 403q0 194 148.5 303.5t393.5 109.5q243 0 390.5 -107.5t147.5 -304.5q0 -136 -73 -232.5t-193 -142t-273 -45.5q-154 0 -274.5 46t-193.5 142t-73 231zM241 402q0 -123 90.5 -186.5t242.5 -63.5q154 0 244.5 64.5t90.5 191.5
q0 117 -91 178.5t-243 61.5q-153 0 -243.5 -62t-90.5 -184z" />
    <glyph glyph-name="Odieresis.02" horiz-adv-x="1150" 
d="M402 858v129h139v-129h-139zM602 858v129h139v-129h-139zM35 403q0 194 148.5 303.5t393.5 109.5q243 0 390.5 -107.5t147.5 -304.5q0 -136 -73 -232.5t-193 -142t-273 -45.5q-154 0 -274.5 46t-193.5 142t-73 231zM241 402q0 -123 90.5 -186.5t242.5 -63.5
q154 0 244.5 64.5t90.5 191.5q0 117 -91 178.5t-243 61.5q-153 0 -243.5 -62t-90.5 -184z" />
    <glyph glyph-name="Otilde.02" horiz-adv-x="1150" 
d="M517 882q-47 0 -87 -20v109q33 20 84 20q23 0 64.5 -15t62.5 -15q53 0 86 20v-109q-30 -20 -85 -20q-22 0 -64 15t-61 15zM35 403q0 194 148.5 303.5t393.5 109.5q243 0 390.5 -107.5t147.5 -304.5q0 -136 -73 -232.5t-193 -142t-273 -45.5q-154 0 -274.5 46t-193.5 142
t-73 231zM241 402q0 -123 90.5 -186.5t242.5 -63.5q154 0 244.5 64.5t90.5 191.5q0 117 -91 178.5t-243 61.5q-153 0 -243.5 -62t-90.5 -184z" />
    <glyph glyph-name="Oacute.02" horiz-adv-x="1150" 
d="M661 848h-180l74 147h199zM35 403q0 194 148.5 303.5t393.5 109.5q243 0 390.5 -107.5t147.5 -304.5q0 -136 -73 -232.5t-193 -142t-273 -45.5q-154 0 -274.5 46t-193.5 142t-73 231zM241 402q0 -123 90.5 -186.5t242.5 -63.5q154 0 244.5 64.5t90.5 191.5
q0 117 -91 178.5t-243 61.5q-153 0 -243.5 -62t-90.5 -184z" />
    <glyph glyph-name="Ocircumflex.02" horiz-adv-x="1150" 
d="M452 985h257l113 -137h-199l-43 93l-42 -93h-199zM35 403q0 194 148.5 303.5t393.5 109.5q243 0 390.5 -107.5t147.5 -304.5q0 -136 -73 -232.5t-193 -142t-273 -45.5q-154 0 -274.5 46t-193.5 142t-73 231zM241 402q0 -123 90.5 -186.5t242.5 -63.5q154 0 244.5 64.5
t90.5 191.5q0 117 -91 178.5t-243 61.5q-153 0 -243.5 -62t-90.5 -184z" />
    <glyph glyph-name="Oslash.02" horiz-adv-x="1150" 
d="M35 403q0 194 148.5 303.5t393.5 109.5q184 0 316 -63l71 63h151l-133 -119q133 -109 133 -293q0 -136 -73 -232.5t-193 -142t-273 -45.5q-184 0 -317 65l-73 -65h-151l136 122q-136 110 -136 297zM241 402q0 -108 70 -170l436 390q-75 26 -172 26q-153 0 -243.5 -62
t-90.5 -184zM909 408q0 100 -70 161l-436 -391q75 -26 171 -26q154 0 244.5 64.5t90.5 191.5z" />
    <glyph glyph-name="Uacute.02" horiz-adv-x="1174" 
d="M671 848h-180l74 147h199zM902 800h200v-416q0 -168 -144 -284t-366 -116q-235 0 -377.5 102.5t-142.5 297.5v416h200v-416q0 -106 85.5 -164t234.5 -58q147 0 228.5 64.5t81.5 157.5v416z" />
    <glyph glyph-name="Ucircumflex.02" horiz-adv-x="1174" 
d="M455 985h257l113 -137h-199l-43 93l-42 -93h-199zM902 800h200v-416q0 -168 -144 -284t-366 -116q-235 0 -377.5 102.5t-142.5 297.5v416h200v-416q0 -106 85.5 -164t234.5 -58q147 0 228.5 64.5t81.5 157.5v416z" />
    <glyph glyph-name="Ugrave.02" horiz-adv-x="1174" 
d="M685 848h-180l-103 147h199zM902 800h200v-416q0 -168 -144 -284t-366 -116q-235 0 -377.5 102.5t-142.5 297.5v416h200v-416q0 -106 85.5 -164t234.5 -58q147 0 228.5 64.5t81.5 157.5v416z" />
    <glyph glyph-name="Udieresis.02" horiz-adv-x="1174" 
d="M420 858v129h139v-129h-139zM620 858v129h139v-129h-139zM902 800h200v-416q0 -168 -144 -284t-366 -116q-235 0 -377.5 102.5t-142.5 297.5v416h200v-416q0 -106 85.5 -164t234.5 -58q147 0 228.5 64.5t81.5 157.5v416z" />
    <glyph glyph-name="Ydieresis.02" horiz-adv-x="923" 
d="M369 0v254l-419 546h233l262 -350h40l251 350h237l-404 -537v-263h-200zM494 858v129h139v-129h-139zM294 858v129h139v-129h-139z" />
    <glyph glyph-name="AE.02" horiz-adv-x="1547" 
d="M668 0v175h-375l-90 -175h-213l441 800h1056v-175h-619v-143h559v-164h-559v-143h629v-175h-829zM525 625l-149 -290h292v290h-143z" />
    <glyph glyph-name="Euro.02" horiz-adv-x="1006" 
d="M743 433h-458q-1 -9 -1 -28q0 -23 3 -42h456v-110h-404q89 -94 304 -94q82 0 181.5 12t148.5 27v-172q-48 -18 -141 -30t-186 -12q-218 0 -355.5 71t-186.5 198h-104v110h79q-1 12 -1 38q0 21 1 32h-79v110h102q49 129 191.5 200.5t370.5 71.5q206 0 322 -28l-19 -176
q-164 31 -312 31q-239 0 -325 -99h413v-110z" />
    <glyph glyph-name="OE.02" horiz-adv-x="1793" 
d="M914 0v60q-137 -76 -338 -76q-154 0 -274.5 46t-193.5 142t-73 231q0 194 148.5 303.5t393.5 109.5q201 0 337 -74v58h829v-180h-629v-135h559v-170h-559v-135h629v-180h-829zM241 402q0 -123 90.5 -186.5t242.5 -63.5q154 0 244.5 64.5t90.5 191.5q0 117 -91 178.5
t-243 61.5q-153 0 -243.5 -62t-90.5 -184z" />
    <glyph glyph-name="a.02" horiz-adv-x="1078" 
d="M861 0l-75 162h-499l-74 -162h-213l391 800h306l381 -800h-217zM506 637l-144 -312h350l-143 312h-63z" />
    <glyph glyph-name="b.02" horiz-adv-x="1107" 
d="M80 0v800h677q310 0 310 -219q0 -121 -96 -172q96 -51 96 -175q0 -107 -75 -170.5t-234 -63.5h-678zM764 328h-484v-158h484q50 0 72.5 25t22.5 57q0 30 -22 53t-73 23zM764 630h-484v-158h484q50 0 72.5 22.5t22.5 52.5t-23 56.5t-72 26.5z" />
    <glyph glyph-name="c.02" horiz-adv-x="975" 
d="M942 198v-172q-48 -18 -141 -30t-186 -12q-278 0 -423 113.5t-145 303.5q0 193 149.5 303.5t436.5 110.5q206 0 322 -28l-19 -176q-164 31 -312 31q-371 0 -371 -237q0 -117 89.5 -181.5t269.5 -64.5q82 0 181.5 12t148.5 27z" />
    <glyph glyph-name="d.02" horiz-adv-x="1096" 
d="M80 0v800h553q188 0 308 -112t120 -288q0 -168 -121 -284t-307 -116h-553zM633 620h-353v-440h353q62 0 107 19t69 52t34.5 69.5t10.5 79.5q0 94 -52.5 157t-168.5 63z" />
    <glyph glyph-name="e.02" horiz-adv-x="959" 
d="M909 0h-829v800h829v-180h-629v-135h559v-170h-559v-135h629v-180z" />
    <glyph glyph-name="f.02" horiz-adv-x="949" 
d="M869 305h-589v-305h-200v800h859v-180h-659v-135h589v-180z" />
    <glyph glyph-name="g.02" horiz-adv-x="1045" 
d="M533 315v170h439v-453q-49 -18 -157.5 -33t-199.5 -15q-278 0 -423 113.5t-145 303.5q0 193 149.5 303.5t436.5 110.5q206 0 352 -35l-19 -169q-164 31 -342 31q-371 0 -371 -237q0 -117 89.5 -181.5t269.5 -64.5q71 0 164 8v148h-243z" />
    <glyph glyph-name="h.02" horiz-adv-x="1218" 
d="M934 0v305h-650v-305h-200v800h200v-305h650v305h200v-800h-200z" />
    <glyph glyph-name="i.02" 
d="M80 0v800h200v-800h-200z" />
    <glyph glyph-name="j.02" horiz-adv-x="749" 
d="M504 350v450h200v-450q0 -180 -99 -265t-325 -85h-260v188h260q131 0 177.5 39.5t46.5 122.5z" />
    <glyph glyph-name="k.02" horiz-adv-x="1033" 
d="M1033 800l-559 -387l558 -413h-304l-411 305h-37v-305h-200v800h200v-305h36l427 305h290z" />
    <glyph glyph-name="l.02" horiz-adv-x="919" 
d="M80 0v800h200v-610h619v-190h-819z" />
    <glyph glyph-name="m.02" horiz-adv-x="1416" 
d="M534 0l-211 637h-39v-637h-200v800h393l200 -637h44l213 637h398v-800h-200v637h-48l-232 -631l-1 -6h-317z" />
    <glyph glyph-name="n.02" horiz-adv-x="1228" 
d="M902 0l-568 561h-50v-561h-200v800h281l529 -505h50v505h200v-800h-242z" />
    <glyph glyph-name="o.02" horiz-adv-x="1150" 
d="M35 403q0 194 148.5 303.5t393.5 109.5q243 0 390.5 -107.5t147.5 -304.5q0 -136 -73 -232.5t-193 -142t-273 -45.5q-154 0 -274.5 46t-193.5 142t-73 231zM241 402q0 -123 90.5 -186.5t242.5 -63.5q154 0 244.5 64.5t90.5 191.5q0 117 -91 178.5t-243 61.5
q-153 0 -243.5 -62t-90.5 -184z" />
    <glyph glyph-name="p.02" horiz-adv-x="1017" 
d="M80 0v800h619q142 0 220 -78.5t78 -194.5q0 -126 -88 -204t-210 -78h-419v-245h-200zM670 620h-390v-205h390q120 0 120 107q0 40 -27 69t-93 29z" />
    <glyph glyph-name="q.02" horiz-adv-x="1150" 
d="M35 403q0 194 148.5 303.5t393.5 109.5q243 0 390.5 -107.5t147.5 -304.5q0 -176 -122 -287l135 -117h-207l-47 41q-128 -57 -298 -57q-154 0 -274.5 46t-193.5 142t-73 231zM241 402q0 -123 90.5 -186.5t242.5 -63.5q86 0 150 19l-196 172h208l113 -100q60 65 60 165
q0 117 -91 178.5t-243 61.5q-153 0 -243.5 -62t-90.5 -184z" />
    <glyph glyph-name="r.02" horiz-adv-x="1017" 
d="M81 0v800h618q142 0 220 -78.5t78 -194.5q0 -82 -39.5 -145.5t-106.5 -99.5l143 -282h-225l-111 245h-377v-245h-200zM670 620h-389v-205h389q120 0 120 107q0 40 -27 69t-93 29z" />
    <glyph glyph-name="s.02" horiz-adv-x="946" 
d="M708 223q0 24 -28.5 40t-76 23t-107.5 15t-122.5 15.5t-122.5 25t-107.5 42t-76 69t-28.5 103.5q0 123 121.5 191.5t317.5 68.5q128 0 243 -17.5t162 -44.5l-38 -170q-48 28 -156 44.5t-218 16.5q-234 0 -234 -66q0 -29 37 -47t96 -26.5t130.5 -15.5t143 -21t130.5 -37
t96 -68.5t37 -110.5q0 -115 -114.5 -192t-330.5 -77q-298 0 -407 51l8 183q131 -63 405 -63q123 0 181.5 19t58.5 49z" />
    <glyph glyph-name="t.02" horiz-adv-x="970" 
d="M960 620h-380v-620h-200v620h-370v180h950v-180z" />
    <glyph glyph-name="u.02" horiz-adv-x="1174" 
d="M902 800h200v-416q0 -168 -144 -284t-366 -116q-235 0 -377.5 102.5t-142.5 297.5v416h200v-416q0 -106 85.5 -164t234.5 -58q147 0 228.5 64.5t81.5 157.5v416z" />
    <glyph glyph-name="v.02" horiz-adv-x="1058" 
d="M1078 800l-371 -800h-336l-371 800h237l284 -637h47l277 637h233z" />
    <glyph glyph-name="w.02" horiz-adv-x="1602" 
d="M251 0l-241 800h223l173 -637h47l158 637h376l181 -637h47l150 637h227l-221 -800h-356l-184 637h-56l-168 -637h-356z" />
    <glyph glyph-name="x.02" horiz-adv-x="1059" 
d="M1079 800l-386 -401l386 -399h-262l-271 305h-33l-270 -305h-263l386 400l-386 400h263l269 -305h34l271 305h262z" />
    <glyph glyph-name="y.02" horiz-adv-x="923" 
d="M369 0v254l-419 546h233l262 -350h40l251 350h237l-404 -537v-263h-200z" />
    <glyph glyph-name="z.02" horiz-adv-x="970" 
d="M930 0h-889v159l561 461h-561v180h886v-120l-586 -500h589v-180z" />
    <glyph glyph-name="uacute.02" horiz-adv-x="1174" 
d="M671 848h-180l74 147h199zM902 800h200v-416q0 -168 -144 -284t-366 -116q-235 0 -377.5 102.5t-142.5 297.5v416h200v-416q0 -106 85.5 -164t234.5 -58q147 0 228.5 64.5t81.5 157.5v416z" />
    <glyph glyph-name="ucircumflex.02" horiz-adv-x="1174" 
d="M455 985h257l113 -137h-199l-43 93l-42 -93h-199zM902 800h200v-416q0 -168 -144 -284t-366 -116q-235 0 -377.5 102.5t-142.5 297.5v416h200v-416q0 -106 85.5 -164t234.5 -58q147 0 228.5 64.5t81.5 157.5v416z" />
    <glyph glyph-name="ugrave.02" horiz-adv-x="1174" 
d="M685 848h-180l-103 147h199zM902 800h200v-416q0 -168 -144 -284t-366 -116q-235 0 -377.5 102.5t-142.5 297.5v416h200v-416q0 -106 85.5 -164t234.5 -58q147 0 228.5 64.5t81.5 157.5v416z" />
    <glyph glyph-name="ograve.02" horiz-adv-x="1150" 
d="M664 848h-180l-103 147h199zM35 403q0 194 148.5 303.5t393.5 109.5q243 0 390.5 -107.5t147.5 -304.5q0 -136 -73 -232.5t-193 -142t-273 -45.5q-154 0 -274.5 46t-193.5 142t-73 231zM241 402q0 -123 90.5 -186.5t242.5 -63.5q154 0 244.5 64.5t90.5 191.5
q0 117 -91 178.5t-243 61.5q-153 0 -243.5 -62t-90.5 -184z" />
    <glyph glyph-name="ocircumflex.02" horiz-adv-x="1150" 
d="M452 985h257l113 -137h-199l-43 93l-42 -93h-199zM35 403q0 194 148.5 303.5t393.5 109.5q243 0 390.5 -107.5t147.5 -304.5q0 -136 -73 -232.5t-193 -142t-273 -45.5q-154 0 -274.5 46t-193.5 142t-73 231zM241 402q0 -123 90.5 -186.5t242.5 -63.5q154 0 244.5 64.5
t90.5 191.5q0 117 -91 178.5t-243 61.5q-153 0 -243.5 -62t-90.5 -184z" />
    <glyph glyph-name="oacute.02" horiz-adv-x="1150" 
d="M661 848h-180l74 147h199zM35 403q0 194 148.5 303.5t393.5 109.5q243 0 390.5 -107.5t147.5 -304.5q0 -136 -73 -232.5t-193 -142t-273 -45.5q-154 0 -274.5 46t-193.5 142t-73 231zM241 402q0 -123 90.5 -186.5t242.5 -63.5q154 0 244.5 64.5t90.5 191.5
q0 117 -91 178.5t-243 61.5q-153 0 -243.5 -62t-90.5 -184z" />
    <glyph glyph-name="otilde.02" horiz-adv-x="1150" 
d="M517 882q-47 0 -87 -20v109q33 20 84 20q23 0 64.5 -15t62.5 -15q53 0 86 20v-109q-30 -20 -85 -20q-22 0 -64 15t-61 15zM35 403q0 194 148.5 303.5t393.5 109.5q243 0 390.5 -107.5t147.5 -304.5q0 -136 -73 -232.5t-193 -142t-273 -45.5q-154 0 -274.5 46t-193.5 142
t-73 231zM241 402q0 -123 90.5 -186.5t242.5 -63.5q154 0 244.5 64.5t90.5 191.5q0 117 -91 178.5t-243 61.5q-153 0 -243.5 -62t-90.5 -184z" />
    <glyph glyph-name="odieresis.02" horiz-adv-x="1150" 
d="M402 858v129h139v-129h-139zM602 858v129h139v-129h-139zM35 403q0 194 148.5 303.5t393.5 109.5q243 0 390.5 -107.5t147.5 -304.5q0 -136 -73 -232.5t-193 -142t-273 -45.5q-154 0 -274.5 46t-193.5 142t-73 231zM241 402q0 -123 90.5 -186.5t242.5 -63.5
q154 0 244.5 64.5t90.5 191.5q0 117 -91 178.5t-243 61.5q-153 0 -243.5 -62t-90.5 -184z" />
    <glyph glyph-name="adieresis.02" horiz-adv-x="1078" 
d="M861 0l-75 162h-499l-74 -162h-213l391 800h306l381 -800h-217zM506 637l-144 -312h350l-143 312h-63zM384 858v129h139v-129h-139zM584 858v129h139v-129h-139z" />
    <glyph glyph-name="aring.02" horiz-adv-x="1078" 
d="M861 0l-75 162h-499l-74 -162h-213l391 800h306l381 -800h-217zM506 637l-144 -312h350l-143 312h-63zM420 944q0 53 37.5 84.5t93.5 31.5t93.5 -31.5t37.5 -84.5t-37.5 -84.5t-93.5 -31.5t-93.5 31.5t-37.5 84.5zM500 944q0 -23 14 -38t37 -15q22 0 36.5 15t14.5 38
t-14.5 38t-36.5 15q-23 0 -37 -15t-14 -38z" />
    <glyph glyph-name="ccedilla.02" horiz-adv-x="978" 
d="M710 -92q0 -49 -35.5 -78.5t-100.5 -29.5h-44v114h25q18 0 30 9t12 26q0 20 -26 36q-256 10 -388.5 122t-132.5 294q0 193 149.5 303.5t436.5 110.5q206 0 322 -28l-19 -176q-164 31 -312 31q-371 0 -371 -237q0 -117 89.5 -181.5t269.5 -64.5q82 0 181.5 12t148.5 27
v-172q-90 -34 -273 -41q38 -33 38 -77z" />
    <glyph glyph-name="eacute.02" horiz-adv-x="959" 
d="M909 0h-829v800h829v-180h-629v-135h559v-170h-559v-135h629v-180zM582 848h-180l74 147h199z" />
    <glyph glyph-name="udieresis.02" horiz-adv-x="1174" 
d="M420 858v129h139v-129h-139zM620 858v129h139v-129h-139zM902 800h200v-416q0 -168 -144 -284t-366 -116q-235 0 -377.5 102.5t-142.5 297.5v416h200v-416q0 -106 85.5 -164t234.5 -58q147 0 228.5 64.5t81.5 157.5v416z" />
    <glyph glyph-name="agrave.02" horiz-adv-x="1078" 
d="M861 0l-75 162h-499l-74 -162h-213l391 800h306l381 -800h-217zM506 637l-144 -312h350l-143 312h-63zM642 848h-180l-103 147h199z" />
    <glyph glyph-name="aacute.02" horiz-adv-x="1078" 
d="M861 0l-75 162h-499l-74 -162h-213l391 800h306l381 -800h-217zM506 637l-144 -312h350l-143 312h-63zM634 848h-180l74 147h199z" />
    <glyph glyph-name="acircumflex.02" horiz-adv-x="1078" 
d="M861 0l-75 162h-499l-74 -162h-213l391 800h306l381 -800h-217zM506 637l-144 -312h350l-143 312h-63zM413 985h257l113 -137h-199l-43 93l-42 -93h-199z" />
    <glyph glyph-name="atilde.02" horiz-adv-x="1078" 
d="M861 0l-75 162h-499l-74 -162h-213l391 800h306l381 -800h-217zM506 637l-144 -312h350l-143 312h-63zM486 882q-47 0 -87 -20v109q33 20 84 20q23 0 64.5 -15t62.5 -15q54 0 86 20v-109q-30 -20 -85 -20q-23 0 -64 15t-61 15z" />
    <glyph glyph-name="egrave.02" horiz-adv-x="959" 
d="M909 0h-829v800h829v-180h-629v-135h559v-170h-559v-135h629v-180zM617 848h-180l-103 147h199z" />
    <glyph glyph-name="edieresis.02" horiz-adv-x="959" 
d="M909 0h-829v800h829v-180h-629v-135h559v-170h-559v-135h629v-180zM352 858v129h139v-129h-139zM552 858v129h139v-129h-139z" />
    <glyph glyph-name="ecircumflex.02" horiz-adv-x="959" 
d="M909 0h-829v800h829v-180h-629v-135h559v-170h-559v-135h629v-180zM372 985h257l113 -137h-199l-43 93l-42 -93h-199z" />
    <glyph glyph-name="iacute.02" 
d="M271 848h-180l74 147h199zM80 0v800h200v-800h-200z" />
    <glyph glyph-name="igrave.02" 
d="M274 848h-180l-103 147h199zM80 0v800h200v-800h-200z" />
    <glyph glyph-name="icircumflex.02" 
d="M54 985h257l113 -137h-199l-43 93l-42 -93h-199zM80 0v800h200v-800h-200z" />
    <glyph glyph-name="idieresis.02" 
d="M13 858v129h139v-129h-139zM213 858v129h139v-129h-139zM80 0v800h200v-800h-200z" />
    <glyph glyph-name="ntilde.02" horiz-adv-x="1228" 
d="M553 882q-47 0 -87 -20v109q33 20 84 20q23 0 64.5 -15t62.5 -15q53 0 86 20v-109q-30 -20 -85 -20q-22 0 -64 15t-61 15zM902 0l-568 561h-50v-561h-200v800h281l529 -505h50v505h200v-800h-242z" />
    <glyph glyph-name="oe.02" horiz-adv-x="1793" 
d="M914 0v60q-137 -76 -338 -76q-154 0 -274.5 46t-193.5 142t-73 231q0 194 148.5 303.5t393.5 109.5q201 0 337 -74v58h829v-180h-629v-135h559v-170h-559v-135h629v-180h-829zM241 402q0 -123 90.5 -186.5t242.5 -63.5q154 0 244.5 64.5t90.5 191.5q0 117 -91 178.5
t-243 61.5q-153 0 -243.5 -62t-90.5 -184z" />
    <glyph glyph-name="ae.02" horiz-adv-x="1547" 
d="M668 0v175h-375l-90 -175h-213l441 800h1056v-175h-619v-143h559v-164h-559v-143h629v-175h-829zM525 625l-149 -290h292v290h-143z" />
    <glyph glyph-name="oslash.02" horiz-adv-x="1150" 
d="M35 403q0 194 148.5 303.5t393.5 109.5q184 0 316 -63l71 63h151l-133 -119q133 -109 133 -293q0 -136 -73 -232.5t-193 -142t-273 -45.5q-184 0 -317 65l-73 -65h-151l136 122q-136 110 -136 297zM241 402q0 -108 70 -170l436 390q-75 26 -172 26q-153 0 -243.5 -62
t-90.5 -184zM909 408q0 100 -70 161l-436 -391q75 -26 171 -26q154 0 244.5 64.5t90.5 191.5z" />
    <glyph glyph-name="germandbls.02" horiz-adv-x="1873" 
d="M708 223q0 24 -28.5 40t-76 23t-107.5 15t-122.5 15.5t-122.5 25t-107.5 42t-76 69t-28.5 103.5q0 123 121.5 191.5t317.5 68.5q128 0 243 -17.5t162 -44.5l-38 -170q-48 28 -156 44.5t-218 16.5q-234 0 -234 -66q0 -29 37 -47t96 -26.5t130.5 -15.5t143 -21t130.5 -37
t96 -68.5t37 -110.5q0 -115 -114.5 -192t-330.5 -77q-298 0 -407 51l8 183q131 -63 405 -63q123 0 181.5 19t58.5 49zM1635 223q0 24 -28.5 40t-76 23t-107.5 15t-122.5 15.5t-122.5 25t-107.5 42t-76 69t-28.5 103.5q0 123 121.5 191.5t317.5 68.5q128 0 243 -17.5
t162 -44.5l-38 -170q-48 28 -156 44.5t-218 16.5q-234 0 -234 -66q0 -29 37 -47t96 -26.5t130.5 -15.5t143 -21t130.5 -37t96 -68.5t37 -110.5q0 -115 -114.5 -192t-330.5 -77q-298 0 -407 51l8 183q131 -63 405 -63q123 0 181.5 19t58.5 49z" />
    <glyph glyph-name="Z.02" horiz-adv-x="970" 
d="M930 0h-889v159l561 461h-561v180h886v-120l-586 -500h589v-180z" />
    <glyph glyph-name="A.01" horiz-adv-x="950" 
d="M732 0l-62 158h-396l-65 -158h-213l356 800h256l341 -800h-217zM470 637l-129 -316h266l-124 316h-13z" />
    <glyph glyph-name="B.01" horiz-adv-x="936" 
d="M80 0v800h507q310 0 310 -219q0 -121 -96 -172q96 -51 96 -175q0 -107 -75 -170.5t-234 -63.5h-508zM594 331h-314v-161h314q50 0 72.5 25t22.5 57q0 30 -22 54.5t-73 24.5zM594 630h-314v-160h314q50 0 72.5 23.5t22.5 53.5t-23 56.5t-72 26.5z" />
    <glyph glyph-name="C.01" horiz-adv-x="829" 
d="M801 197v-178q-90 -35 -267 -35q-229 0 -361 118t-132 299q0 184 136 299t375 115q174 0 262 -25l-19 -179q-112 28 -245 28q-152 0 -227.5 -62t-75.5 -174q0 -113 78 -176.5t222 -63.5q149 0 254 34z" />
    <glyph glyph-name="D.01" horiz-adv-x="961" 
d="M80 0v800h428q179 0 298.5 -112.5t119.5 -287.5q0 -167 -121 -283.5t-297 -116.5h-428zM508 620h-228v-440h228q57 0 100 19t67.5 51.5t36.5 70t12 79.5q0 91 -54.5 155.5t-161.5 64.5z" />
    <glyph glyph-name="E.01" horiz-adv-x="826" 
d="M779 0h-699v800h699v-180h-499v-135h429v-170h-429v-135h499v-180z" />
    <glyph glyph-name="F.01" horiz-adv-x="813" 
d="M739 305h-459v-305h-200v800h729v-180h-529v-135h459v-180z" />
    <glyph glyph-name="G.01" horiz-adv-x="931" 
d="M486 300v170h379v-431q-48 -23 -136.5 -39t-181.5 -16q-235 0 -371.5 110.5t-136.5 304.5q0 188 136 302.5t382 114.5q196 0 314 -46l-16 -174q-119 44 -300 44q-310 0 -310 -236q0 -120 76.5 -182.5t228.5 -62.5q56 0 119 6v135h-183z" />
    <glyph glyph-name="H.01" horiz-adv-x="1093" 
d="M809 0v305h-525v-305h-200v800h200v-305h525v305h200v-800h-200z" />
    <glyph glyph-name="I.01" 
d="M80 0v800h200v-800h-200z" />
    <glyph glyph-name="J.01" horiz-adv-x="624" 
d="M379 350v450h200v-450q0 -180 -99 -265t-325 -85h-135v188h135q131 0 177.5 39.5t46.5 122.5z" />
    <glyph glyph-name="K.01" horiz-adv-x="912" 
d="M908 800l-432 -385l431 -415h-278l-319 312h-30v-312h-200v800h200v-312h30l334 312h264z" />
    <glyph glyph-name="L.01" horiz-adv-x="788" 
d="M80 0v800h200v-610h489v-190h-689z" />
    <glyph glyph-name="M.01" horiz-adv-x="1286" 
d="M487 0l-203 569v-569h-200v800h312l233 -637h18l246 637h309v-800h-200v581l-234 -581h-281z" />
    <glyph glyph-name="N.01" horiz-adv-x="1098" 
d="M788 0l-474 512h-30v-512h-200v800h234l466 -500h30v500h200v-800h-226z" />
    <glyph glyph-name="O.01" horiz-adv-x="1020" 
d="M35 403q0 193 131 303t346 110q213 0 343 -107.5t130 -304.5q0 -136 -65 -232.5t-170.5 -142t-238.5 -45.5q-99 0 -185 27t-151 78t-102.5 132t-37.5 182zM241 402q0 -122 73.5 -186t194.5 -64q123 0 196.5 64.5t73.5 191.5q0 116 -74 178t-195 62q-122 0 -195.5 -62
t-73.5 -184z" />
    <glyph glyph-name="P.01" horiz-adv-x="885" 
d="M80 0v800h499q135 0 209 -78.5t74 -194.5q0 -126 -84.5 -204t-198.5 -78h-299v-245h-200zM540 620h-260v-205h260q61 0 88 31t27 76q0 38 -27.5 68t-87.5 30z" />
    <glyph glyph-name="Q.01" horiz-adv-x="1020" 
d="M35 403q0 193 131 303t346 110q213 0 343 -107.5t130 -304.5q0 -176 -106 -285l116 -119h-207l-33 33q-105 -49 -244 -49q-99 0 -185 27t-151 78t-102.5 132t-37.5 182zM241 402q0 -122 73.5 -186t194.5 -64q66 0 114 17l-170 174h208l80 -83q38 60 38 148q0 116 -74 178
t-195 62q-122 0 -195.5 -62t-73.5 -184z" />
    <glyph glyph-name="R.01" horiz-adv-x="901" 
d="M81 0v800h499q135 0 209 -78.5t74 -194.5q0 -84 -39 -148t-104 -99l141 -280h-225l-111 245h-244v-245h-200zM541 620h-260v-205h260q61 0 88 31t27 76q0 38 -27.5 68t-87.5 30z" />
    <glyph glyph-name="S.01" horiz-adv-x="812" 
d="M578 223q0 23 -23 39t-61 24.5t-86.5 18t-99 18t-99 27t-86.5 43t-61 66.5t-23 97q0 123 104 191.5t270 68.5q102 0 197.5 -17.5t142.5 -44.5l-38 -170q-48 29 -135.5 45t-173.5 16q-169 0 -169 -66q0 -32 40 -52t100 -28.5t130 -24t130 -36.5t100 -68.5t40 -116.5
q0 -115 -98 -192t-282 -77q-233 0 -342 51l8 183q131 -63 340 -63q175 0 175 68z" />
    <glyph glyph-name="T.01" horiz-adv-x="840" 
d="M833 620h-315v-620h-200v620h-310v180h825v-180z" />
    <glyph glyph-name="U.01" horiz-adv-x="1039" 
d="M767 800h200v-416q0 -168 -126 -284t-319 -116q-204 0 -327 102.5t-123 297.5v416h200v-416q0 -106 65.5 -161.5t184.5 -55.5q116 0 180.5 62.5t64.5 154.5v416z" />
    <glyph glyph-name="V.01" horiz-adv-x="933" 
d="M948 800l-346 -800h-271l-336 800h229l247 -635l257 635h220z" />
    <glyph glyph-name="W.01" horiz-adv-x="1426" 
d="M393 163l174 637h288l180 -637h3l162 637h217l-235 -800h-284l-189 627l-181 -627h-283l-236 800h218l165 -637h1z" />
    <glyph glyph-name="X.01" horiz-adv-x="924" 
d="M944 800l-346 -401l346 -399h-254l-227 288l-227 -288h-256l346 400l-346 400h256l226 -289l228 289h254z" />
    <glyph glyph-name="Y.01" horiz-adv-x="856" 
d="M327 0v262l-362 538h230l221 -350h23l229 350h223l-364 -534v-266h-200z" />
    <glyph glyph-name="Z.01" horiz-adv-x="842" 
d="M800 0h-759v159l457 461h-457v180h756v-120l-479 -500h482v-180z" />
    <glyph glyph-name="Aacute.01" horiz-adv-x="950" 
d="M732 0l-62 158h-396l-65 -158h-213l356 800h256l341 -800h-217zM470 637l-129 -316h266l-124 316h-13zM570 848h-180l74 147h199z" />
    <glyph glyph-name="Acircumflex.01" horiz-adv-x="950" 
d="M732 0l-62 158h-396l-65 -158h-213l356 800h256l341 -800h-217zM348 985h257l113 -137h-199l-43 93l-42 -93h-199zM470 637l-129 -316h266l-124 316h-13z" />
    <glyph glyph-name="Adieresis.01" horiz-adv-x="950" 
d="M732 0l-62 158h-396l-65 -158h-213l356 800h256l341 -800h-217zM470 637l-129 -316h266l-124 316h-13zM515 858v129h139v-129h-139zM315 858v129h139v-129h-139z" />
    <glyph glyph-name="Aring.01" horiz-adv-x="950" 
d="M732 0l-62 158h-396l-65 -158h-213l356 800h256l341 -800h-217zM351 944q0 53 37.5 84.5t93.5 31.5t93.5 -31.5t37.5 -84.5t-37.5 -84.5t-93.5 -31.5t-93.5 31.5t-37.5 84.5zM470 637l-129 -316h266l-124 316h-13zM431 944q0 -23 14 -38t37 -15q22 0 36.5 15t14.5 38
t-14.5 38t-36.5 15q-23 0 -37 -15t-14 -38z" />
    <glyph glyph-name="Agrave.01" horiz-adv-x="950" 
d="M732 0l-62 158h-396l-65 -158h-213l356 800h256l341 -800h-217zM470 637l-129 -316h266l-124 316h-13zM577 848h-180l-103 147h199z" />
    <glyph glyph-name="Atilde.01" horiz-adv-x="950" 
d="M732 0l-62 158h-396l-65 -158h-213l356 800h256l341 -800h-217zM470 637l-129 -316h266l-124 316h-13zM419 882q-47 0 -87 -20v109q33 20 84 20q23 0 64.5 -15t62.5 -15q53 0 86 20v-109q-30 -20 -85 -20q-22 0 -64 15t-61 15z" />
    <glyph glyph-name="Ccedilla.01" horiz-adv-x="854" 
d="M618 -92q0 -49 -35.5 -78.5t-100.5 -29.5h-44v114h25q18 0 30 9t12 26q0 23 -29 38q-200 18 -313 132.5t-113 281.5q0 184 136 299t375 115q175 0 262 -25l-19 -179q-112 28 -245 28q-152 0 -227.5 -62t-75.5 -174q0 -113 78 -176.5t222 -63.5q149 0 254 34v-178
q-80 -31 -230 -34q38 -31 38 -77z" />
    <glyph glyph-name="Eacute.01" horiz-adv-x="826" 
d="M779 0h-699v800h699v-180h-499v-135h429v-170h-429v-135h499v-180zM522 848h-180l74 147h199z" />
    <glyph glyph-name="Ecircumflex.01" horiz-adv-x="826" 
d="M779 0h-699v800h699v-180h-499v-135h429v-170h-429v-135h499v-180zM307 985h257l113 -137h-199l-43 93l-42 -93h-199z" />
    <glyph glyph-name="Edieresis.01" horiz-adv-x="826" 
d="M779 0h-699v800h699v-180h-499v-135h429v-170h-429v-135h499v-180zM282 858v129h139v-129h-139zM482 858v129h139v-129h-139z" />
    <glyph glyph-name="Egrave.01" horiz-adv-x="826" 
d="M779 0h-699v800h699v-180h-499v-135h429v-170h-429v-135h499v-180zM557 848h-180l-103 147h199z" />
    <glyph glyph-name="Iacute.01" 
d="M271 848h-180l74 147h199zM80 0v800h200v-800h-200z" />
    <glyph glyph-name="Icircumflex.01" 
d="M54 985h257l113 -137h-199l-43 93l-42 -93h-199zM80 0v800h200v-800h-200z" />
    <glyph glyph-name="Idieresis.01" 
d="M13 858v129h139v-129h-139zM213 858v129h139v-129h-139zM80 0v800h200v-800h-200z" />
    <glyph glyph-name="Igrave.01" 
d="M274 848h-180l-103 147h199zM80 0v800h200v-800h-200z" />
    <glyph glyph-name="Ntilde.01" horiz-adv-x="1096" 
d="M487 882q-47 0 -87 -20v109q33 20 84 20q23 0 64.5 -15t62.5 -15q53 0 86 20v-109q-30 -20 -85 -20q-22 0 -63.5 15t-61.5 15zM761 0l-474 512h-30v-512h-200v800h234l466 -500h30v500h200v-800h-226z" />
    <glyph glyph-name="Ograve.01" horiz-adv-x="1020" 
d="M610 848h-180l-103 147h199zM35 403q0 193 131 303t346 110q213 0 343 -107.5t130 -304.5q0 -136 -65 -232.5t-170.5 -142t-238.5 -45.5q-99 0 -185 27t-151 78t-102.5 132t-37.5 182zM241 402q0 -122 73.5 -186t194.5 -64q123 0 196.5 64.5t73.5 191.5q0 116 -74 178
t-195 62q-122 0 -195.5 -62t-73.5 -184z" />
    <glyph glyph-name="Odieresis.01" horiz-adv-x="1020" 
d="M339 858v129h139v-129h-139zM539 858v129h139v-129h-139zM35 403q0 193 131 303t346 110q213 0 343 -107.5t130 -304.5q0 -136 -65 -232.5t-170.5 -142t-238.5 -45.5q-99 0 -185 27t-151 78t-102.5 132t-37.5 182zM241 402q0 -122 73.5 -186t194.5 -64q123 0 196.5 64.5
t73.5 191.5q0 116 -74 178t-195 62q-122 0 -195.5 -62t-73.5 -184z" />
    <glyph glyph-name="Otilde.01" horiz-adv-x="1020" 
d="M450 882q-47 0 -87 -20v109q33 20 84 20q23 0 64.5 -15t62.5 -15q54 0 86 20v-109q-30 -20 -85 -20q-23 0 -64 15t-61 15zM35 403q0 193 131 303t346 110q213 0 343 -107.5t130 -304.5q0 -136 -65 -232.5t-170.5 -142t-238.5 -45.5q-99 0 -185 27t-151 78t-102.5 132
t-37.5 182zM241 402q0 -122 73.5 -186t194.5 -64q123 0 196.5 64.5t73.5 191.5q0 116 -74 178t-195 62q-122 0 -195.5 -62t-73.5 -184z" />
    <glyph glyph-name="Oacute.01" horiz-adv-x="1020" 
d="M587 848h-180l74 147h199zM35 403q0 193 131 303t346 110q213 0 343 -107.5t130 -304.5q0 -136 -65 -232.5t-170.5 -142t-238.5 -45.5q-99 0 -185 27t-151 78t-102.5 132t-37.5 182zM241 402q0 -122 73.5 -186t194.5 -64q123 0 196.5 64.5t73.5 191.5q0 116 -74 178
t-195 62q-122 0 -195.5 -62t-73.5 -184z" />
    <glyph glyph-name="Ocircumflex.01" horiz-adv-x="1020" 
d="M384 985h257l113 -137h-199l-43 93l-42 -93h-199zM35 403q0 193 131 303t346 110q213 0 343 -107.5t130 -304.5q0 -136 -65 -232.5t-170.5 -142t-238.5 -45.5q-99 0 -185 27t-151 78t-102.5 132t-37.5 182zM241 402q0 -122 73.5 -186t194.5 -64q123 0 196.5 64.5
t73.5 191.5q0 116 -74 178t-195 62q-122 0 -195.5 -62t-73.5 -184z" />
    <glyph glyph-name="Oslash.01" horiz-adv-x="1020" 
d="M35 403q0 193 131 303t346 110q154 0 267 -57l55 57h151l-116 -121q116 -108 116 -291q0 -136 -65 -232.5t-170.5 -142t-238.5 -45.5q-153 0 -267 60l-58 -60h-151l119 124q-119 111 -119 295zM241 402q0 -95 45 -156l361 376q-60 26 -137 26q-122 0 -195.5 -62
t-73.5 -184zM779 408q0 88 -45 147l-362 -377q61 -26 137 -26q123 0 196.5 64.5t73.5 191.5z" />
    <glyph glyph-name="Uacute.01" horiz-adv-x="1039" 
d="M595 848h-180l74 147h199zM767 800h200v-416q0 -168 -126 -284t-319 -116q-204 0 -327 102.5t-123 297.5v416h200v-416q0 -106 65.5 -161.5t184.5 -55.5q116 0 180.5 62.5t64.5 154.5v416z" />
    <glyph glyph-name="Ucircumflex.01" horiz-adv-x="1039" 
d="M390 985h257l113 -137h-199l-43 93l-42 -93h-199zM767 800h200v-416q0 -168 -126 -284t-319 -116q-204 0 -327 102.5t-123 297.5v416h200v-416q0 -106 65.5 -161.5t184.5 -55.5q116 0 180.5 62.5t64.5 154.5v416z" />
    <glyph glyph-name="Ugrave.01" horiz-adv-x="1039" 
d="M622 848h-180l-103 147h199zM767 800h200v-416q0 -168 -126 -284t-319 -116q-204 0 -327 102.5t-123 297.5v416h200v-416q0 -106 65.5 -161.5t184.5 -55.5q116 0 180.5 62.5t64.5 154.5v416z" />
    <glyph glyph-name="Udieresis.01" horiz-adv-x="1039" 
d="M352 858v129h139v-129h-139zM552 858v129h139v-129h-139zM767 800h200v-416q0 -168 -126 -284t-319 -116q-204 0 -327 102.5t-123 297.5v416h200v-416q0 -106 65.5 -161.5t184.5 -55.5q116 0 180.5 62.5t64.5 154.5v416z" />
    <glyph glyph-name="Ydieresis.01" horiz-adv-x="846" 
d="M322 0v262l-362 538h230l221 -350h23l229 350h223l-364 -534v-266h-200zM468 858v129h139v-129h-139zM268 858v129h139v-129h-139z" />
    <glyph glyph-name="AE.01" horiz-adv-x="1361" 
d="M602 0v175h-310l-90 -175h-214l442 800h876v-175h-504v-143h444v-164h-444v-143h514v-175h-714zM524 625l-149 -290h227v290h-78z" />
    <glyph glyph-name="Euro.01" horiz-adv-x="907" 
d="M683 433h-383q-1 -10 -1 -30q0 -14 2 -40h382v-110h-337q72 -92 251 -92q71 0 146 11t117 28l1 -174q-100 -42 -276 -42q-183 0 -304.5 71.5t-165.5 197.5h-95v110h72q-1 11 -1 35q0 23 1 35h-72v110h94q45 128 170 200.5t314 72.5q177 0 273 -33l-14 -176
q-117 33 -255 33q-190 0 -262 -97h343v-110z" />
    <glyph glyph-name="OE.01" horiz-adv-x="1530" 
d="M35 403q0 193 131 303t346 110q155 0 272 -60v44h699v-180h-499v-135h429v-170h-429v-135h499v-180h-699v48q-116 -64 -273 -64q-99 0 -185 27t-151 78t-102.5 132t-37.5 182zM241 402q0 -122 73.5 -186t194.5 -64q123 0 196.5 64.5t73.5 191.5q0 116 -74 178t-195 62
q-122 0 -195.5 -62t-73.5 -184z" />
    <glyph glyph-name="a.01" horiz-adv-x="950" 
d="M732 0l-62 158h-396l-65 -158h-213l356 800h256l341 -800h-217zM470 637l-129 -316h266l-124 316h-13z" />
    <glyph glyph-name="b.01" horiz-adv-x="936" 
d="M80 0v800h507q310 0 310 -219q0 -121 -96 -172q96 -51 96 -175q0 -107 -75 -170.5t-234 -63.5h-508zM594 331h-314v-161h314q50 0 72.5 25t22.5 57q0 30 -22 54.5t-73 24.5zM594 630h-314v-160h314q50 0 72.5 23.5t22.5 53.5t-23 56.5t-72 26.5z" />
    <glyph glyph-name="c.01" horiz-adv-x="829" 
d="M801 197v-178q-90 -35 -267 -35q-229 0 -361 118t-132 299q0 184 136 299t375 115q174 0 262 -25l-19 -179q-112 28 -245 28q-152 0 -227.5 -62t-75.5 -174q0 -113 78 -176.5t222 -63.5q149 0 254 34z" />
    <glyph glyph-name="d.01" horiz-adv-x="961" 
d="M80 0v800h428q179 0 298.5 -112.5t119.5 -287.5q0 -167 -121 -283.5t-297 -116.5h-428zM508 620h-228v-440h228q57 0 100 19t67.5 51.5t36.5 70t12 79.5q0 91 -54.5 155.5t-161.5 64.5z" />
    <glyph glyph-name="e.01" horiz-adv-x="826" 
d="M779 0h-699v800h699v-180h-499v-135h429v-170h-429v-135h499v-180z" />
    <glyph glyph-name="f.01" horiz-adv-x="813" 
d="M739 305h-459v-305h-200v800h729v-180h-529v-135h459v-180z" />
    <glyph glyph-name="g.01" horiz-adv-x="931" 
d="M486 300v170h379v-431q-48 -23 -136.5 -39t-181.5 -16q-235 0 -371.5 110.5t-136.5 304.5q0 188 136 302.5t382 114.5q196 0 314 -46l-16 -174q-119 44 -300 44q-310 0 -310 -236q0 -120 76.5 -182.5t228.5 -62.5q56 0 119 6v135h-183z" />
    <glyph glyph-name="h.01" horiz-adv-x="1093" 
d="M809 0v305h-525v-305h-200v800h200v-305h525v305h200v-800h-200z" />
    <glyph glyph-name="i.01" 
d="M80 0v800h200v-800h-200z" />
    <glyph glyph-name="j.01" horiz-adv-x="624" 
d="M379 350v450h200v-450q0 -180 -99 -265t-325 -85h-135v188h135q131 0 177.5 39.5t46.5 122.5z" />
    <glyph glyph-name="k.01" horiz-adv-x="912" 
d="M908 800l-432 -385l431 -415h-278l-319 312h-30v-312h-200v800h200v-312h30l334 312h264z" />
    <glyph glyph-name="l.01" horiz-adv-x="788" 
d="M80 0v800h200v-610h489v-190h-689z" />
    <glyph glyph-name="m.01" horiz-adv-x="1286" 
d="M487 0l-203 569v-569h-200v800h312l233 -637h18l246 637h309v-800h-200v581l-234 -581h-281z" />
    <glyph glyph-name="n.01" horiz-adv-x="1098" 
d="M788 0l-474 512h-30v-512h-200v800h234l466 -500h30v500h200v-800h-226z" />
    <glyph glyph-name="o.01" horiz-adv-x="1020" 
d="M35 403q0 193 131 303t346 110q213 0 343 -107.5t130 -304.5q0 -136 -65 -232.5t-170.5 -142t-238.5 -45.5q-99 0 -185 27t-151 78t-102.5 132t-37.5 182zM241 402q0 -122 73.5 -186t194.5 -64q123 0 196.5 64.5t73.5 191.5q0 116 -74 178t-195 62q-122 0 -195.5 -62
t-73.5 -184z" />
    <glyph glyph-name="p.01" horiz-adv-x="885" 
d="M80 0v800h499q135 0 209 -78.5t74 -194.5q0 -126 -84.5 -204t-198.5 -78h-299v-245h-200zM540 620h-260v-205h260q61 0 88 31t27 76q0 38 -27.5 68t-87.5 30z" />
    <glyph glyph-name="q.01" horiz-adv-x="1020" 
d="M35 403q0 193 131 303t346 110q213 0 343 -107.5t130 -304.5q0 -177 -109 -288l114 -116h-202l-33 33q-105 -49 -244 -49q-99 0 -185 27t-151 78t-102.5 132t-37.5 182zM241 402q0 -122 73.5 -186t194.5 -64q66 0 114 17l-170 174h203l84 -86q39 61 39 151q0 116 -74 178
t-195 62q-122 0 -195.5 -62t-73.5 -184z" />
    <glyph glyph-name="r.01" horiz-adv-x="901" 
d="M81 0v800h499q135 0 209 -78.5t74 -194.5q0 -84 -39 -148t-104 -99l141 -280h-225l-111 245h-244v-245h-200zM541 620h-260v-205h260q61 0 88 31t27 76q0 38 -27.5 68t-87.5 30z" />
    <glyph glyph-name="s.01" horiz-adv-x="812" 
d="M578 223q0 23 -23 39t-61 24.5t-86.5 18t-99 18t-99 27t-86.5 43t-61 66.5t-23 97q0 123 104 191.5t270 68.5q102 0 197.5 -17.5t142.5 -44.5l-38 -170q-48 29 -135.5 45t-173.5 16q-169 0 -169 -66q0 -32 40 -52t100 -28.5t130 -24t130 -36.5t100 -68.5t40 -116.5
q0 -115 -98 -192t-282 -77q-233 0 -342 51l8 183q131 -63 340 -63q175 0 175 68z" />
    <glyph glyph-name="t.01" horiz-adv-x="840" 
d="M833 620h-315v-620h-200v620h-310v180h825v-180z" />
    <glyph glyph-name="u.01" horiz-adv-x="1039" 
d="M767 800h200v-416q0 -168 -126 -284t-319 -116q-204 0 -327 102.5t-123 297.5v416h200v-416q0 -106 65.5 -161.5t184.5 -55.5q116 0 180.5 62.5t64.5 154.5v416z" />
    <glyph glyph-name="v.01" horiz-adv-x="933" 
d="M948 800l-346 -800h-271l-336 800h229l247 -635l257 635h220z" />
    <glyph glyph-name="w.01" horiz-adv-x="1421" 
d="M393 163l174 637h288l180 -637h3l162 637h217l-235 -800h-284l-189 627l-181 -627h-283l-236 800h218l165 -637h1z" />
    <glyph glyph-name="x.01" horiz-adv-x="924" 
d="M944 800l-346 -401l346 -399h-254l-227 288l-227 -288h-256l346 400l-346 400h256l226 -289l228 289h254z" />
    <glyph glyph-name="y.01" horiz-adv-x="856" 
d="M327 0v262l-362 538h230l221 -350h23l229 350h223l-364 -534v-266h-200z" />
    <glyph glyph-name="z.01" horiz-adv-x="932" 
d="M800 0h-759v159l457 461h-457v180h756v-120l-479 -500h482v-180z" />
    <glyph glyph-name="uacute.01" horiz-adv-x="1039" 
d="M595 848h-180l74 147h199zM767 800h200v-416q0 -168 -126 -284t-319 -116q-204 0 -327 102.5t-123 297.5v416h200v-416q0 -106 65.5 -161.5t184.5 -55.5q116 0 180.5 62.5t64.5 154.5v416z" />
    <glyph glyph-name="ucircumflex.01" horiz-adv-x="1039" 
d="M390 985h257l113 -137h-199l-43 93l-42 -93h-199zM767 800h200v-416q0 -168 -126 -284t-319 -116q-204 0 -327 102.5t-123 297.5v416h200v-416q0 -106 65.5 -161.5t184.5 -55.5q116 0 180.5 62.5t64.5 154.5v416z" />
    <glyph glyph-name="ugrave.01" horiz-adv-x="1039" 
d="M622 848h-180l-103 147h199zM767 800h200v-416q0 -168 -126 -284t-319 -116q-204 0 -327 102.5t-123 297.5v416h200v-416q0 -106 65.5 -161.5t184.5 -55.5q116 0 180.5 62.5t64.5 154.5v416z" />
    <glyph glyph-name="ograve.01" horiz-adv-x="1020" 
d="M610 848h-180l-103 147h199zM35 403q0 193 131 303t346 110q213 0 343 -107.5t130 -304.5q0 -136 -65 -232.5t-170.5 -142t-238.5 -45.5q-99 0 -185 27t-151 78t-102.5 132t-37.5 182zM241 402q0 -122 73.5 -186t194.5 -64q123 0 196.5 64.5t73.5 191.5q0 116 -74 178
t-195 62q-122 0 -195.5 -62t-73.5 -184z" />
    <glyph glyph-name="ocircumflex.01" horiz-adv-x="1020" 
d="M384 985h257l113 -137h-199l-43 93l-42 -93h-199zM35 403q0 193 131 303t346 110q213 0 343 -107.5t130 -304.5q0 -136 -65 -232.5t-170.5 -142t-238.5 -45.5q-99 0 -185 27t-151 78t-102.5 132t-37.5 182zM241 402q0 -122 73.5 -186t194.5 -64q123 0 196.5 64.5
t73.5 191.5q0 116 -74 178t-195 62q-122 0 -195.5 -62t-73.5 -184z" />
    <glyph glyph-name="oacute.01" horiz-adv-x="1020" 
d="M587 848h-180l74 147h199zM35 403q0 193 131 303t346 110q213 0 343 -107.5t130 -304.5q0 -136 -65 -232.5t-170.5 -142t-238.5 -45.5q-99 0 -185 27t-151 78t-102.5 132t-37.5 182zM241 402q0 -122 73.5 -186t194.5 -64q123 0 196.5 64.5t73.5 191.5q0 116 -74 178
t-195 62q-122 0 -195.5 -62t-73.5 -184z" />
    <glyph glyph-name="otilde.01" horiz-adv-x="1020" 
d="M450 882q-47 0 -87 -20v109q33 20 84 20q23 0 64.5 -15t62.5 -15q54 0 86 20v-109q-30 -20 -85 -20q-23 0 -64 15t-61 15zM35 403q0 193 131 303t346 110q213 0 343 -107.5t130 -304.5q0 -136 -65 -232.5t-170.5 -142t-238.5 -45.5q-99 0 -185 27t-151 78t-102.5 132
t-37.5 182zM241 402q0 -122 73.5 -186t194.5 -64q123 0 196.5 64.5t73.5 191.5q0 116 -74 178t-195 62q-122 0 -195.5 -62t-73.5 -184z" />
    <glyph glyph-name="odieresis.01" horiz-adv-x="1020" 
d="M339 858v129h139v-129h-139zM539 858v129h139v-129h-139zM35 403q0 193 131 303t346 110q213 0 343 -107.5t130 -304.5q0 -136 -65 -232.5t-170.5 -142t-238.5 -45.5q-99 0 -185 27t-151 78t-102.5 132t-37.5 182zM241 402q0 -122 73.5 -186t194.5 -64q123 0 196.5 64.5
t73.5 191.5q0 116 -74 178t-195 62q-122 0 -195.5 -62t-73.5 -184z" />
    <glyph glyph-name="adieresis.01" horiz-adv-x="950" 
d="M732 0l-62 158h-396l-65 -158h-213l356 800h256l341 -800h-217zM470 637l-129 -316h266l-124 316h-13zM515 858v129h139v-129h-139zM315 858v129h139v-129h-139z" />
    <glyph glyph-name="aring.01" horiz-adv-x="950" 
d="M732 0l-62 158h-396l-65 -158h-213l356 800h256l341 -800h-217zM351 944q0 53 37.5 84.5t93.5 31.5t93.5 -31.5t37.5 -84.5t-37.5 -84.5t-93.5 -31.5t-93.5 31.5t-37.5 84.5zM470 637l-129 -316h266l-124 316h-13zM431 944q0 -23 14 -38t37 -15q22 0 36.5 15t14.5 38
t-14.5 38t-36.5 15q-23 0 -37 -15t-14 -38z" />
    <glyph glyph-name="ccedilla.01" horiz-adv-x="854" 
d="M618 -92q0 -49 -35.5 -78.5t-100.5 -29.5h-44v114h25q18 0 30 9t12 26q0 23 -29 38q-200 18 -313 132.5t-113 281.5q0 184 136 299t375 115q175 0 262 -25l-19 -179q-112 28 -245 28q-152 0 -227.5 -62t-75.5 -174q0 -113 78 -176.5t222 -63.5q149 0 254 34v-178
q-80 -31 -230 -34q38 -31 38 -77z" />
    <glyph glyph-name="eacute.01" horiz-adv-x="826" 
d="M779 0h-699v800h699v-180h-499v-135h429v-170h-429v-135h499v-180zM522 848h-180l74 147h199z" />
    <glyph glyph-name="udieresis.01" horiz-adv-x="1039" 
d="M352 858v129h139v-129h-139zM552 858v129h139v-129h-139zM767 800h200v-416q0 -168 -126 -284t-319 -116q-204 0 -327 102.5t-123 297.5v416h200v-416q0 -106 65.5 -161.5t184.5 -55.5q116 0 180.5 62.5t64.5 154.5v416z" />
    <glyph glyph-name="agrave.01" horiz-adv-x="950" 
d="M732 0l-62 158h-396l-65 -158h-213l356 800h256l341 -800h-217zM470 637l-129 -316h266l-124 316h-13zM577 848h-180l-103 147h199z" />
    <glyph glyph-name="aacute.01" horiz-adv-x="950" 
d="M732 0l-62 158h-396l-65 -158h-213l356 800h256l341 -800h-217zM470 637l-129 -316h266l-124 316h-13zM570 848h-180l74 147h199z" />
    <glyph glyph-name="acircumflex.01" horiz-adv-x="950" 
d="M732 0l-62 158h-396l-65 -158h-213l356 800h256l341 -800h-217zM348 985h257l113 -137h-199l-43 93l-42 -93h-199zM470 637l-129 -316h266l-124 316h-13z" />
    <glyph glyph-name="atilde.01" horiz-adv-x="950" 
d="M732 0l-62 158h-396l-65 -158h-213l356 800h256l341 -800h-217zM470 637l-129 -316h266l-124 316h-13zM419 882q-47 0 -87 -20v109q33 20 84 20q23 0 64.5 -15t62.5 -15q53 0 86 20v-109q-30 -20 -85 -20q-22 0 -64 15t-61 15z" />
    <glyph glyph-name="egrave.01" horiz-adv-x="826" 
d="M779 0h-699v800h699v-180h-499v-135h429v-170h-429v-135h499v-180zM557 848h-180l-103 147h199z" />
    <glyph glyph-name="edieresis.01" horiz-adv-x="826" 
d="M779 0h-699v800h699v-180h-499v-135h429v-170h-429v-135h499v-180zM282 858v129h139v-129h-139zM482 858v129h139v-129h-139z" />
    <glyph glyph-name="ecircumflex.01" horiz-adv-x="826" 
d="M779 0h-699v800h699v-180h-499v-135h429v-170h-429v-135h499v-180zM307 985h257l113 -137h-199l-43 93l-42 -93h-199z" />
    <glyph glyph-name="iacute.01" 
d="M271 848h-180l74 147h199zM80 0v800h200v-800h-200z" />
    <glyph glyph-name="igrave.01" 
d="M274 848h-180l-103 147h199zM80 0v800h200v-800h-200z" />
    <glyph glyph-name="icircumflex.01" 
d="M54 985h257l113 -137h-199l-43 93l-42 -93h-199zM80 0v800h200v-800h-200z" />
    <glyph glyph-name="idieresis.01" 
d="M13 858v129h139v-129h-139zM213 858v129h139v-129h-139zM80 0v800h200v-800h-200z" />
    <glyph glyph-name="ntilde.01" horiz-adv-x="1096" 
d="M487 882q-47 0 -87 -20v109q33 20 84 20q23 0 64.5 -15t62.5 -15q53 0 86 20v-109q-30 -20 -85 -20q-22 0 -63.5 15t-61.5 15zM761 0l-474 512h-30v-512h-200v800h234l466 -500h30v500h200v-800h-226z" />
    <glyph glyph-name="oe.01" horiz-adv-x="1530" 
d="M35 403q0 193 131 303t346 110q155 0 272 -60v44h699v-180h-499v-135h429v-170h-429v-135h499v-180h-699v48q-116 -64 -273 -64q-99 0 -185 27t-151 78t-102.5 132t-37.5 182zM241 402q0 -122 73.5 -186t194.5 -64q123 0 196.5 64.5t73.5 191.5q0 116 -74 178t-195 62
q-122 0 -195.5 -62t-73.5 -184z" />
    <glyph glyph-name="ae.01" horiz-adv-x="1361" 
d="M602 0v175h-310l-90 -175h-214l442 800h876v-175h-504v-143h444v-164h-444v-143h514v-175h-714zM524 625l-149 -290h227v290h-78z" />
    <glyph glyph-name="oslash.01" horiz-adv-x="1020" 
d="M35 403q0 193 131 303t346 110q154 0 267 -57l55 57h151l-116 -121q116 -108 116 -291q0 -136 -65 -232.5t-170.5 -142t-238.5 -45.5q-153 0 -267 60l-58 -60h-151l119 124q-119 111 -119 295zM241 402q0 -95 45 -156l361 376q-60 26 -137 26q-122 0 -195.5 -62
t-73.5 -184zM779 408q0 88 -45 147l-362 -377q61 -26 137 -26q123 0 196.5 64.5t73.5 191.5z" />
    <glyph glyph-name="germandbls.01" horiz-adv-x="1617" 
d="M578 223q0 23 -23 39t-61 24.5t-86.5 18t-99 18t-99 27t-86.5 43t-61 66.5t-23 97q0 123 104 191.5t270 68.5q102 0 197.5 -17.5t142.5 -44.5l-38 -170q-48 29 -135.5 45t-173.5 16q-169 0 -169 -66q0 -32 40 -52t100 -28.5t130 -24t130 -36.5t100 -68.5t40 -116.5
q0 -115 -98 -192t-282 -77q-233 0 -342 51l8 183q131 -63 340 -63q175 0 175 68zM1378 223q0 23 -23 39t-61 24.5t-86.5 18t-99 18t-99 27t-86.5 43t-61 66.5t-23 97q0 123 104 191.5t270 68.5q102 0 197.5 -17.5t142.5 -44.5l-38 -170q-48 29 -135.5 45t-173.5 16
q-169 0 -169 -66q0 -32 40 -52t100 -28.5t130 -24t130 -36.5t100 -68.5t40 -116.5q0 -115 -98 -192t-282 -77q-233 0 -342 51l8 183q131 -63 340 -63q175 0 175 68z" />
    <glyph glyph-name="NUL" horiz-adv-x="0" 
 />
    <glyph glyph-name="O_O" horiz-adv-x="1780" 
d="M35 403q0 193 113.5 303t298.5 110q182 0 295 -107.5t113 -304.5q0 -102 -33 -183.5t-89.5 -132.5t-129.5 -77.5t-157 -26.5t-158 27t-130.5 78t-89.5 132t-33 182zM241 402q0 -122 56.5 -186t146.5 -64q92 0 148.5 64.5t56.5 191.5q0 116 -56.5 178t-147.5 62
t-147.5 -62.5t-56.5 -183.5zM925 403q0 193 113.5 303t298.5 110q182 0 295 -107.5t113 -304.5q0 -102 -33 -183.5t-89.5 -132.5t-129.5 -77.5t-157 -26.5t-158 27t-130.5 78t-89.5 132t-33 182zM1131 402q0 -122 56.5 -186t146.5 -64q92 0 148.5 64.5t56.5 191.5
q0 116 -56.5 178t-147.5 62t-147.5 -62.5t-56.5 -183.5z" />
    </font>
</defs>
</svg>
